<svg width="24" height="24" viewBox="0 0 24 24" fill="none" xmlns="http://www.w3.org/2000/svg">
<g clip-path="url(#clip0_685_2354)">
<path d="M13.0754 11.4263C12.9974 11.3369 12.9248 11.2475 12.851 11.1575C12.8492 11.2127 12.8444 11.2709 12.8408 11.3279C12.9206 11.3549 12.9974 11.3909 13.0754 11.4263Z" fill="#FF9C00"/>
<path d="M20.5283 14.5207C20.7473 15.6547 20.4179 16.8733 19.5401 17.7511C18.9605 18.3307 18.2303 18.6577 17.4761 18.7591C18.5945 18.7699 19.5749 18.4717 20.2973 17.8249C20.3417 17.7847 20.3921 17.7523 20.4347 17.7097C21.2939 16.8505 21.6071 15.5791 21.4505 14.1265C21.3707 14.1775 21.2885 14.2285 21.1925 14.2765C20.9807 14.3827 20.7569 14.4601 20.5283 14.5207Z" fill="#FF9C00"/>
<path d="M5.80859 6.24776C5.83439 6.23516 5.85479 6.21656 5.88119 6.20456C6.07139 6.11576 6.26699 6.05396 6.46379 6.00956C6.91079 5.05436 7.95899 3.16556 9.13199 3.50696C9.25979 3.54416 9.37319 3.60716 9.47999 3.67976C9.77879 3.38876 10.1334 3.19136 10.5096 3.08396C9.00899 2.89736 7.69259 3.20336 6.81119 4.08476C6.76859 4.12736 6.73559 4.17776 6.69599 4.22216C6.20759 4.76696 5.91839 5.45996 5.80919 6.24716L5.80859 6.24776Z" fill="#FF9C00"/>
<path d="M22.9587 9.26145C22.2051 8.03685 19.7565 8.08425 19.7565 8.08425C19.7565 8.08425 20.4393 7.07205 19.0269 6.03585C18.4185 5.58945 17.7057 5.59845 17.0913 5.75145C17.5659 5.83425 18.0213 6.04365 18.3879 6.41025C19.3425 7.36485 19.3425 8.91225 18.3879 9.86685C18.3543 9.90045 18.3153 9.92325 18.2805 9.95445C18.9999 10.9367 19.4457 11.9057 19.5777 12.7067C20.0805 13.2263 20.4009 13.8569 20.5287 14.5199C20.7573 14.4593 20.9811 14.3813 21.1929 14.2751C21.2889 14.2271 21.3711 14.1761 21.4509 14.1251C22.9401 13.1687 21.7587 11.6861 21.7587 11.6861C21.7587 11.6861 23.7123 10.4849 22.9587 9.26025V9.26145Z" fill="#036D50"/>
<path d="M9.65467 7.57792C9.93907 8.18752 9.98647 8.84572 9.83827 9.45232C10.2505 9.67012 10.6009 10.0109 10.8127 10.4657C10.9465 10.7531 11.0095 11.0543 11.0155 11.3525C11.6035 11.1371 12.2491 11.1269 12.8407 11.3279C12.8443 11.2709 12.8491 11.2127 12.8509 11.1575C12.8713 10.5449 12.7933 10.0229 12.6523 9.57952C12.3121 9.64072 11.9635 9.62512 11.6311 9.49672C10.5301 9.07132 10.0393 7.68652 10.5355 6.40312C10.5439 6.38152 10.5547 6.35992 10.5637 6.33832C10.4761 5.44312 10.2187 4.18192 9.48007 3.67912C9.37327 3.60652 9.25987 3.54352 9.13207 3.50632C7.95907 3.16492 6.91087 5.05372 6.46387 6.00892C7.73707 5.72392 9.08047 6.34672 9.65467 7.57732V7.57792Z" fill="#036D50"/>
<path d="M11.6311 9.49723C11.9635 9.62563 12.3121 9.64123 12.6523 9.58003C13.4395 9.43843 14.1763 8.84023 14.5225 7.94443C15.0181 6.66163 14.7307 4.75063 13.6297 4.32523C12.5473 3.90703 11.0845 5.08003 10.5637 6.33883C10.5547 6.36043 10.5439 6.38203 10.5355 6.40363C10.0399 7.68643 10.5307 9.07183 11.6311 9.49723ZM11.2621 6.68443C11.5255 6.00343 12.2911 5.66443 12.9721 5.92783C13.6531 6.19063 13.9921 6.95683 13.7287 7.63783C13.4653 8.31883 12.6997 8.65783 12.0187 8.39443C11.3377 8.13103 10.9987 7.36543 11.2615 6.68443H11.2621Z" fill="#FFFEFA"/>
<path d="M14.4519 12.6623C14.4351 12.6791 14.4249 12.6989 14.4087 12.7157C14.5341 12.9779 14.6151 13.2557 14.6541 13.5389C14.8461 13.5599 15.0369 13.5965 15.2241 13.6493C15.2577 13.6109 15.2841 13.5677 15.3207 13.5311C16.2465 12.6059 17.7471 12.6059 18.6723 13.5311C19.5975 14.4563 19.5975 15.9569 18.6723 16.8827C18.4011 17.1539 18.0783 17.3357 17.7369 17.4479C17.6817 17.9021 17.5383 18.3425 17.3055 18.7511C17.3625 18.7529 17.4207 18.7583 17.4771 18.7589C18.2313 18.6575 18.9615 18.3311 19.5411 17.7509C20.4189 16.8731 20.7483 15.6545 20.5293 14.5205C20.4015 13.8581 20.0811 13.2269 19.5783 12.7073C19.5645 12.6929 19.5555 12.6761 19.5417 12.6623C18.1365 11.2571 15.8583 11.2571 14.4531 12.6623H14.4519Z" fill="#D12030"/>
<path d="M17.7369 17.4479C18.0777 17.3357 18.4011 17.1539 18.6723 16.8827C19.5975 15.9575 19.5975 14.4569 18.6723 13.5311C17.7465 12.6059 16.2459 12.6059 15.3207 13.5311C15.2841 13.5677 15.2583 13.6109 15.2241 13.6493C15.7833 13.8059 16.3113 14.1035 16.7511 14.5433C17.5443 15.3365 17.8635 16.4147 17.7369 17.4479Z" fill="#F56570"/>
<path d="M19.5424 12.6599C19.5544 12.6779 19.5664 12.6959 19.5784 12.7079C19.4464 11.9039 19.0024 10.9379 18.2824 9.95392C18.3124 9.92392 18.3544 9.89992 18.3904 9.86992C19.3444 8.90992 19.3444 7.36192 18.3904 6.40792C18.0244 6.04192 17.5684 5.83192 17.0944 5.75392C17.0104 5.73592 16.9324 5.71792 16.8544 5.71192C17.2504 4.81792 17.0824 3.73792 16.3504 2.99992C15.3964 2.04592 13.8484 2.04592 12.8944 2.99992C12.7684 3.13192 12.6604 3.26992 12.5644 3.41392C11.9524 2.99392 11.1964 2.88592 10.5124 3.08392C10.1344 3.19192 9.78043 3.38992 9.48043 3.67792C10.2184 4.18192 10.4764 5.44192 10.5664 6.34192C11.0824 5.08192 12.5464 3.90592 13.6324 4.32592C14.7304 4.75192 15.0184 6.65992 14.5204 7.94392C14.1784 8.83792 13.4404 9.43792 12.6544 9.58192C12.7924 10.0259 12.8704 10.5479 12.8524 11.1599C12.9244 11.2499 12.9964 11.3399 13.0744 11.4239C12.9964 11.3939 12.9184 11.3579 12.8404 11.3279C12.2524 11.1239 11.6044 11.1359 11.0164 11.3519C11.0104 11.0519 10.9444 10.7519 10.8124 10.4639C10.6024 10.0079 10.2484 9.67192 9.84043 9.44992C9.98443 8.84392 9.94243 8.18992 9.65443 7.57792C9.07843 6.34792 7.74043 5.72392 6.46243 6.01192C6.27043 6.05392 6.07243 6.11392 5.88043 6.20392C5.85643 6.21592 5.83243 6.23392 5.80843 6.24592C5.47243 8.68792 6.88843 12.0539 9.67843 14.8439C9.78043 14.9459 9.88843 15.0419 9.99643 15.1439C12.3664 17.3879 15.0904 18.6659 17.3044 18.7499C17.5384 18.3419 17.6824 17.9039 17.7364 17.4479C17.8624 16.4159 17.5444 15.3359 16.7524 14.5439C16.3084 14.1059 15.7804 13.8059 15.2224 13.6499C15.0364 13.5959 14.8444 13.5599 14.6524 13.5359C14.6164 13.2539 14.5324 12.9779 14.4064 12.7139C14.4244 12.6959 14.4364 12.6779 14.4544 12.6599C15.8584 11.2559 18.1384 11.2559 19.5424 12.6599ZM16.6084 9.59392L16.7524 9.31192C16.8604 9.10192 17.1124 9.02392 17.3224 9.12592L17.6044 9.27592C17.8144 9.37792 17.8924 9.63592 17.7844 9.84592L17.6404 10.1219C17.5384 10.3319 17.2804 10.4159 17.0704 10.3079L16.7884 10.1639C16.5844 10.0559 16.5004 9.80392 16.6084 9.59392ZM13.6984 11.9099C13.4764 11.9879 13.2364 11.8679 13.1584 11.6459L13.0864 11.4299L13.0564 11.3459C12.9784 11.1239 13.0984 10.8839 13.3144 10.8119L13.6144 10.7039C13.8364 10.6319 14.0764 10.7459 14.1544 10.9679L14.2564 11.2679C14.3344 11.4899 14.2204 11.7299 13.9984 11.8079L13.7764 11.8799L13.6984 11.9099Z" fill="#23B169"/>
<path d="M12.0188 8.39454C12.6998 8.65794 13.4654 8.31894 13.7288 7.63794C13.9922 6.95694 13.6532 6.19074 12.9722 5.92794C12.2912 5.66454 11.5256 6.00354 11.2622 6.68454C10.9988 7.36554 11.3372 8.13114 12.0188 8.39454Z" fill="#FFD900"/>
<path d="M16.7513 9.31321L16.6072 9.59465C16.5005 9.80288 16.5829 10.0581 16.7911 10.1648L17.0725 10.3089C17.2808 10.4156 17.536 10.3332 17.6427 10.125L17.7868 9.84354C17.8934 9.63531 17.8111 9.38005 17.6029 9.27341L17.3214 9.12928C17.1132 9.02263 16.8579 9.10498 16.7513 9.31321Z" fill="#FFD900"/>
<path d="M13.1587 11.6472C13.2355 11.868 13.4761 11.9856 13.6975 11.9088L13.7749 11.8818L13.9963 11.805C14.2171 11.7282 14.3347 11.487 14.2579 11.2662L14.1541 10.9668C14.0773 10.746 13.8367 10.6284 13.6153 10.7052L13.3159 10.809C13.0951 10.8852 12.9775 11.1264 13.0543 11.3478L13.0825 11.43L13.1575 11.6472H13.1587Z" fill="#FFD900"/>
<path d="M17.477 18.759C17.4206 18.759 17.3624 18.7536 17.3054 18.7512C15.0884 18.6684 12.3638 17.3904 9.99681 15.144C9.89061 15.0432 9.78201 14.9472 9.67761 14.8428C6.88821 12.0534 5.46981 8.68982 5.80881 6.24722C5.91801 5.46002 6.20721 4.76702 6.69561 4.22222C6.70641 4.19762 6.71301 4.18262 6.71301 4.18262L4.96701 5.92862C1.20501 9.69122 1.20501 15.7908 4.96701 19.5528C8.72901 23.3148 14.8292 23.3148 18.5912 19.5528L20.3372 17.8068C20.3372 17.8068 20.3222 17.814 20.2976 17.8242C19.5752 18.471 18.5948 18.7692 17.4764 18.7584L17.477 18.759Z" fill="#FFC450"/>
</g>
<defs>
<clipPath id="clip0_685_2354">
<rect width="24" height="24" fill="white"/>
</clipPath>
</defs>
</svg>
