<svg width="24" height="24" viewBox="0 0 24 24" fill="none" xmlns="http://www.w3.org/2000/svg">
<g clip-path="url(#clip0_685_2349)">
<path d="M22.5368 7.46041C19.9646 2.59141 14.6468 -0.183592 9.36024 1.27561C4.11444 2.72341 0.572639 8.17081 1.03164 14.1072C1.25124 16.9464 2.28504 19.476 3.84204 21.471C5.37384 23.4336 8.27124 23.6676 10.1096 22.0092C10.1342 21.987 19.6262 12.5922 22.2194 9.87121C22.8098 9.25141 22.9586 8.25841 22.5374 7.46101L22.5368 7.46041Z" fill="#FF9C00"/>
<path d="M10.5616 2.9249C9.42577 3.1871 8.55397 3.9695 8.11297 4.9577C7.98577 4.9727 7.85917 4.9769 7.73137 5.0063C6.18277 5.3639 5.12017 6.6815 4.99057 8.1839C4.18117 9.0251 3.79597 10.2425 4.07797 11.4647C4.18957 11.9489 4.39537 12.3863 4.67077 12.7643C3.97957 13.5935 3.66037 14.7173 3.92197 15.8501C4.00957 16.2293 4.16797 16.5695 4.35877 16.8851C4.32577 17.2523 4.33237 17.6279 4.41997 18.0071C4.86397 19.9301 6.78277 21.1295 8.70637 20.6855C10.6294 20.2415 11.8288 18.3227 11.3848 16.3991C11.2972 16.0199 11.1388 15.6797 10.948 15.3641C10.981 14.9969 10.9744 14.6213 10.8868 14.2421C10.7752 13.7579 10.5694 13.3205 10.294 12.9425C10.7566 12.3869 11.0422 11.7011 11.1052 10.9649C11.3932 10.6655 11.6194 10.3157 11.7886 9.9371C11.9158 9.9221 12.0424 9.9179 12.1702 9.8885C14.0932 9.4445 15.2926 7.5257 14.8486 5.6021C14.4046 3.6785 12.4858 2.4797 10.5622 2.9237L10.5616 2.9249Z" fill="#6E4944"/>
<path d="M6.97891 10.68C7.31028 10.68 7.57891 10.4114 7.57891 10.08C7.57891 9.74861 7.31028 9.47998 6.97891 9.47998C6.64754 9.47998 6.37891 9.74861 6.37891 10.08C6.37891 10.4114 6.64754 10.68 6.97891 10.68Z" fill="#FFCF9C"/>
<path d="M9.09854 8.09868C9.42991 8.09868 9.69854 7.83005 9.69854 7.49868C9.69854 7.16731 9.42991 6.89868 9.09854 6.89868C8.76716 6.89868 8.49854 7.16731 8.49854 7.49868C8.49854 7.83005 8.76716 8.09868 9.09854 8.09868Z" fill="#FFCF9C"/>
<path d="M7.62412 14.9004C7.96792 14.9076 8.23492 15.1974 8.21332 15.5406C8.18812 15.9396 8.08072 16.4544 7.72972 16.7772C7.37872 17.1 6.85672 17.1642 6.45712 17.1558C6.11332 17.1486 5.84632 16.8588 5.86792 16.5156C5.89312 16.1166 6.00052 15.6018 6.35152 15.279C6.70252 14.9562 7.22452 14.892 7.62412 14.9004Z" fill="#489C5E"/>
<path d="M9.04741 13.1268C9.17941 13.4448 9.02101 13.8054 8.69761 13.9236C8.32201 14.061 7.80781 14.1696 7.37101 13.9782C6.93421 13.7868 6.66601 13.3344 6.51241 12.9648C6.38041 12.6468 6.53881 12.2862 6.86221 12.168C7.23781 12.0306 7.75201 11.922 8.18881 12.1134C8.62561 12.3048 8.89381 12.7572 9.04741 13.1268Z" fill="#489C5E"/>
<path d="M22.1231 4.85869L21.8807 4.53829C21.0503 3.43909 19.9793 2.51989 18.7079 1.98949C17.6237 1.53709 16.5575 1.40629 15.5399 1.64149C11.1575 2.65309 9.34673 9.75289 10.0235 19.4663C10.0247 19.4915 10.0265 19.5131 10.0265 19.5401C10.0745 22.9853 7.55273 23.1131 7.55273 23.1131C8.80493 23.0543 9.75713 22.5275 10.5131 21.7739L21.7091 10.6121C23.2685 9.06829 23.4449 6.60949 22.1225 4.85869H22.1231Z" fill="#FFD06C"/>
</g>
<defs>
<clipPath id="clip0_685_2349">
<rect width="24" height="24" fill="white"/>
</clipPath>
</defs>
</svg>
