<svg width="24" height="24" viewBox="0 0 24 24" fill="none" xmlns="http://www.w3.org/2000/svg">
<g clip-path="url(#clip0_685_2350)">
<path d="M14.7396 2.91479L8.55656 16.3284C8.45636 16.5444 8.54876 16.8048 8.76296 16.9092C8.91776 16.9848 9.09776 16.9596 9.22676 16.86C9.27596 16.8222 9.31736 16.773 9.34796 16.7142L16.1172 3.5868L14.7396 2.91479Z" fill="#3D3D3D"/>
<path d="M17.3101 1.26003C17.3719 1.13943 17.3821 1.00203 17.3395 0.873032C17.2969 0.744632 17.2057 0.640832 17.0839 0.582032L16.5139 0.303632C16.3921 0.244232 16.2541 0.236432 16.1269 0.282032C15.9991 0.327032 15.8977 0.420032 15.8401 0.543032L14.7397 2.91483L16.1173 3.58683L17.3101 1.26003Z" fill="#EF4452"/>
<path d="M17.5109 4.11621L9.52134 16.5386C9.39234 16.7384 9.44754 17.0096 9.64494 17.1422C9.78774 17.2388 9.96954 17.2388 10.1111 17.1578C10.1651 17.1272 10.2131 17.084 10.2515 17.0306L18.7823 4.97361L17.5115 4.11621H17.5109Z" fill="#3D3D3D"/>
<path d="M20.2863 2.8351C20.3643 2.7241 20.3937 2.5897 20.3691 2.4559C20.3445 2.3227 20.2689 2.2075 20.1567 2.1319L19.6311 1.7773C19.5183 1.7011 19.3833 1.6747 19.2507 1.7017C19.1175 1.7287 19.0047 1.8061 18.9303 1.9201L17.5107 4.1161L18.7815 4.9735L20.2863 2.8351Z" fill="#EF4452"/>
<path d="M18.4164 21.9475H12V10.1941H20.9142L19.299 21.1507C19.2522 21.6031 18.8712 21.9475 18.4164 21.9475Z" fill="#D0D5DA"/>
<path d="M12 10.1947L13.6566 6.94689C13.8738 6.52089 14.3118 6.25269 14.79 6.25269H22.4628C22.9782 6.25269 23.2794 6.83349 22.983 7.25469L20.9142 10.1941L12 10.1947Z" fill="#AFB7C0"/>
<path d="M12 17.3845V18.6763H19.6638L19.8546 17.3845H12Z" fill="#BB1B2A"/>
<path d="M5.58325 21.9475H11.9996V10.1941H3.08545L4.70065 21.1507C4.74745 21.6031 5.12845 21.9475 5.58325 21.9475Z" fill="#E5E9EE"/>
<path d="M11.9998 10.1947L10.3432 6.94689C10.126 6.52089 9.68804 6.25269 9.20984 6.25269H1.53704C1.02164 6.25269 0.720442 6.83349 1.01684 7.25469L3.08564 10.1941L11.9998 10.1947Z" fill="#D0D5DA"/>
<path d="M11.9996 17.3845V18.6763H4.33582L4.14502 17.3845H11.9996Z" fill="#EF4452"/>
</g>
<defs>
<clipPath id="clip0_685_2350">
<rect width="24" height="24" fill="white"/>
</clipPath>
</defs>
</svg>
