<svg width="24" height="24" viewBox="0 0 24 24" fill="none" xmlns="http://www.w3.org/2000/svg">
<g clip-path="url(#clip0_685_2351)">
<path d="M14.1573 2.05857C15.8451 0.370767 18.8073 0.597567 20.7747 2.56437C22.7415 4.53117 22.9683 7.49397 21.2805 9.18177L9.75452 20.7078C8.06672 22.3956 5.10452 22.1688 3.13712 20.202C1.17032 18.2352 0.943521 15.2724 2.63132 13.5846L14.1573 2.05857Z" fill="#3D3D3D"/>
<path d="M9.00688 19.9739C10.3432 18.6376 10.1637 16.2915 8.60595 14.7338C7.04823 13.1761 4.70216 12.9966 3.36587 14.3329C2.02957 15.6692 2.20907 18.0152 3.7668 19.5729C5.32452 21.1307 7.67059 21.3102 9.00688 19.9739Z" fill="white"/>
<path d="M22.4999 20.7054C22.4999 22.0128 20.4245 23.0724 17.8637 23.0724C15.3029 23.0724 13.2275 22.0128 13.2275 20.7054V15.972C13.2275 14.6646 15.3029 13.605 17.8637 13.605C20.4245 13.605 22.4999 14.6646 22.4999 15.972V20.7054Z" fill="#3D3D3D"/>
<path d="M17.8639 18.339C20.0642 18.339 21.8479 17.4283 21.8479 16.305C21.8479 15.1816 20.0642 14.271 17.8639 14.271C15.6636 14.271 13.8799 15.1816 13.8799 16.305C13.8799 17.4283 15.6636 18.339 17.8639 18.339Z" fill="white"/>
<path d="M17.3328 15.3209L15.9144 15.8867C15.6438 15.9947 15.6438 16.3775 15.9144 16.4855L17.3328 17.0513C17.6742 17.1875 18.0546 17.1875 18.3954 17.0513L19.8138 16.4855C20.0844 16.3775 20.0844 15.9947 19.8138 15.8867L18.3954 15.3209C18.054 15.1847 17.6736 15.1847 17.3328 15.3209Z" fill="#F2AD6C"/>
<path d="M7.80641 16.677L6.58792 15.4585C6.24488 15.1155 5.68871 15.1155 5.34567 15.4585L4.27186 16.5323C3.92883 16.8754 3.92883 17.4315 4.27186 17.7746L5.49035 18.9931C5.83339 19.3361 6.38956 19.3361 6.73259 18.9931L7.80641 17.9193C8.14944 17.5762 8.14944 17.02 7.80641 16.677Z" fill="#F2AD6C"/>
</g>
<defs>
<clipPath id="clip0_685_2351">
<rect width="24" height="24" fill="white"/>
</clipPath>
</defs>
</svg>
