<svg width="24" height="25" viewBox="0 0 24 25" fill="none" xmlns="http://www.w3.org/2000/svg">
<path fill-rule="evenodd" clip-rule="evenodd" d="M12.0003 3.87354C6.79576 3.87354 2.57178 7.15468 2.57178 11.1901C2.57178 13.7075 4.20291 15.9044 6.69205 17.2433L5.64548 21.0807C5.62573 21.157 5.6298 21.2376 5.65713 21.3115C5.68446 21.3855 5.73375 21.4493 5.79838 21.4944C5.86302 21.5396 5.93992 21.5639 6.01876 21.5641C6.0976 21.5643 6.17461 21.5404 6.23948 21.4955L10.8217 18.4501C11.2083 18.4501 11.6043 18.5161 12.0003 18.5161C17.2049 18.5161 21.4289 15.235 21.4289 11.1901C21.4289 7.14525 17.2049 3.87354 12.0003 3.87354Z" fill="#131416"/>
</svg>
