<svg preserveAspectRatio="none" width="100%" height="100%" overflow="visible" style="display: block;" viewBox="0 0 71.9998 24" fill="none" xmlns="http://www.w3.org/2000/svg">
<g id="Group">
<path id="Vector" d="M5.29011 15.8799C5.29011 13.9599 4.21921 12.4559 4.21921 10.0639C4.21921 5.6399 7.81839 2.74391 12.7461 2.74391V6.1999C9.91993 6.2879 7.99554 7.7039 7.99554 10.3919C7.99554 12.3119 9.06643 13.8479 9.06643 16.2639C9.06643 20.6639 5.49946 23.5279 2.65629e-05 23.5279V20.0719C3.14831 20.0399 5.29011 18.6879 5.29011 15.8799Z" fill="url(#paint0_radial_27_14588)"/>
<path id="Vector_2" d="M12.9554 13.136C12.9554 6.968 17.8268 2.328 24.4535 2.328C31.0802 2.328 35.9838 6.96 35.9838 13.136C35.9838 19.312 31.0802 23.944 24.4535 23.944C17.8268 23.944 12.9554 19.312 12.9554 13.136ZM24.4535 20.52C29.0028 20.52 32.1753 17.512 32.1753 13.136C32.1753 8.75999 28.9948 5.752 24.4535 5.752C19.9123 5.752 16.7559 8.73599 16.7559 13.136C16.7559 17.536 19.9042 20.52 24.4535 20.52Z" fill="url(#paint1_radial_27_14588)"/>
<path id="Vector_3" d="M61.8384 24C55.7512 18.744 52.0634 10.48 51.6769 2.80006H55.3003C55.6304 8.82404 58.3036 15.168 61.8384 19.04C65.4054 15.2 68.0786 8.82404 68.3765 2.80006H71.9998C71.6134 10.472 67.9578 18.744 61.8384 24Z" fill="url(#paint2_radial_27_14588)"/>
<path id="Vector_4" d="M52.4413 19.744V22.8C52.0226 22.936 51.3382 23.008 50.3881 23.008C48.8824 23.008 47.4653 22.68 46.1528 22.032C44.8323 21.384 43.6648 20.448 42.6422 19.232C41.7001 20.488 40.7742 21.672 39.8643 22.768H35.6129C37.6259 20.488 39.3812 18.424 40.8869 16.568C39.4778 13.888 38.7773 10.744 38.7773 7.12799C38.7773 4.568 39.2201 2.744 40.1058 1.648C40.9916 0.552007 42.2235 8.58307e-06 43.8178 8.58307e-06C45.412 8.58307e-06 46.7084 0.512007 47.5538 1.52801C48.3993 2.544 48.818 4.088 48.818 6.14399C48.818 7.27999 48.7052 8.31999 48.4878 9.25599C48.2624 10.192 47.8679 11.232 47.2801 12.36C46.6923 13.488 45.8388 14.84 44.7196 16.416C45.4845 17.536 46.3944 18.384 47.4653 18.96C48.5281 19.536 49.7037 19.832 50.992 19.832C51.5315 19.832 52.0146 19.8 52.4413 19.744ZM43.2139 13.36C44.1398 11.92 44.7437 10.704 45.0255 9.70399C45.3074 8.70399 45.4442 7.54399 45.4442 6.23199C45.4442 5.056 45.3074 4.248 45.0255 3.824C44.7437 3.392 44.3411 3.176 43.8178 3.176C43.2944 3.176 42.916 3.464 42.6744 4.048C42.4328 4.632 42.3121 5.656 42.3121 7.13599C42.3121 9.43199 42.61 11.512 43.2139 13.368V13.36Z" fill="url(#paint3_radial_27_14588)"/>
</g>
<defs>
<radialGradient id="paint0_radial_27_14588" cx="0" cy="0" r="1" gradientUnits="userSpaceOnUse" gradientTransform="translate(6.37174 13.1332) scale(5.44548 13.0934)">
<stop stop-color="#FF4F14"/>
<stop offset="1" stop-color="#FF7E52"/>
</radialGradient>
<radialGradient id="paint1_radial_27_14588" cx="0" cy="0" r="1" gradientUnits="userSpaceOnUse" gradientTransform="translate(24.4672 13.1332) scale(9.83833 13.6175)">
<stop stop-color="#FF4F14"/>
<stop offset="1" stop-color="#FF7E52"/>
</radialGradient>
<radialGradient id="paint2_radial_27_14588" cx="0" cy="0" r="1" gradientUnits="userSpaceOnUse" gradientTransform="translate(61.8362 13.3973) scale(8.6825 13.3554)">
<stop stop-color="#FF4F14"/>
<stop offset="1" stop-color="#FF7E52"/>
</radialGradient>
<radialGradient id="paint3_radial_27_14588" cx="0" cy="0" r="1" gradientUnits="userSpaceOnUse" gradientTransform="translate(44.0253 11.501) scale(7.18955 14.4944)">
<stop stop-color="#FF4F14"/>
<stop offset="1" stop-color="#FF7E52"/>
</radialGradient>
</defs>
</svg>
