<svg width="36" height="36" viewBox="0 0 36 36" fill="none" xmlns="http://www.w3.org/2000/svg">
<g clip-path="url(#clip0_2999_14172)">
<path d="M32.8501 25.6499V10.3499C32.8501 6.37345 29.6265 3.1499 25.6501 3.1499L10.3501 3.1499C6.37365 3.1499 3.1501 6.37345 3.1501 10.3499V25.6499C3.1501 29.6264 6.37365 32.8499 10.3501 32.8499H25.6501C29.6265 32.8499 32.8501 29.6264 32.8501 25.6499Z" fill="#51D48C"/>
<path d="M18.7956 26.2574L26.2467 18.8063C26.6922 18.3608 26.6922 17.639 26.2467 17.1935L18.7956 9.7424C18.4248 9.3716 17.7912 9.6344 17.7912 10.1582V13.8023C17.7912 14.1641 17.4978 14.4575 17.136 14.4575H9.97466C9.66776 14.4575 9.41846 14.7068 9.41846 15.0137V20.987C9.41846 21.2939 9.66776 21.5432 9.97466 21.5432H17.136C17.4978 21.5432 17.7912 21.8366 17.7912 22.1984V25.8425C17.7912 26.3663 18.4248 26.6291 18.7956 26.2583V26.2574Z" fill="white"/>
</g>
<defs>
<clipPath id="clip0_2999_14172">
<rect width="36" height="36" fill="white"/>
</clipPath>
</defs>
</svg>
