<svg width="36" height="36" viewBox="0 0 36 36" fill="none" xmlns="http://www.w3.org/2000/svg">
<path d="M16.5969 26.6884C12.6351 26.6884 9.4239 23.4772 9.4239 19.5154C9.4239 15.5536 12.6351 12.3424 16.5969 12.3424C17.6382 12.3424 18.6255 12.5692 19.5183 12.9688C20.3301 12.2947 21.4092 11.4397 22.5477 10.5541C20.8431 9.42006 18.7983 8.75586 16.5969 8.75586C10.6542 8.75586 5.8374 13.5736 5.8374 19.5154C5.8374 25.4572 10.6551 30.2749 16.5969 30.2749C22.5387 30.2749 27.3573 25.4572 27.3573 19.5154C27.3573 17.2312 26.6409 15.1171 25.4268 13.3756C24.5619 14.5177 23.7249 15.6013 23.0616 16.4212C23.5116 17.359 23.7708 18.4057 23.7708 19.5154C23.7708 23.4772 20.5587 26.6884 16.5969 26.6884Z" fill="#E5E5E5"/>
<path d="M16.596 20.1217C16.425 20.1217 16.2531 20.0569 16.1217 19.9273C15.8571 19.6654 15.8544 19.2379 16.1163 18.9724L18.1467 16.9168C18.0351 16.7053 17.9244 16.4479 17.8461 16.1644C17.4555 16.0186 17.037 15.9277 16.596 15.9277C14.6151 15.9277 13.0095 17.5333 13.0095 19.5142C13.0095 21.4951 14.6151 23.1007 16.596 23.1007C18.5769 23.1007 20.1825 21.4951 20.1825 19.5142C20.1825 19.0381 20.0853 18.5854 19.917 18.1705C19.611 18.0958 19.3338 17.9806 19.107 17.8654L17.0766 19.921C16.9452 20.0551 16.7697 20.1217 16.596 20.1217Z" fill="#E5E5E5"/>
<path d="M32.5973 4.20857L33.8321 2.95847C34.094 2.69387 34.0913 2.26547 33.8267 2.00357C33.5603 1.74167 33.1328 1.74347 32.8718 2.00987L31.637 3.25997C31.7765 3.70007 31.8422 4.01237 31.8422 4.01237C31.8422 4.01237 32.1545 4.07447 32.5964 4.20857H32.5973Z" fill="#243D55"/>
<path d="M16.1164 18.9741C15.8545 19.2387 15.8572 19.6671 16.1218 19.929C16.2532 20.0586 16.4251 20.1234 16.5961 20.1234C16.7698 20.1234 16.9444 20.0568 17.0758 19.9227L19.1062 17.8671C18.7471 17.6844 18.5158 17.5053 18.5158 17.5053C18.5158 17.5053 18.334 17.2758 18.1468 16.9194L16.1164 18.9741Z" fill="#243D55"/>
<path d="M27.7471 10.2692C27.7201 10.3052 27.6931 10.3502 27.6661 10.3862C26.9731 11.3132 26.1991 12.3572 25.4251 13.3742C24.5611 14.5172 23.7241 15.5972 23.0581 16.4252C22.6261 16.9562 22.2661 17.3882 22.0321 17.6222C21.3661 18.2972 20.5741 18.3332 19.9171 18.1712C19.6111 18.0992 19.3321 17.9822 19.1071 17.8652C18.7471 17.6852 18.5131 17.5052 18.5131 17.5052C18.5131 17.5052 18.3331 17.2712 18.1441 16.9202C18.0361 16.7042 17.9281 16.4522 17.8471 16.1642C17.6581 15.4982 17.6671 14.6882 18.3511 13.9952C18.5851 13.7612 18.9991 13.4012 19.5211 12.9692C20.3311 12.2942 21.4111 11.4392 22.5451 10.5572C23.5531 9.77415 24.5881 8.98215 25.5061 8.28015C25.5511 8.24415 25.5961 8.21715 25.6411 8.18115C25.8841 9.11715 26.1901 9.73815 26.1901 9.73815C26.1901 9.73815 26.8111 10.0352 27.7471 10.2692Z" fill="#3D3D3D"/>
<path d="M26.1881 9.73699L31.8437 4.01118C31.8437 4.01118 31.778 3.69979 31.6385 3.25879C31.1597 1.75219 29.8034 -1.27451 27.1556 1.40569C24.9443 3.64399 25.1891 6.46279 25.6373 8.18089C25.883 9.12049 26.1881 9.73699 26.1881 9.73699Z" fill="#A41926"/>
<path d="M27.3563 19.5145C27.3563 25.4572 22.5386 30.274 16.5959 30.274C10.6532 30.274 5.83642 25.4563 5.83642 19.5145C5.83642 13.5727 10.6541 8.75496 16.5959 8.75496C18.7973 8.75496 20.8421 9.41916 22.5467 10.5532C23.5502 9.77376 24.5861 8.97996 25.5041 8.28156C23.0561 6.33756 19.9646 5.16846 16.5959 5.16846C8.67232 5.16846 2.24902 11.5918 2.24902 19.5154C2.24902 27.439 8.67232 33.8623 16.5959 33.8623C24.5195 33.8623 30.9428 27.439 30.9428 19.5154C30.9428 16.0468 29.7116 12.8662 27.6632 10.3858C26.9765 11.3128 26.1944 12.3595 25.4249 13.3747C26.639 15.1171 27.3563 17.2303 27.3563 19.5145Z" fill="#EF4452"/>
<path d="M16.5968 23.1023C14.6159 23.1023 13.0103 21.4967 13.0103 19.5158C13.0103 17.5349 14.6159 15.9293 16.5968 15.9293C17.0387 15.9293 17.4563 16.0202 17.8469 16.166C17.6624 15.4973 17.6687 14.6873 18.3545 13.9934C18.584 13.7603 19.0016 13.3985 19.5182 12.9692C18.6254 12.5696 17.6381 12.3428 16.5968 12.3428C12.635 12.3428 9.42383 15.554 9.42383 19.5158C9.42383 23.4776 12.635 26.6888 16.5968 26.6888C20.5586 26.6888 23.7698 23.4776 23.7698 19.5158C23.7698 18.4061 23.5106 17.3594 23.0606 16.4216C22.6277 16.9562 22.2632 17.3873 22.0301 17.6231C21.3632 18.2981 20.5775 18.3323 19.9178 18.1712C20.0861 18.587 20.1833 19.0388 20.1833 19.5149C20.1833 21.4958 18.5777 23.1014 16.5968 23.1014V23.1023Z" fill="#EF4452"/>
<path d="M26.1882 9.73703C26.1882 9.73703 26.8074 10.0349 27.7506 10.2689C29.4741 10.6964 32.2947 10.9061 34.506 8.66693C37.1538 5.98673 34.11 4.66733 32.5971 4.20743C32.1552 4.07333 31.8429 4.01123 31.8429 4.01123L26.1882 9.73703Z" fill="#EF4452"/>
</svg>
