<svg width="16" height="16" viewBox="0 0 16 16" fill="none" xmlns="http://www.w3.org/2000/svg">
<path d="M8.00065 14.6673C11.6825 14.6673 14.6673 11.6825 14.6673 8.00065C14.6673 4.31875 11.6825 1.33398 8.00065 1.33398C4.31875 1.33398 1.33398 4.31875 1.33398 8.00065C1.33398 11.6825 4.31875 14.6673 8.00065 14.6673Z" fill="#FF7E52"/>
<path d="M9.64645 6.31246C9.84171 6.1172 10.1582 6.1172 10.3535 6.31246C10.5487 6.50772 10.5487 6.82423 10.3535 7.01949L7.68681 9.68616C7.49155 9.88142 7.17504 9.88142 6.97978 9.68616L5.64645 8.35283C5.45118 8.15756 5.45118 7.84106 5.64645 7.6458C5.84171 7.45053 6.15822 7.45053 6.35348 7.6458L7.3333 8.62561L9.64645 6.31246Z" fill="white"/>
</svg>
