<svg width="52" height="52" viewBox="0 0 52 52" fill="none" xmlns="http://www.w3.org/2000/svg">
<circle cx="26" cy="26" r="26" fill="#FEE500"/>
<path fill-rule="evenodd" clip-rule="evenodd" d="M26.2673 16.9121C20.2531 16.9121 15.3721 20.7037 15.3721 25.3668C15.3721 28.2758 17.2569 30.8144 20.1333 32.3616L18.9239 36.7959C18.9011 36.8841 18.9058 36.9772 18.9374 37.0627C18.9689 37.1481 19.0259 37.2219 19.1006 37.274C19.1753 37.3262 19.2641 37.3543 19.3552 37.3545C19.4464 37.3547 19.5353 37.3271 19.6103 37.2753L24.9054 33.7561C25.3521 33.7561 25.8097 33.8324 26.2673 33.8324C32.2814 33.8324 37.1625 30.0409 37.1625 25.3668C37.1625 20.6928 32.2814 16.9121 26.2673 16.9121Z" fill="#1D1E20"/>
</svg>
