<svg width="40" height="40" viewBox="0 0 40 40" fill="none" xmlns="http://www.w3.org/2000/svg">
<g clip-path="url(#clip0_2999_14160)">
<path d="M13.1319 19.4132C16.5732 19.4132 19.3629 16.6235 19.3629 13.1822C19.3629 9.74089 16.5732 6.95117 13.1319 6.95117C9.69059 6.95117 6.90088 9.74089 6.90088 13.1822C6.90088 16.6235 9.69059 19.4132 13.1319 19.4132Z" fill="#8BBDFF"/>
<path d="M13.132 21.3193C4.758 21.3193 1.5 27.0293 1.5 29.6853C1.5 32.3413 8.434 33.0483 13.132 33.0483C17.83 33.0483 24.764 32.3413 24.764 29.6853C24.764 27.0293 21.507 21.3193 13.132 21.3193Z" fill="#8BBDFF"/>
<path d="M26.868 19.4132C30.3092 19.4132 33.099 16.6235 33.099 13.1822C33.099 9.74089 30.3092 6.95117 26.868 6.95117C23.4267 6.95117 20.637 9.74089 20.637 13.1822C20.637 16.6235 23.4267 19.4132 26.868 19.4132Z" fill="#3180F3"/>
<path d="M26.8681 21.3193C18.4941 21.3193 15.2361 27.0293 15.2361 29.6853C15.2361 32.3413 22.1701 33.0483 26.8681 33.0483C31.5661 33.0483 38.5001 32.3413 38.5001 29.6853C38.5001 27.0293 35.2431 21.3193 26.8681 21.3193Z" fill="#3180F3"/>
</g>
<defs>
<clipPath id="clip0_2999_14160">
<rect width="40" height="40" fill="white"/>
</clipPath>
</defs>
</svg>
