<svg width="60" height="60" viewBox="0 0 60 60" fill="none" xmlns="http://www.w3.org/2000/svg">
<g filter="url(#filter0_i_3495_30848)">
<path d="M54.5577 28.6512C56.6127 36.3208 68.2668 50.9317 29.8242 50.9317C-8.61844 50.9317 3.12668 35.9811 5.09076 28.6512C7.23528 20.6478 14.9433 10 29.8242 10C44.7051 10 52.5026 20.9815 54.5577 28.6512Z" fill="url(#paint0_radial_3495_30848)"/>
</g>
<mask id="mask0_3495_30848" style="mask-type:alpha" maskUnits="userSpaceOnUse" x="1" y="9" width="57" height="42">
<path d="M54.5577 28.6449C56.6127 36.3146 68.2668 50.9255 29.8242 50.9255C-8.61844 50.9255 3.12668 35.9749 5.09076 28.6449C7.23529 20.6415 14.9433 9.99374 29.8242 9.99374C44.7051 9.99374 52.5026 20.9753 54.5577 28.6449Z" fill="#EEECE3"/>
</mask>
<g mask="url(#mask0_3495_30848)">
<g filter="url(#filter1_g_3495_30848)">
<ellipse cx="39.6958" cy="5.03746" rx="46.875" ry="24.375" transform="rotate(26.1473 39.6958 5.03746)" fill="#9C9F93"/>
</g>
<g filter="url(#filter2_g_3495_30848)">
<ellipse cx="29.0625" cy="53.4373" rx="43.125" ry="10.3125" fill="#D4D4C7"/>
</g>
</g>
<path d="M34.9346 12.1875C34.9346 11.4375 37.4346 13.125 38.6846 14.0625C39.6221 15 38.6846 15.9375 37.7471 15.9375C36.8096 15.9375 34.9346 13.125 34.9346 12.1875Z" fill="#303030"/>
<path d="M31.1843 15.9375L31.1843 15.9375C31.4968 15.625 32.4968 14.25 33.9968 15C35.8718 15.9375 35.8718 16.875 35.8718 17.8125C35.8718 18.75 33.9968 18.75 32.1218 17.8125C30.6218 17.0625 30.8718 16.5625 31.1843 15.9375Z" fill="#303030"/>
<path d="M32.121 14.0625C31.1835 14.0625 30.246 14.0625 28.371 13.125C26.496 12.1875 29.3085 11.25 30.246 11.25C30.871 11.25 32.3085 11.4375 33.0585 12.1875C33.996 13.125 33.0585 14.0625 32.121 14.0625Z" fill="#303030"/>
<path d="M25.5595 17.8125C24.8095 16.3125 27.122 14.6875 28.372 14.0625C30.622 13.3125 29.3095 16.25 28.372 17.8125C27.4345 19.6875 26.3095 19.3125 25.5595 17.8125Z" fill="#303030"/>
<path d="M21.8095 16.875C20.971 17.2943 18.997 16.875 19.9345 15C20.6845 13.5 23.997 12.1875 25.5595 12.1875C28.9194 12.1875 23.6845 15.9375 21.8095 16.875Z" fill="#303030"/>
<path d="M35.625 30H40.3125" stroke="#303030" stroke-width="1.875" stroke-linecap="round"/>
<path d="M36.5625 29.0625H41.25" stroke="#303030" stroke-width="1.875" stroke-linecap="round"/>
<path d="M36.5625 30.9375H41.25" stroke="#303030" stroke-width="1.875" stroke-linecap="round"/>
<path d="M36.5625 32.8125H41.25" stroke="#303030" stroke-width="1.875" stroke-linecap="round"/>
<path d="M35.625 31.875H40.3125" stroke="#303030" stroke-width="1.875" stroke-linecap="round"/>
<path d="M24.375 30H19.6875" stroke="#303030" stroke-width="1.875" stroke-linecap="round"/>
<path d="M23.4375 29.0625H18.75" stroke="#303030" stroke-width="1.875" stroke-linecap="round"/>
<path d="M23.4375 30.9375H18.75" stroke="#303030" stroke-width="1.875" stroke-linecap="round"/>
<path d="M23.4375 32.8125H18.75" stroke="#303030" stroke-width="1.875" stroke-linecap="round"/>
<path d="M24.375 31.875H19.6875" stroke="#303030" stroke-width="1.875" stroke-linecap="round"/>
<defs>
<filter id="filter0_i_3495_30848" x="1.875" y="10" width="55.9375" height="40.9317" filterUnits="userSpaceOnUse" color-interpolation-filters="sRGB">
<feFlood flood-opacity="0" result="BackgroundImageFix"/>
<feBlend mode="normal" in="SourceGraphic" in2="BackgroundImageFix" result="shape"/>
<feColorMatrix in="SourceAlpha" type="matrix" values="0 0 0 0 0 0 0 0 0 0 0 0 0 0 0 0 0 0 127 0" result="hardAlpha"/>
<feOffset/>
<feGaussianBlur stdDeviation="9.375"/>
<feComposite in2="hardAlpha" operator="arithmetic" k2="-1" k3="1"/>
<feColorMatrix type="matrix" values="0 0 0 0 1 0 0 0 0 1 0 0 0 0 1 0 0 0 0.8 0"/>
<feBlend mode="normal" in2="shape" result="effect1_innerShadow_3495_30848"/>
</filter>
<filter id="filter1_g_3495_30848" x="-26.2422" y="-47.5536" width="131.876" height="105.182" filterUnits="userSpaceOnUse" color-interpolation-filters="sRGB">
<feFlood flood-opacity="0" result="BackgroundImageFix"/>
<feBlend mode="normal" in="SourceGraphic" in2="BackgroundImageFix" result="shape"/>
<feTurbulence type="fractalNoise" baseFrequency="2.6666669845581055 2.6666669845581055" numOctaves="3" seed="2506" />
<feDisplacementMap in="shape" scale="45" xChannelSelector="R" yChannelSelector="G" result="displacedImage" width="100%" height="100%" />
<feMerge result="effect1_texture_3495_30848">
<feMergeNode in="displacedImage"/>
</feMerge>
</filter>
<filter id="filter2_g_3495_30848" x="-36.5625" y="20.6248" width="131.25" height="65.625" filterUnits="userSpaceOnUse" color-interpolation-filters="sRGB">
<feFlood flood-opacity="0" result="BackgroundImageFix"/>
<feBlend mode="normal" in="SourceGraphic" in2="BackgroundImageFix" result="shape"/>
<feTurbulence type="fractalNoise" baseFrequency="2.6666669845581055 2.6666669845581055" numOctaves="3" seed="2506" />
<feDisplacementMap in="shape" scale="45" xChannelSelector="R" yChannelSelector="G" result="displacedImage" width="100%" height="100%" />
<feMerge result="effect1_texture_3495_30848">
<feMergeNode in="displacedImage"/>
</feMerge>
</filter>
<radialGradient id="paint0_radial_3495_30848" cx="0" cy="0" r="1" gradientUnits="userSpaceOnUse" gradientTransform="translate(15.9378 16.875) rotate(36.2538) scale(52.3155 71.4946)">
<stop stop-color="#C1C1B3"/>
<stop offset="1" stop-color="#5D5B4E"/>
</radialGradient>
</defs>
</svg>
