<svg width="60" height="60" viewBox="0 0 60 60" fill="none" xmlns="http://www.w3.org/2000/svg">
<g filter="url(#filter0_i_1816_20712)">
<path d="M55.3368 28.7285C57.4174 36.4933 69.2162 51.2857 30.2962 51.2857C-8.62374 51.2857 3.26722 36.1494 5.25569 28.7285C7.42684 20.6257 15.2306 9.8457 30.2962 9.8457C45.3619 9.8457 53.2562 20.9636 55.3368 28.7285Z" fill="#F7E8DE"/>
</g>
<path d="M41.4588 32.1126C42.0452 32.182 42.61 31.7681 42.7205 31.1881C42.8309 30.608 42.4451 30.0816 41.8588 30.0122L36.3819 29.3639C35.7956 29.2945 35.2307 29.7085 35.1203 30.2885C35.0098 30.8685 35.3956 31.395 35.982 31.4644L41.4588 32.1126Z" fill="#303030"/>
<path d="M18.383 32.1126C17.7966 32.182 17.2318 31.7681 17.1213 31.1881C17.0109 30.608 17.3967 30.0816 17.983 30.0122L23.4599 29.3639C24.0462 29.2945 24.6111 29.7085 24.7215 30.2885C24.832 30.8685 24.4462 31.395 23.8598 31.4644L18.383 32.1126Z" fill="#303030"/>
<path d="M40.9209 11.2374C27.4209 5.7374 14.9207 11.7376 13.4208 14.7376C11.9209 17.7377 13.9209 19.2378 17.9209 18.2376C21.9209 17.2375 26.4209 14.7374 28.9209 18.2376C31.4209 21.7379 33.9209 22.2374 40.9209 22.2374C47.9209 22.2374 48.9209 27.2378 51.9209 28.2376C54.9209 29.2373 55.2542 25.7374 54.4209 24.2374C53.2542 21.4041 49.8729 14.8845 40.9209 11.2374Z" fill="url(#paint0_linear_1816_20712)"/>
<defs>
<filter id="filter0_i_1816_20712" x="2" y="9.8457" width="56.6323" height="41.4395" filterUnits="userSpaceOnUse" color-interpolation-filters="sRGB">
<feFlood flood-opacity="0" result="BackgroundImageFix"/>
<feBlend mode="normal" in="SourceGraphic" in2="BackgroundImageFix" result="shape"/>
<feColorMatrix in="SourceAlpha" type="matrix" values="0 0 0 0 0 0 0 0 0 0 0 0 0 0 0 0 0 0 127 0" result="hardAlpha"/>
<feOffset/>
<feGaussianBlur stdDeviation="5"/>
<feComposite in2="hardAlpha" operator="arithmetic" k2="-1" k3="1"/>
<feColorMatrix type="matrix" values="0 0 0 0 1 0 0 0 0 1 0 0 0 0 1 0 0 0 0.8 0"/>
<feBlend mode="normal" in2="shape" result="effect1_innerShadow_1816_20712"/>
</filter>
<linearGradient id="paint0_linear_1816_20712" x1="33.8691" y1="28.4144" x2="33.8691" y2="9" gradientUnits="userSpaceOnUse">
<stop stop-color="#4F3A2C"/>
<stop offset="1" stop-color="#77523A"/>
</linearGradient>
</defs>
</svg>
