<svg width="60" height="60" viewBox="0 0 60 60" fill="none" xmlns="http://www.w3.org/2000/svg">
<g filter="url(#filter0_i_1816_20688)">
<path d="M55.3368 27.8828C57.4174 35.6476 69.2162 50.44 30.2962 50.44C-8.62374 50.44 3.26722 35.3037 5.25569 27.8828C7.42685 19.78 15.2306 9 30.2962 9C45.3619 9 53.2562 20.1179 55.3368 27.8828Z" fill="#FFF6E0"/>
</g>
<path d="M22.4399 25.9398C22.4399 24.78 23.3801 23.8398 24.5399 23.8398C25.6997 23.8398 26.6399 24.78 26.6399 25.9398V28.1798C26.6399 29.3396 25.6997 30.2798 24.5399 30.2798C23.3801 30.2798 22.4399 29.3396 22.4399 28.1798V25.9398Z" fill="#303030"/>
<path d="M34.48 25.9398C34.48 24.78 35.4202 23.8398 36.58 23.8398C37.7398 23.8398 38.68 24.78 38.68 25.9398V28.1798C38.68 29.3396 37.7398 30.2798 36.58 30.2798C35.4202 30.2798 34.48 29.3396 34.48 28.1798V25.9398Z" fill="#303030"/>
<defs>
<filter id="filter0_i_1816_20688" x="2" y="9" width="56.6323" height="41.4395" filterUnits="userSpaceOnUse" color-interpolation-filters="sRGB">
<feFlood flood-opacity="0" result="BackgroundImageFix"/>
<feBlend mode="normal" in="SourceGraphic" in2="BackgroundImageFix" result="shape"/>
<feColorMatrix in="SourceAlpha" type="matrix" values="0 0 0 0 0 0 0 0 0 0 0 0 0 0 0 0 0 0 127 0" result="hardAlpha"/>
<feOffset/>
<feGaussianBlur stdDeviation="5"/>
<feComposite in2="hardAlpha" operator="arithmetic" k2="-1" k3="1"/>
<feColorMatrix type="matrix" values="0 0 0 0 1 0 0 0 0 1 0 0 0 0 1 0 0 0 0.8 0"/>
<feBlend mode="normal" in2="shape" result="effect1_innerShadow_1816_20688"/>
</filter>
</defs>
</svg>
