<svg width="52" height="52" viewBox="0 0 52 52" fill="none" xmlns="http://www.w3.org/2000/svg">
<path d="M7.94436 47.6673C7.94436 47.6673 4.33325 47.6673 4.33325 44.0562C4.33325 40.4451 7.94436 29.6118 25.9999 29.6118C44.0555 29.6118 47.6666 40.4451 47.6666 44.0562C47.6666 47.6673 44.0555 47.6673 44.0555 47.6673H7.94436ZM25.9999 26.0007C28.8731 26.0007 31.6286 24.8593 33.6602 22.8276C35.6919 20.796 36.8333 18.0405 36.8333 15.1673C36.8333 12.2941 35.6919 9.53864 33.6602 7.50699C31.6286 5.47535 28.8731 4.33398 25.9999 4.33398C23.1267 4.33398 20.3712 5.47535 18.3396 7.50699C16.308 9.53864 15.1666 12.2941 15.1666 15.1673C15.1666 18.0405 16.308 20.796 18.3396 22.8276C20.3712 24.8593 23.1267 26.0007 25.9999 26.0007Z" fill="#E1E4E8"/>
</svg>
