<svg width="60" height="60" viewBox="0 0 60 60" fill="none" xmlns="http://www.w3.org/2000/svg">
<g filter="url(#filter0_i_1816_20681)">
<path d="M55.3368 29.4921C57.4174 37.257 69.2162 52.0494 30.2962 52.0494C-8.62374 52.0494 3.26722 36.9131 5.25569 29.4921C7.42684 21.3894 15.2306 10.6094 30.2962 10.6094C45.3619 10.6094 53.2562 21.7272 55.3368 29.4921Z" fill="#F6EBFF"/>
</g>
<path d="M23.6077 33.3793C24.2259 33.71 24.9088 33.2336 24.6596 32.5784C24.6457 32.5418 24.6313 32.5054 24.6163 32.4693C24.4153 31.984 24.1207 31.543 23.7492 31.1716C23.3778 30.8001 22.9368 30.5055 22.4515 30.3045C21.9662 30.1035 21.4461 30 20.9208 30C20.3955 30 19.8754 30.1035 19.3901 30.3045C18.9048 30.5055 18.4638 30.8001 18.0924 31.1716C17.7209 31.543 17.4263 31.984 17.2253 32.4693C16.963 33.1024 17.6843 33.5507 18.3028 33.2556C19.1189 32.866 20.1415 32.4693 20.9208 32.4693C21.9726 32.4693 22.73 32.9097 23.6077 33.3793Z" fill="#303030"/>
<path d="M41.6077 33.3793C42.2259 33.71 42.9088 33.2336 42.6596 32.5784C42.6457 32.5418 42.6313 32.5054 42.6163 32.4693C42.4153 31.984 42.1207 31.543 41.7492 31.1716C41.3778 30.8001 40.9368 30.5055 40.4515 30.3045C39.9662 30.1035 39.4461 30 38.9208 30C38.3955 30 37.8754 30.1035 37.3901 30.3045C36.9048 30.5055 36.4638 30.8001 36.0924 31.1716C35.7209 31.543 35.4263 31.984 35.2253 32.4693C34.963 33.1024 35.6843 33.5507 36.3028 33.2556C37.1189 32.866 38.1415 32.4693 38.9208 32.4693C39.9726 32.4693 40.73 32.9097 41.6077 33.3793Z" fill="#303030"/>
<path d="M33.9209 12C33.9209 14.2091 32.13 16 29.9209 16C27.7118 16 25.9209 14.2091 25.9209 12C25.9209 9.79086 27.7118 8 29.9209 8C32.13 8 33.9209 9.79086 33.9209 12Z" fill="url(#paint0_linear_1816_20681)"/>
<path d="M43.9209 14C43.9209 16.2091 42.13 18 39.9209 18C37.7118 18 35.9209 16.2091 35.9209 14C35.9209 11.7909 37.7118 10 39.9209 10C42.13 10 43.9209 11.7909 43.9209 14Z" fill="url(#paint1_linear_1816_20681)"/>
<path d="M23.9209 14C23.9209 16.2091 22.13 18 19.9209 18C17.7118 18 15.9209 16.2091 15.9209 14C15.9209 11.7909 17.7118 10 19.9209 10C22.13 10 23.9209 11.7909 23.9209 14Z" fill="url(#paint2_linear_1816_20681)"/>
<defs>
<filter id="filter0_i_1816_20681" x="2" y="10.6094" width="56.6323" height="41.4395" filterUnits="userSpaceOnUse" color-interpolation-filters="sRGB">
<feFlood flood-opacity="0" result="BackgroundImageFix"/>
<feBlend mode="normal" in="SourceGraphic" in2="BackgroundImageFix" result="shape"/>
<feColorMatrix in="SourceAlpha" type="matrix" values="0 0 0 0 0 0 0 0 0 0 0 0 0 0 0 0 0 0 127 0" result="hardAlpha"/>
<feOffset/>
<feGaussianBlur stdDeviation="5"/>
<feComposite in2="hardAlpha" operator="arithmetic" k2="-1" k3="1"/>
<feColorMatrix type="matrix" values="0 0 0 0 1 0 0 0 0 1 0 0 0 0 1 0 0 0 0.8 0"/>
<feBlend mode="normal" in2="shape" result="effect1_innerShadow_1816_20681"/>
</filter>
<linearGradient id="paint0_linear_1816_20681" x1="29.9209" y1="8" x2="29.9209" y2="16" gradientUnits="userSpaceOnUse">
<stop stop-color="#A154F3"/>
<stop offset="1" stop-color="#9027FF"/>
</linearGradient>
<linearGradient id="paint1_linear_1816_20681" x1="39.9209" y1="10" x2="39.9209" y2="18" gradientUnits="userSpaceOnUse">
<stop stop-color="#A154F3"/>
<stop offset="1" stop-color="#9027FF"/>
</linearGradient>
<linearGradient id="paint2_linear_1816_20681" x1="19.9209" y1="10" x2="19.9209" y2="18" gradientUnits="userSpaceOnUse">
<stop stop-color="#A154F3"/>
<stop offset="1" stop-color="#9027FF"/>
</linearGradient>
</defs>
</svg>
