<svg width="60" height="60" viewBox="0 0 60 60" fill="none" xmlns="http://www.w3.org/2000/svg">
<g filter="url(#filter0_i_1816_20620)">
<path d="M55.3368 28.4921C57.4174 36.257 69.2162 51.0494 30.2962 51.0494C-8.62374 51.0494 3.26722 35.9131 5.25569 28.4921C7.42685 20.3894 15.2306 9.60938 30.2962 9.60938C45.3619 9.60938 53.2562 20.7272 55.3368 28.4921Z" fill="#DBF9D4"/>
</g>
<path d="M19 29.4444C19 28.6467 19.6467 28 20.4444 28H24.363C25.1607 28 25.8074 28.6467 25.8074 29.4444C25.8074 30.2421 25.1607 30.8887 24.363 30.8887H20.4444C19.6467 30.8887 19 30.2421 19 29.4444Z" fill="#303030"/>
<path d="M34.3223 29.4444C34.3223 28.6467 34.9689 28 35.7666 28H39.6853C40.483 28 41.1296 28.6467 41.1296 29.4444C41.1296 30.2421 40.483 30.8887 39.6853 30.8887H35.7666C34.9689 30.8887 34.3223 30.2421 34.3223 29.4444Z" fill="#303030"/>
<path d="M47.7207 15.184C47.7207 17.37 46.6355 20 43.2207 20C39.8059 20 38.7207 17.37 38.7207 15.184C38.7207 12.9981 41.893 8 43.3854 8C44.8778 8 47.7207 12.9981 47.7207 15.184Z" fill="#25935E"/>
<path d="M43.7207 20.5C43.7207 20.7761 43.4968 21 43.2207 21C42.9446 21 42.7207 20.7761 42.7207 20.5L42.7207 13.5C42.7207 13.2239 42.9446 13 43.2207 13C43.4968 13 43.7207 13.2239 43.7207 13.5L43.7207 20.5Z" fill="#51D48C"/>
<defs>
<filter id="filter0_i_1816_20620" x="2" y="9.60938" width="56.6323" height="41.4395" filterUnits="userSpaceOnUse" color-interpolation-filters="sRGB">
<feFlood flood-opacity="0" result="BackgroundImageFix"/>
<feBlend mode="normal" in="SourceGraphic" in2="BackgroundImageFix" result="shape"/>
<feColorMatrix in="SourceAlpha" type="matrix" values="0 0 0 0 0 0 0 0 0 0 0 0 0 0 0 0 0 0 127 0" result="hardAlpha"/>
<feOffset/>
<feGaussianBlur stdDeviation="5"/>
<feComposite in2="hardAlpha" operator="arithmetic" k2="-1" k3="1"/>
<feColorMatrix type="matrix" values="0 0 0 0 1 0 0 0 0 1 0 0 0 0 1 0 0 0 0.8 0"/>
<feBlend mode="normal" in2="shape" result="effect1_innerShadow_1816_20620"/>
</filter>
</defs>
</svg>
