<svg width="60" height="60" viewBox="0 0 60 60" fill="none" xmlns="http://www.w3.org/2000/svg">
<g filter="url(#filter0_i_1816_20738)">
<path d="M55.3368 27.8828C57.4174 35.6476 69.2162 50.44 30.2962 50.44C-8.62374 50.44 3.26722 35.3037 5.25569 27.8828C7.42684 19.78 15.2306 9 30.2962 9C45.3619 9 53.2562 20.1179 55.3368 27.8828Z" fill="white"/>
</g>
<path d="M24.9209 30.3906C24.9209 32.0475 23.5778 33.3906 21.9209 33.3906C20.264 33.3906 18.9209 32.0475 18.9209 30.3906C18.9209 28.7338 20.264 27.3906 21.9209 27.3906C23.5778 27.3906 24.9209 28.7338 24.9209 30.3906Z" fill="#303030"/>
<path d="M41.9209 30.3906C41.9209 32.0475 40.5778 33.3906 38.9209 33.3906C37.264 33.3906 35.9209 32.0475 35.9209 30.3906C35.9209 28.7338 37.264 27.3906 38.9209 27.3906C40.5778 27.3906 41.9209 28.7338 41.9209 30.3906Z" fill="#303030"/>
<defs>
<filter id="filter0_i_1816_20738" x="2" y="9" width="56.6321" height="41.4395" filterUnits="userSpaceOnUse" color-interpolation-filters="sRGB">
<feFlood flood-opacity="0" result="BackgroundImageFix"/>
<feBlend mode="normal" in="SourceGraphic" in2="BackgroundImageFix" result="shape"/>
<feColorMatrix in="SourceAlpha" type="matrix" values="0 0 0 0 0 0 0 0 0 0 0 0 0 0 0 0 0 0 127 0" result="hardAlpha"/>
<feOffset/>
<feGaussianBlur stdDeviation="5"/>
<feComposite in2="hardAlpha" operator="arithmetic" k2="-1" k3="1"/>
<feColorMatrix type="matrix" values="0 0 0 0 1 0 0 0 0 1 0 0 0 0 1 0 0 0 0.8 0"/>
<feBlend mode="normal" in2="shape" result="effect1_innerShadow_1816_20738"/>
</filter>
</defs>
</svg>
