<svg width="60" height="60" viewBox="0 0 60 60" fill="none" xmlns="http://www.w3.org/2000/svg">
<g filter="url(#filter0_i_3183_30401)">
<path d="M55.3368 27.8828C57.4174 35.6476 69.2162 50.44 30.2962 50.44C-8.62374 50.44 3.26722 35.3037 5.25569 27.8828C7.42685 19.78 15.2306 9 30.2962 9C45.3619 9 53.2562 20.1179 55.3368 27.8828Z" fill="#EEFFF4"/>
</g>
<path d="M43 28L37 30.5L42.5 32" stroke="#753823" stroke-width="1.5" stroke-linecap="round" stroke-linejoin="round"/>
<path d="M17 28L23 30.5L17.5 32" stroke="#753823" stroke-width="1.5" stroke-linecap="round" stroke-linejoin="round"/>
<ellipse cx="15.1454" cy="34.2044" rx="1.13376" ry="1.01175" transform="rotate(111.228 15.1454 34.2044)" fill="#99563F"/>
<ellipse cx="46.3533" cy="34.2044" rx="1.13376" ry="1.01175" transform="rotate(75 46.3533 34.2044)" fill="#99563F"/>
<ellipse cx="30.5" cy="32" rx="1.5" ry="1" fill="#99563F"/>
<path d="M48.0022 21.6684C47.6257 22.1141 46.9492 22.1442 46.5347 21.7336L39.2795 14.5484C38.9088 14.1814 38.8826 13.591 39.2193 13.1926L42.9606 8.7639C43.317 8.34201 43.948 8.28893 44.3698 8.64534L52.1456 15.2143C52.5675 15.5707 52.6206 16.2017 52.2641 16.6236L48.0022 21.6684Z" fill="#99563F"/>
<path d="M35.119 10.1655C36.7816 10.335 38.6979 11.3643 38.4331 13.9616C38.1683 16.5589 36.0838 17.1803 34.4212 17.0109C32.7586 16.8414 29.203 14.041 29.3187 12.9059C29.4344 11.7708 33.4564 9.996 35.119 10.1655Z" fill="url(#paint0_linear_3183_30401)"/>
<path d="M37.5436 18.0654C36.6378 17.0391 36.0575 15.3546 37.6608 13.9396C39.2641 12.5246 40.8634 13.3097 41.7692 14.3361C42.675 15.3624 43.2566 19.0236 42.5559 19.642C41.8553 20.2604 38.4494 19.0917 37.5436 18.0654Z" fill="url(#paint1_linear_3183_30401)"/>
<path d="M41.5355 11.9542C40.9944 13.126 39.7615 14.2673 37.9309 13.4219C36.1003 12.5766 36.1696 10.898 36.7108 9.72613C37.2519 8.55429 40.1899 6.66023 40.9899 7.02968C41.79 7.39913 42.0767 10.7824 41.5355 11.9542Z" fill="url(#paint2_linear_3183_30401)"/>
<path d="M33.042 13.3524L37.1652 13.687M37.1652 13.687L39.6709 9.91589M37.1652 13.687L40.2942 16.9594" stroke="#289D74" stroke-width="0.5" stroke-linejoin="round"/>
<defs>
<filter id="filter0_i_3183_30401" x="2" y="9" width="56.6318" height="41.44" filterUnits="userSpaceOnUse" color-interpolation-filters="sRGB">
<feFlood flood-opacity="0" result="BackgroundImageFix"/>
<feBlend mode="normal" in="SourceGraphic" in2="BackgroundImageFix" result="shape"/>
<feColorMatrix in="SourceAlpha" type="matrix" values="0 0 0 0 0 0 0 0 0 0 0 0 0 0 0 0 0 0 127 0" result="hardAlpha"/>
<feOffset/>
<feGaussianBlur stdDeviation="5"/>
<feComposite in2="hardAlpha" operator="arithmetic" k2="-1" k3="1"/>
<feColorMatrix type="matrix" values="0 0 0 0 1 0 0 0 0 1 0 0 0 0 1 0 0 0 0.8 0"/>
<feBlend mode="normal" in2="shape" result="effect1_innerShadow_3183_30401"/>
</filter>
<linearGradient id="paint0_linear_3183_30401" x1="29.3524" y1="12.575" x2="38.1787" y2="11.8583" gradientUnits="userSpaceOnUse">
<stop stop-color="#3CC890"/>
<stop offset="1" stop-color="#2CB283"/>
</linearGradient>
<linearGradient id="paint1_linear_3183_30401" x1="42.3517" y1="19.8223" x2="36.6444" y2="15.3461" gradientUnits="userSpaceOnUse">
<stop stop-color="#3CC890"/>
<stop offset="1" stop-color="#2CB283"/>
</linearGradient>
<linearGradient id="paint2_linear_3183_30401" x1="41.2231" y1="7.13737" x2="39.531" y2="13.7641" gradientUnits="userSpaceOnUse">
<stop stop-color="#3CC890"/>
<stop offset="1" stop-color="#2CB283"/>
</linearGradient>
</defs>
</svg>
