<svg width="60" height="60" viewBox="0 0 60 60" fill="none" xmlns="http://www.w3.org/2000/svg">
<g filter="url(#filter0_i_1816_20649)">
<path d="M55.3368 29.6542C57.4174 37.4191 69.2162 52.2115 30.2962 52.2115C-8.62374 52.2115 3.26722 37.0752 5.25569 29.6542C7.42685 21.5515 15.2306 10.7715 30.2962 10.7715C45.3619 10.7715 53.2562 21.8894 55.3368 29.6542Z" fill="#FFF0EB"/>
</g>
<path d="M40.9209 32.1641C40.9209 33.8209 39.5778 35.1641 37.9209 35.1641C36.264 35.1641 34.9209 33.8209 34.9209 32.1641C34.9209 30.5072 36.264 29.1641 37.9209 29.1641C38.4046 29.1641 39.2507 29.1641 39.9213 29.1641C40.4736 29.1641 40.9209 29.6115 40.9209 30.1638C40.9209 30.8601 40.9209 31.7375 40.9209 32.1641Z" fill="#303030"/>
<path d="M18.9209 32.1641C18.9209 33.8209 20.264 35.1641 21.9209 35.1641C23.5778 35.1641 24.9209 33.8209 24.9209 32.1641C24.9209 30.5072 23.5778 29.1641 21.9209 29.1641C21.4372 29.1641 20.5911 29.1641 19.9205 29.1641C19.3682 29.1641 18.9209 29.6115 18.9209 30.1638C18.9209 30.8601 18.9209 31.7375 18.9209 32.1641Z" fill="#303030"/>
<path d="M53.3126 18.4081C54.2262 19.0289 54.475 20.2896 53.6968 21.0735C52.2164 22.5646 50.326 23.5978 48.2591 24.0169C45.5407 24.568 42.7394 24.012 40.4716 22.4712C38.2038 20.9303 36.6551 18.5308 36.1663 15.8005C35.7947 13.7244 36.0589 11.5864 36.9 9.66093C37.3422 8.64871 38.6058 8.41562 39.5195 9.03639L46.416 13.7222L53.3126 18.4081Z" fill="#FFF6E0"/>
<path d="M51.4267 18.722C51.8619 19.0621 51.9428 19.6953 51.5554 20.0889C50.9218 20.7325 50.1936 21.2724 49.4008 21.6834C48.6535 22.0709 47.8631 22.3365 47.0607 22.4721C46.4804 22.5701 46.0063 22.069 46.0481 21.482L46.3842 16.7595C46.441 15.9609 47.3665 15.5496 47.9973 16.0425L51.4267 18.722Z" fill="#FF7E52"/>
<path d="M38.4763 16.5935C37.9464 16.7761 37.3633 16.4876 37.2624 15.9362C37.0928 15.0091 37.0891 14.0526 37.2545 13.1117C37.4219 12.1587 37.7589 11.2432 38.2464 10.4085C38.5248 9.93184 39.1579 9.84892 39.5974 10.1829L43.5629 13.1955C44.1993 13.679 44.0394 14.6769 43.2837 14.9372L38.4763 16.5935Z" fill="#FF7E52"/>
<path d="M44.8983 21.1962C44.8296 21.7881 44.259 22.1928 43.7002 21.9858C42.8368 21.666 42.0157 21.2082 41.2749 20.6306C40.5339 20.0528 39.8894 19.3679 39.3685 18.6082C39.0316 18.1169 39.2846 17.4649 39.8418 17.2538L44.0716 15.651C44.7725 15.3855 45.5056 15.9568 45.4193 16.7013L44.8983 21.1962Z" fill="#FF7E52"/>
<defs>
<filter id="filter0_i_1816_20649" x="2" y="10.7715" width="56.6323" height="41.4395" filterUnits="userSpaceOnUse" color-interpolation-filters="sRGB">
<feFlood flood-opacity="0" result="BackgroundImageFix"/>
<feBlend mode="normal" in="SourceGraphic" in2="BackgroundImageFix" result="shape"/>
<feColorMatrix in="SourceAlpha" type="matrix" values="0 0 0 0 0 0 0 0 0 0 0 0 0 0 0 0 0 0 127 0" result="hardAlpha"/>
<feOffset/>
<feGaussianBlur stdDeviation="5"/>
<feComposite in2="hardAlpha" operator="arithmetic" k2="-1" k3="1"/>
<feColorMatrix type="matrix" values="0 0 0 0 1 0 0 0 0 1 0 0 0 0 1 0 0 0 0.8 0"/>
<feBlend mode="normal" in2="shape" result="effect1_innerShadow_1816_20649"/>
</filter>
</defs>
</svg>
