<svg width="60" height="60" viewBox="0 0 60 60" fill="none" xmlns="http://www.w3.org/2000/svg">
<g filter="url(#filter0_i_3183_31287)">
<path d="M55.3368 27.8828C57.4174 35.6476 69.2162 50.44 30.2962 50.44C-8.62374 50.44 3.26722 35.3037 5.25569 27.8828C7.42685 19.78 15.2306 9 30.2962 9C45.3619 9 53.2562 20.1179 55.3368 27.8828Z" fill="#FFF6E0"/>
</g>
<rect x="18" y="28" width="6" height="5" rx="2" fill="#303030"/>
<rect x="25" y="28" width="2" height="8" rx="1" transform="rotate(90 25 28)" fill="#303030"/>
<rect x="36" y="28" width="6" height="5" rx="2" fill="#303030"/>
<rect x="43" y="28" width="2" height="8" rx="1" transform="rotate(90 43 28)" fill="#303030"/>
<path d="M50.6507 16.9085C48.6487 19.3578 44.9238 19.1311 43.4689 17.3332C42.0139 15.5353 42.5694 11.8455 45.382 10.3978C48.1946 8.95012 51.5507 8.72106 52.5639 9.97311C53.5771 11.2252 52.6528 14.4592 50.6507 16.9085Z" fill="url(#paint0_linear_3183_31287)"/>
<path d="M42.2571 18.3153C44.0186 20.492 46.5413 21.3705 49.3877 19.0671C51.0878 17.6913 53.1572 15.6059 53.7538 13.7778C53.9423 13.2003 53.2929 12.9129 52.8041 13.2738C51.9639 13.8942 50.6882 14.7485 49.1692 15.4812C46.868 16.591 44.865 16.797 44.2615 16.8349C44.1644 16.841 44.0924 16.7565 44.1152 16.662C44.2494 16.1054 44.7802 14.3264 46.4705 12.1463C47.58 10.7152 48.6553 9.66861 49.4082 9.00963C49.8583 8.61569 49.7426 7.91053 49.1458 7.94997C47.2427 8.07571 44.7958 9.73875 43.009 11.1848C40.1626 13.4882 40.4957 16.1386 42.2571 18.3153Z" fill="url(#paint1_linear_3183_31287)"/>
<path d="M10.1022 15.8756C12.1043 18.3249 15.8292 18.0982 17.2841 16.3003C18.739 14.5024 18.1835 10.8127 15.3709 9.36495C12.5583 7.91725 9.20226 7.6882 8.18905 8.94025C7.17584 10.1923 8.10017 13.4263 10.1022 15.8756Z" fill="url(#paint2_linear_3183_31287)"/>
<path d="M18.4958 17.2824C16.7344 19.4591 14.2116 20.3377 11.3653 18.0342C9.66518 16.6585 7.59572 14.573 6.99908 12.7449C6.8106 12.1674 7.46006 11.8801 7.94879 12.2409C8.78908 12.8613 10.0647 13.7156 11.5838 14.4483C13.8849 15.5582 15.888 15.7642 16.4915 15.802C16.5886 15.8081 16.6605 15.7237 16.6377 15.6291C16.5035 15.0725 15.9727 13.2936 14.2825 11.1135C13.1729 9.68236 12.0976 8.63574 11.3447 7.97676C10.8946 7.58282 11.0103 6.87767 11.6071 6.9171C13.5103 7.04285 15.9571 8.70588 17.744 10.1519C20.5904 12.4553 20.2572 15.1058 18.4958 17.2824Z" fill="url(#paint3_linear_3183_31287)"/>
<defs>
<filter id="filter0_i_3183_31287" x="2" y="9" width="56.6318" height="41.44" filterUnits="userSpaceOnUse" color-interpolation-filters="sRGB">
<feFlood flood-opacity="0" result="BackgroundImageFix"/>
<feBlend mode="normal" in="SourceGraphic" in2="BackgroundImageFix" result="shape"/>
<feColorMatrix in="SourceAlpha" type="matrix" values="0 0 0 0 0 0 0 0 0 0 0 0 0 0 0 0 0 0 127 0" result="hardAlpha"/>
<feOffset/>
<feGaussianBlur stdDeviation="5"/>
<feComposite in2="hardAlpha" operator="arithmetic" k2="-1" k3="1"/>
<feColorMatrix type="matrix" values="0 0 0 0 1 0 0 0 0 1 0 0 0 0 1 0 0 0 0.8 0"/>
<feBlend mode="normal" in2="shape" result="effect1_innerShadow_3183_31287"/>
</filter>
<linearGradient id="paint0_linear_3183_31287" x1="52.5637" y1="9.9729" x2="43.4687" y2="17.333" gradientUnits="userSpaceOnUse">
<stop stop-color="#72BF60"/>
<stop offset="1" stop-color="#538C46"/>
</linearGradient>
<linearGradient id="paint1_linear_3183_31287" x1="52.5648" y1="9.97389" x2="42.2571" y2="18.3153" gradientUnits="userSpaceOnUse">
<stop stop-color="#ECDBB2"/>
<stop offset="1" stop-color="#DEC790"/>
</linearGradient>
<linearGradient id="paint2_linear_3183_31287" x1="8.18923" y1="8.94003" x2="17.2842" y2="16.3001" gradientUnits="userSpaceOnUse">
<stop stop-color="#72BF60"/>
<stop offset="1" stop-color="#538C46"/>
</linearGradient>
<linearGradient id="paint3_linear_3183_31287" x1="8.1881" y1="8.94102" x2="18.4958" y2="17.2824" gradientUnits="userSpaceOnUse">
<stop stop-color="#ECDBB2"/>
<stop offset="1" stop-color="#DEC790"/>
</linearGradient>
</defs>
</svg>
