<svg width="60" height="60" viewBox="0 0 60 60" fill="none" xmlns="http://www.w3.org/2000/svg">
<g filter="url(#filter0_i_1816_20720)">
<path d="M55.3368 30.4921C57.4174 38.257 69.2162 53.0494 30.2962 53.0494C-8.62374 53.0494 3.26722 37.9131 5.25569 30.4921C7.42685 22.3894 15.2306 11.6094 30.2962 11.6094C45.3619 11.6094 53.2562 22.7272 55.3368 30.4921Z" fill="#FEEBEC"/>
</g>
<path d="M22.4395 28.5473C22.4395 27.3875 23.3797 26.4473 24.5395 26.4473C25.6993 26.4473 26.6395 27.3875 26.6395 28.5473V30.7873C26.6395 31.9471 25.6993 32.8873 24.5395 32.8873C23.3797 32.8873 22.4395 31.9471 22.4395 30.7873V28.5473Z" fill="#303030"/>
<path d="M34.4795 28.5473C34.4795 27.3875 35.4197 26.4473 36.5795 26.4473C37.7393 26.4473 38.6795 27.3875 38.6795 28.5473V30.7873C38.6795 31.9471 37.7393 32.8873 36.5795 32.8873C35.4197 32.8873 34.4795 31.9471 34.4795 30.7873V28.5473Z" fill="#303030"/>
<path d="M49.6101 18.706C48.0602 22.003 44.1437 23.4253 40.8623 21.8828C37.5809 20.3402 36.1773 16.417 37.7272 13.1199C39.2771 9.8229 43.9517 7.3527 47.2331 8.89524C50.5145 10.4378 51.16 15.4089 49.6101 18.706Z" fill="#FF4857"/>
<path d="M23.9825 27.1668C24.2125 27.3194 24.2754 27.6297 24.1228 27.8598C23.9702 28.0899 23.6599 28.1526 23.4297 28.0001L22.3376 27.2757C22.1075 27.1231 22.0446 26.8128 22.1973 26.5827C22.3499 26.3526 22.6602 26.2897 22.8903 26.4424L23.9825 27.1668Z" fill="#303030"/>
<path d="M37.9815 27.9873C37.7862 28.1824 37.4696 28.1825 37.2744 27.9873C37.0791 27.7921 37.0792 27.4754 37.2744 27.2802L38.2011 26.3535C38.3963 26.1582 38.7129 26.1582 38.9082 26.3535C39.1034 26.5487 39.1034 26.8653 38.9082 27.0606L37.9815 27.9873Z" fill="#303030"/>
<defs>
<filter id="filter0_i_1816_20720" x="2" y="11.6094" width="56.6323" height="41.4395" filterUnits="userSpaceOnUse" color-interpolation-filters="sRGB">
<feFlood flood-opacity="0" result="BackgroundImageFix"/>
<feBlend mode="normal" in="SourceGraphic" in2="BackgroundImageFix" result="shape"/>
<feColorMatrix in="SourceAlpha" type="matrix" values="0 0 0 0 0 0 0 0 0 0 0 0 0 0 0 0 0 0 127 0" result="hardAlpha"/>
<feOffset/>
<feGaussianBlur stdDeviation="5"/>
<feComposite in2="hardAlpha" operator="arithmetic" k2="-1" k3="1"/>
<feColorMatrix type="matrix" values="0 0 0 0 1 0 0 0 0 1 0 0 0 0 1 0 0 0 0.8 0"/>
<feBlend mode="normal" in2="shape" result="effect1_innerShadow_1816_20720"/>
</filter>
</defs>
</svg>
