<svg width="100" height="100" viewBox="0 0 100 100" fill="none" xmlns="http://www.w3.org/2000/svg">
<path d="M61.2096 59.3334L38.4689 39.8654C36.5139 38.1917 33.5099 38.773 32.3204 41.0553L16.2713 71.8488C13.8361 76.5214 14.9459 82.2562 18.9486 85.6829C22.9512 89.1095 28.7886 89.3221 33.0299 86.1957L60.9816 65.5918C63.0533 64.0648 63.1646 61.0071 61.2096 59.3334Z" fill="url(#paint0_radial_3470_31105)"/>
<mask id="mask0_3470_31105" style="mask-type:alpha" maskUnits="userSpaceOnUse" x="13" y="36" width="53" height="54">
<path d="M65.0325 62.6046L34.6464 36.5914L13.6283 76.5193L28.8213 89.5259L65.0325 62.6046Z" fill="url(#paint1_radial_3470_31105)"/>
</mask>
<g mask="url(#mask0_3470_31105)">
<rect x="25.3232" y="44.4082" width="44" height="6" transform="rotate(40.5665 25.3232 44.4082)" fill="#FFD014"/>
<rect x="15.5684" y="55.8027" width="44" height="6" transform="rotate(40.5665 15.5684 55.8027)" fill="#FFD014"/>
</g>
<path d="M45.9386 16.3327C47.5042 16.8016 50.576 18.6496 50.3384 22.2914C50.0414 26.8436 44.8476 26.8873 43.1772 30.2872C42.1332 32.4121 42.0244 34.3881 43.339 38.2919" stroke="url(#paint2_linear_3470_31105)" stroke-width="5" stroke-linecap="round"/>
<path d="M71.3943 27.2426C70.1793 26.2024 67.404 24.5252 66.0233 26.138C64.2974 28.154 68.5173 30.6021 66.5041 32.9544C64.7785 34.9706 59.8653 32.5113 58.5445 34.874C57.4438 36.843 61.664 39.2914 60.1231 42.0479C58.8019 44.4114 56.6851 44.1509 55.6266 44.021" stroke="url(#paint3_linear_3470_31105)" stroke-width="4.5" stroke-linecap="round"/>
<path d="M88.6682 47.2952C87.1261 45.9437 83.4522 43.6273 81.0929 45.1732C78.1439 47.1056 80.2607 50.6652 76.6844 52.4739C74.1809 53.74 71.5253 49.572 68.4824 50.229C66.048 50.7546 64.2755 53.2748 63.5485 54.5979" stroke="url(#paint4_linear_3470_31105)" stroke-width="5" stroke-linecap="round"/>
<rect x="81.4424" y="22.6797" width="5" height="5" rx="1" transform="rotate(62.6249 81.4424 22.6797)" fill="#99ADF4"/>
<rect x="29.7109" y="6.99023" width="6" height="6" rx="1" transform="rotate(30.152 29.7109 6.99023)" fill="#FF4F14"/>
<rect x="28.0654" y="25.6914" width="5" height="5" rx="1" transform="rotate(51.0816 28.0654 25.6914)" fill="#FF4F14"/>
<rect x="68.9883" y="66.7031" width="6" height="6" rx="1" transform="rotate(42.4123 68.9883 66.7031)" fill="#99ADF4"/>
<rect x="61.4893" y="6.77344" width="6" height="6" rx="1" transform="rotate(22.1813 61.4893 6.77344)" fill="#6ADE81"/>
<rect x="84.3145" y="58.7949" width="6" height="6" rx="1" transform="rotate(90.6609 84.3145 58.7949)" fill="#6ADE81"/>
<defs>
<radialGradient id="paint0_radial_3470_31105" cx="0" cy="0" r="1" gradientUnits="userSpaceOnUse" gradientTransform="translate(34.3939 67.6411) rotate(-49.4335) scale(33.4439 26.4176)">
<stop offset="0.432042" stop-color="#FF4F14"/>
<stop offset="1" stop-color="#FF7E52"/>
</radialGradient>
<radialGradient id="paint1_radial_3470_31105" cx="0" cy="0" r="1" gradientUnits="userSpaceOnUse" gradientTransform="translate(35.5322 66.3104) rotate(-49.4335) scale(30.9796 26.4176)">
<stop offset="0.432042" stop-color="#FF4F14"/>
<stop offset="1" stop-color="#FF7E52"/>
</radialGradient>
<linearGradient id="paint2_linear_3470_31105" x1="44.9034" y1="14.9307" x2="41.4684" y2="38.9185" gradientUnits="userSpaceOnUse">
<stop stop-color="#6ADE81"/>
<stop offset="1" stop-color="#2DB46C"/>
</linearGradient>
<linearGradient id="paint3_linear_3470_31105" x1="71.4967" y1="25.3556" x2="75.5026" y2="38.0748" gradientUnits="userSpaceOnUse">
<stop stop-color="#B5C3F7"/>
<stop offset="0.994992" stop-color="#6D89F0"/>
</linearGradient>
<linearGradient id="paint4_linear_3470_31105" x1="91.0181" y1="47.1672" x2="79.1125" y2="66.634" gradientUnits="userSpaceOnUse">
<stop stop-color="#FFD014"/>
<stop offset="0.994992" stop-color="#EBBB00"/>
</linearGradient>
</defs>
</svg>
