<svg preserveAspectRatio="none" width="100%" height="100%" overflow="visible" style="display: block;" viewBox="0 0 77.5866 64" fill="none" xmlns="http://www.w3.org/2000/svg">
<g id="Group 2147225933">
<path id="Vector" d="M29.6797 63.9854L26.8191 53.0244C26.8191 53.0244 2.76622 52.9223 0.416396 37.6411C-1.93343 22.36 5.11604 -1.15285 35.6199 0.0439547C66.1238 1.24076 81.4926 16.0403 76.7345 28.0083C71.9911 39.9617 64.1243 57.3446 38.7871 54.0461L29.6651 64L29.6797 63.9854Z" fill="var(--fill-0, #FFD014)"/>
<g id="Group">
<path id="Vector_2" d="M36.41 37.8751C36.41 37.8751 35.9429 37.2767 35.1694 31.6867C34.3958 26.0968 33.0385 14.3185 34.1915 11.3995C34.1915 11.3995 34.3667 10.6259 36.1911 10.7719C38.03 10.9178 40.5404 11.1367 40.4237 12.7568C40.3069 14.3769 40.2923 22.1999 39.6647 30.6505C39.5479 32.2851 38.6576 37.087 38.6576 37.087C38.6576 37.087 39.2414 38.3421 36.41 37.8605V37.8751Z" fill="var(--fill-0, white)"/>
<path id="Vector_3" d="M38.7187 40.2683C38.3538 39.8742 37.8429 39.6553 37.3029 39.6407C37.1862 39.6407 36.8651 39.6407 36.5002 39.7282C35.5953 39.9472 34.9239 40.5602 34.6758 41.3775C34.4423 42.1365 34.6174 43.0414 35.1137 43.7711C35.5807 44.4571 36.2959 44.8803 37.0694 44.9241C37.1132 44.9241 37.157 44.9241 37.2008 44.9241C37.697 44.9241 38.1786 44.7344 38.5435 44.4133C38.9522 44.0484 39.1857 43.5376 39.2149 42.9976L39.2587 41.7278C39.2733 41.1878 39.0835 40.6623 38.7187 40.2683Z" fill="var(--fill-0, white)"/>
</g>
</g>
</svg>
