<svg width="128" height="80" viewBox="0 0 128 80" fill="none" xmlns="http://www.w3.org/2000/svg">
<path d="M116.212 12.5356C116.212 20.5942 108.737 24.6075 96.4929 24.1758C84.445 23.751 82.5478 24.1622 78.753 29.9334C78.6883 30.0319 78.5329 29.9996 78.5153 29.8831C77.1711 21.0244 75.7177 15.8823 78.566 9.92933C81.45 3.90138 86.6331 0 97.3892 0C108.145 0 116.212 4.47699 116.212 12.5356Z" fill="#F6F7F9"/>
<path d="M84.4479 16.5264C84.4479 16.4411 84.4565 16.3615 84.4735 16.2875C84.4963 16.2193 84.5361 16.1567 84.593 16.0998C84.6498 16.0487 84.7295 16.006 84.8318 15.9719C84.9342 15.9434 85.065 15.9292 85.2243 15.9292H87.4509V13.9415C87.4509 13.7993 87.4736 13.6827 87.5191 13.5917C87.5646 13.495 87.6215 13.4211 87.6898 13.3699C87.7637 13.313 87.8433 13.276 87.9286 13.259C88.0196 13.2362 88.1106 13.2249 88.2016 13.2249C88.2926 13.2249 88.3808 13.2362 88.4661 13.259C88.5571 13.276 88.6367 13.313 88.705 13.3699C88.7789 13.4211 88.8386 13.495 88.8841 13.5917C88.9296 13.6827 88.9524 13.7993 88.9524 13.9415V15.9292H91.1534C91.3127 15.9292 91.4435 15.9434 91.5458 15.9719C91.6482 16.006 91.7278 16.0487 91.7847 16.0998C91.8416 16.1567 91.8786 16.2193 91.8956 16.2875C91.9184 16.3615 91.9297 16.4411 91.9297 16.5264C91.9297 16.5947 91.9184 16.6629 91.8956 16.7312C91.8786 16.8051 91.8416 16.8677 91.7847 16.9188C91.7278 16.9757 91.6482 17.0212 91.5458 17.0553C91.4435 17.0895 91.3127 17.1065 91.1534 17.1065H85.2243C85.065 17.1065 84.9342 17.0895 84.8318 17.0553C84.7295 17.0212 84.6498 16.9757 84.593 16.9188C84.5361 16.8677 84.4963 16.8051 84.4735 16.7312C84.4565 16.6629 84.4479 16.5947 84.4479 16.5264ZM90.6245 10.0769C90.778 10.0769 90.8975 10.0939 90.9828 10.1281C91.0681 10.1565 91.1335 10.1992 91.179 10.256C91.2245 10.3072 91.2529 10.3726 91.2643 10.4522C91.2757 10.5319 91.2814 10.6229 91.2814 10.7252V12.3291C91.2814 12.6817 91.2672 12.9974 91.2387 13.276C91.216 13.5547 91.1733 13.7936 91.1107 13.9927C91.0596 14.1576 90.9799 14.2884 90.8719 14.3851C90.7638 14.4761 90.6103 14.5216 90.4112 14.5216C90.3145 14.5216 90.2207 14.5074 90.1297 14.4789C90.0387 14.4505 89.959 14.4078 89.8908 14.351C89.8282 14.2941 89.7799 14.223 89.7458 14.1377C89.7116 14.0467 89.7003 13.9415 89.7116 13.822C89.723 13.7197 89.7372 13.623 89.7543 13.532C89.7714 13.441 89.7884 13.3443 89.8055 13.2419C89.8225 13.1395 89.8368 13.023 89.8481 12.8921C89.8595 12.7556 89.8652 12.5936 89.8652 12.4059V11.2542H89.1742C89.0149 11.2542 88.8841 11.2399 88.7818 11.2115C88.6794 11.1774 88.5998 11.1347 88.5429 11.0835C88.486 11.0267 88.4462 10.9641 88.4234 10.8959C88.4064 10.8219 88.3979 10.7423 88.3979 10.657C88.3979 10.5887 88.4064 10.5205 88.4234 10.4522C88.4462 10.3783 88.486 10.3157 88.5429 10.2646C88.5998 10.2077 88.6794 10.1622 88.7818 10.1281C88.8841 10.0939 89.0149 10.0769 89.1742 10.0769H90.6245ZM86.8622 10.0769C87.0158 10.0769 87.1352 10.0939 87.2206 10.1281C87.3059 10.1565 87.3713 10.1992 87.4168 10.256C87.4623 10.3072 87.4907 10.3726 87.5021 10.4522C87.5135 10.5319 87.5191 10.6229 87.5191 10.7252V11.5784C87.5191 11.8513 87.4992 12.1243 87.4594 12.3973C87.4196 12.6646 87.3627 12.9177 87.2888 13.1566C87.2206 13.3955 87.1352 13.6144 87.0329 13.8135C86.9362 14.0126 86.8281 14.1803 86.7087 14.3168C86.6461 14.3908 86.575 14.4448 86.4954 14.4789C86.4215 14.5074 86.3447 14.5244 86.2651 14.5301C86.1854 14.5358 86.1058 14.5301 86.0262 14.5131C85.9523 14.4903 85.884 14.4619 85.8214 14.4277C85.6906 14.3538 85.5968 14.2486 85.5399 14.1121C85.483 13.9699 85.5001 13.8164 85.5911 13.6514C85.7504 13.3614 85.8755 13.0656 85.9665 12.7642C86.0575 12.4571 86.103 12.1158 86.103 11.7404V11.2542H85.4802C85.321 11.2542 85.1901 11.2399 85.0878 11.2115C84.9854 11.1774 84.9058 11.1347 84.8489 11.0835C84.792 11.0267 84.7522 10.9641 84.7295 10.8959C84.7124 10.8219 84.7039 10.7423 84.7039 10.657C84.7039 10.5887 84.7124 10.5205 84.7295 10.4522C84.7522 10.3783 84.792 10.3157 84.8489 10.2646C84.9058 10.2077 84.9854 10.1622 85.0878 10.1281C85.1901 10.0939 85.321 10.0769 85.4802 10.0769H86.8622ZM92.2129 16.5264C92.2129 16.4411 92.2215 16.3615 92.2385 16.2875C92.2613 16.2193 92.3011 16.1567 92.358 16.0998C92.4148 16.0487 92.4945 16.006 92.5968 15.9719C92.6992 15.9434 92.83 15.9292 92.9893 15.9292H98.9184C99.0776 15.9292 99.2085 15.9434 99.3108 15.9719C99.4132 16.006 99.4928 16.0487 99.5497 16.0998C99.6066 16.1567 99.6435 16.2193 99.6606 16.2875C99.6834 16.3615 99.6947 16.4411 99.6947 16.5264C99.6947 16.5947 99.6834 16.6629 99.6606 16.7312C99.6435 16.8051 99.6066 16.8677 99.5497 16.9188C99.4928 16.9757 99.4132 17.0212 99.3108 17.0553C99.2085 17.0895 99.0776 17.1065 98.9184 17.1065H92.9893C92.83 17.1065 92.6992 17.0895 92.5968 17.0553C92.4945 17.0212 92.4148 16.9757 92.358 16.9188C92.3011 16.8677 92.2613 16.8051 92.2385 16.7312C92.2215 16.6629 92.2129 16.5947 92.2129 16.5264ZM93.4926 14.9652C93.3334 14.9652 93.2082 14.9481 93.1172 14.914C93.0262 14.8799 92.9551 14.8344 92.904 14.7775C92.8585 14.715 92.83 14.6467 92.8186 14.5728C92.8073 14.4932 92.8016 14.4107 92.8016 14.3254V12.6106C92.8016 12.4684 92.8186 12.3518 92.8528 12.2608C92.8926 12.1642 92.9438 12.0874 93.0063 12.0305C93.0746 11.9736 93.1485 11.9338 93.2281 11.9111C93.3134 11.8883 93.4016 11.8769 93.4926 11.8769H97.7155V11.1518H93.4499C93.3078 11.1518 93.194 11.1347 93.1087 11.1006C93.0234 11.0608 92.958 11.0125 92.9125 10.9556C92.867 10.893 92.8357 10.8305 92.8186 10.7679C92.8073 10.6996 92.8016 10.6342 92.8016 10.5717C92.8016 10.4977 92.8073 10.4266 92.8186 10.3584C92.8357 10.2901 92.867 10.2276 92.9125 10.1707C92.958 10.1138 93.0234 10.0683 93.1087 10.0342C93.194 10.0001 93.3078 9.98303 93.4499 9.98303H98.4065C98.5658 9.98303 98.6909 10.0029 98.7819 10.0427C98.8729 10.0769 98.9411 10.1252 98.9866 10.1878C99.0378 10.2503 99.0691 10.3214 99.0805 10.4011C99.0919 10.4807 99.0976 10.5631 99.0976 10.6485V12.3206C99.0976 12.531 99.0407 12.7045 98.9269 12.841C98.8189 12.9718 98.6539 13.0372 98.4321 13.0372H94.1836V13.7964H98.5857C98.7279 13.7964 98.8416 13.8164 98.9269 13.8562C99.0122 13.8903 99.0776 13.9386 99.1231 14.0012C99.1686 14.0581 99.1971 14.1206 99.2085 14.1889C99.2255 14.2571 99.2341 14.3197 99.2341 14.3766C99.2341 14.4505 99.2255 14.5244 99.2085 14.5984C99.1971 14.6666 99.1686 14.7292 99.1231 14.7861C99.0776 14.8372 99.0122 14.8799 98.9269 14.914C98.8416 14.9481 98.7279 14.9652 98.5857 14.9652H93.4926ZM101.957 12.0476V12.3973H106.359C106.598 12.3973 106.757 12.4428 106.837 12.5338C106.922 12.6191 106.965 12.7301 106.965 12.8666C106.965 13.0258 106.922 13.1452 106.837 13.2249C106.757 13.2988 106.598 13.3358 106.359 13.3358H101.266C101.107 13.3358 100.982 13.3215 100.891 13.2931C100.8 13.259 100.729 13.2163 100.677 13.1651C100.632 13.114 100.604 13.0542 100.592 12.986C100.581 12.9121 100.575 12.8353 100.575 12.7556V11.6807C100.575 11.6238 100.581 11.567 100.592 11.5101C100.609 11.4532 100.641 11.402 100.686 11.3565C100.732 11.3054 100.797 11.2655 100.882 11.2371C100.968 11.2087 101.081 11.1944 101.223 11.1944H105.481V10.8873H101.113C100.914 10.8873 100.768 10.8475 100.677 10.7679C100.592 10.6826 100.55 10.5688 100.55 10.4266C100.55 10.3129 100.592 10.2048 100.677 10.1025C100.768 9.9944 100.914 9.94037 101.113 9.94037H106.223C106.359 9.94037 106.47 9.95744 106.555 9.99156C106.641 10.0257 106.706 10.0712 106.752 10.1281C106.797 10.1792 106.826 10.2361 106.837 10.2987C106.854 10.3612 106.863 10.421 106.863 10.4778V11.5357C106.863 11.6039 106.854 11.6693 106.837 11.7319C106.82 11.7945 106.789 11.8485 106.743 11.894C106.698 11.9395 106.632 11.9765 106.547 12.0049C106.462 12.0333 106.351 12.0476 106.214 12.0476H101.957ZM100.618 14.769C100.476 14.769 100.362 14.7576 100.277 14.7349C100.191 14.7121 100.126 14.678 100.08 14.6325C100.035 14.587 100.004 14.5358 99.9865 14.4789C99.9751 14.4164 99.9694 14.3453 99.9694 14.2657C99.9694 14.2031 99.9751 14.1434 99.9865 14.0865C100.004 14.0239 100.035 13.9699 100.08 13.9244C100.126 13.8789 100.191 13.8419 100.277 13.8135C100.362 13.7851 100.476 13.7709 100.618 13.7709H106.82C106.962 13.7709 107.076 13.7851 107.161 13.8135C107.246 13.8419 107.312 13.8789 107.357 13.9244C107.403 13.9699 107.431 14.0239 107.443 14.0865C107.46 14.1434 107.468 14.2031 107.468 14.2657C107.468 14.3453 107.46 14.4164 107.443 14.4789C107.431 14.5358 107.403 14.587 107.357 14.6325C107.312 14.678 107.246 14.7121 107.161 14.7349C107.076 14.7576 106.962 14.769 106.82 14.769H100.618ZM105.489 16.2278H101.3C101.141 16.2278 101.01 16.2136 100.908 16.1852C100.805 16.1567 100.726 16.1198 100.669 16.0743C100.612 16.0288 100.572 15.9747 100.55 15.9122C100.532 15.8439 100.524 15.7757 100.524 15.7074C100.524 15.6221 100.532 15.5482 100.55 15.4856C100.572 15.4174 100.612 15.3605 100.669 15.315C100.726 15.2695 100.805 15.2354 100.908 15.2126C101.01 15.1842 101.141 15.17 101.3 15.17H106.18C106.339 15.17 106.464 15.1899 106.555 15.2297C106.646 15.2695 106.715 15.3235 106.76 15.3918C106.811 15.4543 106.843 15.5283 106.854 15.6136C106.865 15.6932 106.871 15.7757 106.871 15.861V16.5605C106.871 16.7027 106.851 16.8222 106.811 16.9188C106.772 17.0155 106.72 17.0923 106.658 17.1492C106.595 17.2061 106.521 17.2459 106.436 17.2686C106.356 17.2914 106.271 17.3027 106.18 17.3027C105.998 17.3027 105.836 17.2487 105.694 17.1406C105.557 17.0383 105.489 16.8449 105.489 16.5605V16.2278Z" fill="#6D7581"/>
<g filter="url(#filter0_i_3905_15342)">
<path d="M78.4927 50.1064C87.0191 78.6698 76.5648 78.2435 34.5817 78.2435C9.00254 78.2435 3.07306 71.3591 1.3288 66.7329C-3.89927 52.8666 7.46892 44.501 15.1427 36.401C24.2613 26.7757 27.4989 14.4902 50.3555 16.4272C75.5084 18.5588 74.9917 38.3782 78.4927 50.1064Z" fill="url(#paint0_linear_3905_15342)"/>
</g>
<g filter="url(#filter1_i_3905_15342)">
<path d="M72.4147 54.0889C66.3234 76.5845 67.9339 79.9997 100.394 79.9997C119.594 79.9997 125.343 77.366 127.486 69.947C129.828 61.8361 123.701 57.6302 118.579 50.7368C112.714 42.8431 109.151 34.1514 94.7355 34.1514C80.3197 34.1514 74.7773 45.3637 72.4147 54.0889Z" fill="url(#paint1_linear_3905_15342)"/>
</g>
<path d="M65.8541 33.8643C63.5363 35.6398 59.856 36.6383 57.0508 33.0583C54.2455 29.4783 56.1428 26.2043 58.4606 24.4289C60.7784 22.6534 68.6842 21.9196 69.9102 23.4841C71.1361 25.0487 68.1719 32.0888 65.8541 33.8643Z" fill="#25935E"/>
<path d="M56.9332 33.9892C56.6404 34.2135 56.2191 34.1606 55.9923 33.8711C55.7654 33.5816 55.8189 33.1651 56.1117 32.9408L63.5341 27.2552C63.8269 27.0309 64.2481 27.0838 64.475 27.3733C64.7018 27.6628 64.6484 28.0793 64.3556 28.3036L56.9332 33.9892Z" fill="#3CE98A"/>
<path d="M80.697 41.7733C81.9932 44.5929 85.3448 45.8446 88.183 44.5691C91.0211 43.2936 92.2712 39.9739 90.9749 37.1543C89.6787 34.3347 85.6869 32.184 82.8487 33.4595C80.0105 34.735 79.4008 38.9537 80.697 41.7733Z" fill="#FF6874"/>
<mask id="mask0_3905_15342" style="mask-type:alpha" maskUnits="userSpaceOnUse" x="80" y="33" width="12" height="13">
<path d="M80.6972 41.7723C81.9934 44.5919 85.345 45.8436 88.1832 44.5681C91.0214 43.2926 92.2714 39.9729 90.9752 37.1533C89.679 34.3337 85.6871 32.183 82.849 33.4585C80.0108 34.734 79.401 38.9527 80.6972 41.7723Z" fill="#FF4857"/>
</mask>
<g mask="url(#mask0_3905_15342)">
<g filter="url(#filter2_g_3905_15342)">
<path d="M79.8262 45.2161C81.1729 48.1455 84.5005 49.5153 87.2588 48.2757C90.017 47.0361 91.1613 43.6566 89.8146 40.7272C88.4679 37.7979 84.4877 35.4884 81.7295 36.728C78.9713 37.9675 78.4795 42.2868 79.8262 45.2161Z" fill="#FF4353"/>
</g>
</g>
<path d="M85.2169 39.4391C85.3334 39.6925 85.603 39.8192 85.8192 39.722C86.0354 39.6249 86.1161 39.3407 85.9996 39.0873C85.8831 38.8339 85.5585 38.6252 85.3423 38.7224C85.1262 38.8195 85.1004 39.1857 85.2169 39.4391Z" fill="#D62534"/>
<path d="M89.1319 37.6803C89.2484 37.9337 89.5181 38.0604 89.7342 37.9633C89.9504 37.8661 90.0312 37.5819 89.9147 37.3285C89.7982 37.0751 89.4735 36.8664 89.2574 36.9636C89.0412 37.0607 89.0154 37.4269 89.1319 37.6803Z" fill="#D62534"/>
<path d="M87.4229 42.1832C87.5394 42.4366 87.8091 42.5633 88.0253 42.4662C88.2414 42.369 88.3222 42.0849 88.2057 41.8314C88.0892 41.578 87.7645 41.3694 87.5484 41.4665C87.3322 41.5636 87.3064 41.9298 87.4229 42.1832Z" fill="#D62534"/>
<path d="M82.7979 42.3942C82.9144 42.6476 83.1841 42.7743 83.4003 42.6771C83.6164 42.58 83.6972 42.2958 83.5807 42.0424C83.4642 41.789 83.1395 41.5803 82.9234 41.6774C82.7072 41.7746 82.6814 42.1407 82.7979 42.3942Z" fill="#D62534"/>
<path d="M86.1426 35.2877C86.2592 35.5411 86.5288 35.6678 86.745 35.5707C86.9611 35.4735 87.0419 35.1894 86.9254 34.9359C86.8089 34.6825 86.4843 34.4739 86.2681 34.571C86.052 34.6681 86.0261 35.0343 86.1426 35.2877Z" fill="#D62534"/>
<path d="M82.2286 37.0465C82.3451 37.2999 82.6148 37.4266 82.8309 37.3295C83.0471 37.2323 83.1279 36.9481 83.0114 36.6947C82.8948 36.4413 82.5702 36.2326 82.3541 36.3298C82.1379 36.4269 82.1121 36.7931 82.2286 37.0465Z" fill="#D62534"/>
<path d="M100.559 49.9165C100.283 49.371 99.6123 49.15 99.0605 49.423L96.3499 50.7639C95.7981 51.0368 95.5746 51.7004 95.8507 52.2459C96.1268 52.7915 96.7979 53.0125 97.3497 52.7395L100.06 51.3986C100.612 51.1256 100.836 50.4621 100.559 49.9165Z" fill="#454545"/>
<path d="M107.179 47.6349C107.18 47.1046 107.615 46.6755 108.152 46.6763L110.786 46.6802C111.322 46.681 111.756 47.1115 111.756 47.6417C111.755 48.1719 111.319 48.6011 110.783 48.6003L108.149 48.5964C107.612 48.5956 107.178 48.1651 107.179 47.6349Z" fill="#454545"/>
<path d="M39.9998 33.5623C40.331 32.9077 41.1364 32.6425 41.7985 32.97L45.0512 34.5791C45.7133 34.9067 45.9815 35.7029 45.6502 36.3576C45.3189 37.0123 44.5136 37.2774 43.8515 36.9499L40.5988 35.3408C39.9367 35.0133 39.6685 34.217 39.9998 33.5623Z" fill="#454545"/>
<path d="M32.0565 30.824C32.0555 30.1877 31.533 29.6726 30.8895 29.6736L27.7282 29.6783C27.0846 29.6792 26.5637 30.1958 26.5647 30.8321C26.5657 31.4683 27.0881 31.9834 27.7317 31.9824L30.893 31.9778C31.5365 31.9768 32.0574 31.4602 32.0565 30.824Z" fill="#454545"/>
<rect x="108.249" y="36.835" width="1.28975" height="7.6512" rx="0.644873" fill="#B8BEC8"/>
<rect x="110.829" y="37.6846" width="1.28975" height="7.6512" rx="0.644873" fill="#B8BEC8"/>
<rect x="113.408" y="39.3857" width="1.28975" height="7.6512" rx="0.644873" fill="#B8BEC8"/>
<rect x="45.9102" y="22.3828" width="1.54769" height="9.18144" rx="0.773847" fill="#B8BEC8"/>
<rect x="49.0059" y="23.4033" width="1.54769" height="9.18144" rx="0.773847" fill="#B8BEC8"/>
<rect x="52.1016" y="25.4434" width="1.54769" height="9.18144" rx="0.773847" fill="#B8BEC8"/>
<defs>
<filter id="filter0_i_3905_15342" x="0" y="16.2236" width="81.2371" height="62.0205" filterUnits="userSpaceOnUse" color-interpolation-filters="sRGB">
<feFlood flood-opacity="0" result="BackgroundImageFix"/>
<feBlend mode="normal" in="SourceGraphic" in2="BackgroundImageFix" result="shape"/>
<feColorMatrix in="SourceAlpha" type="matrix" values="0 0 0 0 0 0 0 0 0 0 0 0 0 0 0 0 0 0 127 0" result="hardAlpha"/>
<feOffset/>
<feGaussianBlur stdDeviation="6.39835"/>
<feComposite in2="hardAlpha" operator="arithmetic" k2="-1" k3="1"/>
<feColorMatrix type="matrix" values="0 0 0 0 1 0 0 0 0 1 0 0 0 0 1 0 0 0 0.5 0"/>
<feBlend mode="normal" in2="shape" result="effect1_innerShadow_3905_15342"/>
</filter>
<filter id="filter1_i_3905_15342" x="69.6177" y="34.1514" width="58.3823" height="45.8486" filterUnits="userSpaceOnUse" color-interpolation-filters="sRGB">
<feFlood flood-opacity="0" result="BackgroundImageFix"/>
<feBlend mode="normal" in="SourceGraphic" in2="BackgroundImageFix" result="shape"/>
<feColorMatrix in="SourceAlpha" type="matrix" values="0 0 0 0 0 0 0 0 0 0 0 0 0 0 0 0 0 0 127 0" result="hardAlpha"/>
<feOffset/>
<feGaussianBlur stdDeviation="6.8249"/>
<feComposite in2="hardAlpha" operator="arithmetic" k2="-1" k3="1"/>
<feColorMatrix type="matrix" values="0 0 0 0 1 0 0 0 0 1 0 0 0 0 1 0 0 0 0.5 0"/>
<feBlend mode="normal" in2="shape" result="effect1_innerShadow_3905_15342"/>
</filter>
<filter id="filter2_g_3905_15342" x="70.5751" y="27.8546" width="28.3355" height="29.4089" filterUnits="userSpaceOnUse" color-interpolation-filters="sRGB">
<feFlood flood-opacity="0" result="BackgroundImageFix"/>
<feBlend mode="normal" in="SourceGraphic" in2="BackgroundImageFix" result="shape"/>
<feTurbulence type="fractalNoise" baseFrequency="11.721776008605957 11.721776008605957" numOctaves="3" seed="7132" />
<feDisplacementMap in="shape" scale="17.062259674072266" xChannelSelector="R" yChannelSelector="G" result="displacedImage" width="100%" height="100%" />
<feMerge result="effect1_texture_3905_15342">
<feMergeNode in="displacedImage"/>
</feMerge>
</filter>
<linearGradient id="paint0_linear_3905_15342" x1="28.4242" y1="13.8693" x2="28.8257" y2="86.7699" gradientUnits="userSpaceOnUse">
<stop stop-color="#E7FFE5"/>
<stop offset="0.544305" stop-color="#B8F2BB"/>
<stop offset="0.709909" stop-color="#B1F4C0"/>
<stop offset="1" stop-color="#DEFFDC"/>
</linearGradient>
<linearGradient id="paint1_linear_3905_15342" x1="100.284" y1="32.8707" x2="102.852" y2="86.6589" gradientUnits="userSpaceOnUse">
<stop stop-color="#FFE0E1"/>
<stop offset="0.41778" stop-color="#FFCDCD"/>
<stop offset="0.709909" stop-color="#FFBDBD"/>
<stop offset="1" stop-color="#FFC6C6"/>
</linearGradient>
</defs>
</svg>
