<svg width="80" height="60" viewBox="0 0 80 60" fill="none" xmlns="http://www.w3.org/2000/svg">
<g clip-path="url(#clip0_3899_43756)">
<g filter="url(#filter0_i_3899_43756)">
<path d="M75.345 27.6841C78.2841 38.6529 94.9514 59.549 39.972 59.549C-15.0074 59.549 1.79011 38.1671 4.59907 27.6841C7.66611 16.2379 18.6898 1.00977 39.972 1.00977C61.2542 1.00977 72.4059 16.7152 75.345 27.6841Z" fill="#FFF6E0"/>
</g>
<mask id="mask0_3899_43756" style="mask-type:alpha" maskUnits="userSpaceOnUse" x="0" y="1" width="80" height="59">
<path d="M75.345 27.6743C78.2841 38.6432 94.9514 59.5392 39.972 59.5392C-15.0074 59.5392 1.79011 38.1574 4.59907 27.6743C7.66611 16.2281 18.6898 1 39.972 1C61.2542 1 72.4059 16.7054 75.345 27.6743Z" fill="#FFFDF5"/>
</mask>
<g mask="url(#mask0_3899_43756)">
<g filter="url(#filter1_g_3899_43756)">
<path d="M50.9478 3.15506C45.9422 7.44557 27.73 6.83575 17.3394 20.3171C6.94885 33.7984 7.27129 52.0191 2.32315 48.2053C-2.625 44.3916 1.22853 25.2174 11.6191 11.7361C28.7813 -4.71073 55.6911 -0.910611 50.9478 3.15506Z" fill="#FFFDF5"/>
</g>
<g filter="url(#filter2_g_3899_43756)">
<path d="M55.9553 30.4779C55.9553 34.7877 44.4454 38.2816 30.2472 38.2816C16.049 38.2816 -2.37258 48.2135 4.5391 30.4779C13.1085 8.48584 16.049 22.6743 30.2472 22.6743C44.4454 22.6743 55.9553 26.1681 55.9553 30.4779Z" fill="#FFFDF5"/>
</g>
<g filter="url(#filter3_g_3899_43756)">
<path d="M95.9994 56.7856C95.9994 64.6842 82.7678 71.0873 48.8038 71.0873C14.8399 71.0873 -12.6934 64.6842 -12.6934 56.7856C-12.6934 48.887 26.6362 46.7744 48.8038 46.7744C70.9714 46.7744 95.9994 48.887 95.9994 56.7856Z" fill="#FFEAAD"/>
</g>
<path d="M31.5013 27.431C31.4089 26.2939 30.4122 25.447 29.2751 25.5394L23.6892 25.9934C22.5521 26.0858 21.7052 27.0825 21.7976 28.2196C21.8901 29.3567 22.8868 30.2036 24.0239 30.1112L29.6097 29.6572C30.7468 29.5648 31.5937 28.5681 31.5013 27.431Z" fill="#303030"/>
<path d="M47.938 27.3783C48.0423 26.2422 49.0479 25.4059 50.184 25.5103L55.7648 26.023C56.9008 26.1274 57.7372 27.133 57.6328 28.269C57.5284 29.4051 56.5228 30.2414 55.3868 30.1371L49.806 29.6243C48.6699 29.5199 47.8336 28.5144 47.938 27.3783Z" fill="#303030"/>
<path d="M44.7556 36.7632C45.4707 38.9084 44.7556 41.0537 40.4652 41.0537C36.1748 41.0537 35.4606 38.9084 36.1748 36.7632C36.8891 34.6179 38.0957 32.4727 40.4652 32.4727C42.8348 32.4727 44.0406 34.6179 44.7556 36.7632Z" fill="#FFAB8F"/>
<path d="M51.666 7.44458C51.666 7.04965 51.9862 6.72949 52.3811 6.72949C52.776 6.72949 53.0962 7.04965 53.0962 7.44458V18.8859C53.0962 19.2808 52.776 19.601 52.3811 19.601C51.9862 19.601 51.666 19.2808 51.666 18.8859V7.44458Z" fill="#EBCCA4"/>
<path d="M55.9551 7.44458C55.9551 7.04965 56.2752 6.72949 56.6702 6.72949C57.0651 6.72949 57.3852 7.04965 57.3852 7.44458V18.8859C57.3852 19.2808 57.0651 19.601 56.6702 19.601C56.2752 19.601 55.9551 19.2808 55.9551 18.8859V7.44458Z" fill="#EBCCA4"/>
<path d="M60.2461 7.44458C60.2461 7.04965 60.5662 6.72949 60.9612 6.72949C61.3561 6.72949 61.6763 7.04965 61.6763 7.44458V18.8859C61.6763 19.2808 61.3561 19.601 60.9612 19.601C60.5662 19.601 60.2461 19.2808 60.2461 18.8859V7.44458Z" fill="#EBCCA4"/>
</g>
</g>
<defs>
<filter id="filter0_i_3899_43756" x="0" y="1.00977" width="80" height="58.5391" filterUnits="userSpaceOnUse" color-interpolation-filters="sRGB">
<feFlood flood-opacity="0" result="BackgroundImageFix"/>
<feBlend mode="normal" in="SourceGraphic" in2="BackgroundImageFix" result="shape"/>
<feColorMatrix in="SourceAlpha" type="matrix" values="0 0 0 0 0 0 0 0 0 0 0 0 0 0 0 0 0 0 127 0" result="hardAlpha"/>
<feOffset/>
<feGaussianBlur stdDeviation="9.375"/>
<feComposite in2="hardAlpha" operator="arithmetic" k2="-1" k3="1"/>
<feColorMatrix type="matrix" values="0 0 0 0 1 0 0 0 0 1 0 0 0 0 1 0 0 0 0.8 0"/>
<feBlend mode="normal" in2="shape" result="effect1_innerShadow_3899_43756"/>
</filter>
<filter id="filter1_g_3899_43756" x="-14.8164" y="-15.3555" width="81.3164" height="79.0752" filterUnits="userSpaceOnUse" color-interpolation-filters="sRGB">
<feFlood flood-opacity="0" result="BackgroundImageFix"/>
<feBlend mode="normal" in="SourceGraphic" in2="BackgroundImageFix" result="shape"/>
<feTurbulence type="fractalNoise" baseFrequency="3.3333332538604736 3.3333332538604736" numOctaves="3" seed="2506" />
<feDisplacementMap in="shape" scale="30" xChannelSelector="R" yChannelSelector="G" result="displacedImage" width="100%" height="100%" />
<feMerge result="effect1_texture_3899_43756">
<feMergeNode in="displacedImage"/>
</feMerge>
</filter>
<filter id="filter2_g_3899_43756" x="-16.9609" y="-1.8291" width="92.916" height="62.8828" filterUnits="userSpaceOnUse" color-interpolation-filters="sRGB">
<feFlood flood-opacity="0" result="BackgroundImageFix"/>
<feBlend mode="normal" in="SourceGraphic" in2="BackgroundImageFix" result="shape"/>
<feTurbulence type="fractalNoise" baseFrequency="3.3333332538604736 3.3333332538604736" numOctaves="3" seed="2506" />
<feDisplacementMap in="shape" scale="40" xChannelSelector="R" yChannelSelector="G" result="displacedImage" width="100%" height="100%" />
<feMerge result="effect1_texture_3899_43756">
<feMergeNode in="displacedImage"/>
</feMerge>
</filter>
<filter id="filter3_g_3899_43756" x="-35.1934" y="24.2744" width="153.693" height="69.3125" filterUnits="userSpaceOnUse" color-interpolation-filters="sRGB">
<feFlood flood-opacity="0" result="BackgroundImageFix"/>
<feBlend mode="normal" in="SourceGraphic" in2="BackgroundImageFix" result="shape"/>
<feTurbulence type="fractalNoise" baseFrequency="5 5" numOctaves="3" seed="2506" />
<feDisplacementMap in="shape" scale="45" xChannelSelector="R" yChannelSelector="G" result="displacedImage" width="100%" height="100%" />
<feMerge result="effect1_texture_3899_43756">
<feMergeNode in="displacedImage"/>
</feMerge>
</filter>
<clipPath id="clip0_3899_43756">
<rect width="80" height="60" fill="white"/>
</clipPath>
</defs>
</svg>
