<svg width="180" height="120" viewBox="0 0 180 120" fill="none" xmlns="http://www.w3.org/2000/svg">
<g filter="url(#filter0_i_4032_43040)">
<path d="M129.618 69.8114C141.474 90.3454 156.6 103.82 90.0914 103.82C23.5827 103.82 38.2806 91.0878 50.5645 69.8114C56.0121 60.3758 63.4421 44 90.0912 44C116.74 44 124.404 60.7802 129.618 69.8114Z" fill="#FFF6E0"/>
</g>
<mask id="mask0_4032_43040" style="mask-type:alpha" maskUnits="userSpaceOnUse" x="40" y="44" width="100" height="60">
<path d="M129.618 69.8114C141.474 90.3454 156.6 103.82 90.0914 103.82C23.5827 103.82 38.2806 91.0878 50.5645 69.8114C56.0121 60.3758 63.4421 44 90.0912 44C116.74 44 124.404 60.7802 129.618 69.8114Z" fill="#FFF6E0"/>
</mask>
<g mask="url(#mask0_4032_43040)">
<g filter="url(#filter1_g_4032_43040)">
<path d="M101.464 40.8039C95.8704 45.5983 75.5194 44.9168 63.9087 59.9813C52.2979 75.0458 52.6582 95.4062 47.129 91.1446C41.5998 86.883 45.9058 65.4571 57.5166 50.3926C76.6942 32.0144 106.764 36.2608 101.464 40.8039Z" fill="#FFFDF5"/>
</g>
<g filter="url(#filter2_g_4032_43040)">
<path d="M107.058 71.3363C107.058 76.1522 94.1965 80.0563 78.331 80.0563C62.4655 80.0563 41.8806 91.1545 49.6039 71.3363C59.1796 46.7616 62.4655 62.6162 78.331 62.6162C94.1965 62.6162 107.058 66.5203 107.058 71.3363Z" fill="#FFFDF5"/>
</g>
<g filter="url(#filter3_g_4032_43040)">
<path d="M151.807 100.734C151.807 109.56 137.021 116.715 99.0686 116.715C61.1162 116.715 30.3496 109.56 30.3496 100.734C30.3496 91.9075 74.2978 89.5469 99.0686 89.5469C123.839 89.5469 151.807 91.9075 151.807 100.734Z" fill="#FFEAAD"/>
</g>
</g>
<path d="M81.396 71.1278C81.2927 69.8572 80.1789 68.9109 78.9083 69.0141L72.6665 69.5214C71.3958 69.6247 70.4495 70.7384 70.5528 72.0091C70.656 73.2797 71.7698 74.226 73.0404 74.1228L79.2823 73.6155C80.5529 73.5122 81.4992 72.3985 81.396 71.1278Z" fill="#303030"/>
<path d="M97.7751 71.0701C97.8918 69.8006 99.0154 68.866 100.285 68.9827L106.521 69.5556C107.791 69.6723 108.725 70.7959 108.608 72.0654C108.492 73.3349 107.368 74.2694 106.099 74.1528L99.8625 73.5798C98.5931 73.4632 97.6585 72.3395 97.7751 71.0701Z" fill="#303030"/>
<path d="M103.863 52.3919C103.863 51.73 104.4 51.1934 105.062 51.1934C105.724 51.1934 106.26 51.73 106.26 52.3919V64.3778C106.26 65.0398 105.724 65.5764 105.062 65.5764C104.4 65.5764 103.863 65.0398 103.863 64.3778V52.3919Z" fill="#ABBFE0"/>
<path d="M108.656 53.9886C108.656 53.3267 109.193 52.79 109.855 52.79C110.517 52.79 111.053 53.3267 111.053 53.9886V65.9745C111.053 66.6365 110.517 67.1731 109.855 67.1731C109.193 67.1731 108.656 66.6365 108.656 65.9745V53.9886Z" fill="#ABBFE0"/>
<path d="M113.453 57.1839C113.453 56.522 113.99 55.9854 114.652 55.9854C115.314 55.9854 115.85 56.522 115.85 57.1839V69.1698C115.85 69.8318 115.314 70.3684 114.652 70.3684C113.99 70.3684 113.453 69.8318 113.453 69.1698V57.1839Z" fill="#ABBFE0"/>
<path d="M175 42.1111C175 53.1111 166.574 58 148.519 58C130.829 58 124.694 56.8269 110.869 52.1819C110.708 52.1279 110.74 51.8717 110.91 51.862C115.929 51.5757 124.444 48.9343 124.444 40.8889C124.444 32.3333 135.278 25 149.722 25C164.167 25 175 31.1111 175 42.1111Z" fill="#F6F7F9"/>
<path d="M145.128 30.8767C146.848 27.8744 151.152 27.8744 152.872 30.8767L161.895 46.6249C163.614 49.6255 161.464 53.375 158.023 53.375H139.977C136.536 53.375 134.386 49.6255 136.105 46.6249L145.128 30.8767Z" fill="#FFD014"/>
<path d="M149 36.5V43.25" stroke="#131416" stroke-width="3" stroke-linecap="round" stroke-linejoin="round"/>
<path d="M149 47.75H149.011" stroke="#131416" stroke-width="3" stroke-linecap="round" stroke-linejoin="round"/>
<defs>
<filter id="filter0_i_4032_43040" x="40" y="44" width="100" height="59.8203" filterUnits="userSpaceOnUse" color-interpolation-filters="sRGB">
<feFlood flood-opacity="0" result="BackgroundImageFix"/>
<feBlend mode="normal" in="SourceGraphic" in2="BackgroundImageFix" result="shape"/>
<feColorMatrix in="SourceAlpha" type="matrix" values="0 0 0 0 0 0 0 0 0 0 0 0 0 0 0 0 0 0 127 0" result="hardAlpha"/>
<feOffset/>
<feGaussianBlur stdDeviation="9.375"/>
<feComposite in2="hardAlpha" operator="arithmetic" k2="-1" k3="1"/>
<feColorMatrix type="matrix" values="0 0 0 0 1 0 0 0 0 1 0 0 0 0 1 0 0 0 0.8 0"/>
<feBlend mode="normal" in2="shape" result="effect1_innerShadow_4032_43040"/>
</filter>
<filter id="filter1_g_4032_43040" x="29.7383" y="21.8809" width="87.3418" height="84.8379" filterUnits="userSpaceOnUse" color-interpolation-filters="sRGB">
<feFlood flood-opacity="0" result="BackgroundImageFix"/>
<feBlend mode="normal" in="SourceGraphic" in2="BackgroundImageFix" result="shape"/>
<feTurbulence type="fractalNoise" baseFrequency="3.3333332538604736 3.3333332538604736" numOctaves="3" seed="2506" />
<feDisplacementMap in="shape" scale="30" xChannelSelector="R" yChannelSelector="G" result="displacedImage" width="100%" height="100%" />
<feMerge result="effect1_texture_4032_43040">
<feMergeNode in="displacedImage"/>
</feMerge>
</filter>
<filter id="filter2_g_4032_43040" x="27.9277" y="37.584" width="99.1309" height="65.5703" filterUnits="userSpaceOnUse" color-interpolation-filters="sRGB">
<feFlood flood-opacity="0" result="BackgroundImageFix"/>
<feBlend mode="normal" in="SourceGraphic" in2="BackgroundImageFix" result="shape"/>
<feTurbulence type="fractalNoise" baseFrequency="3.3333332538604736 3.3333332538604736" numOctaves="3" seed="2506" />
<feDisplacementMap in="shape" scale="40" xChannelSelector="R" yChannelSelector="G" result="displacedImage" width="100%" height="100%" />
<feMerge result="effect1_texture_4032_43040">
<feMergeNode in="displacedImage"/>
</feMerge>
</filter>
<filter id="filter3_g_4032_43040" x="7.84961" y="67.0469" width="166.457" height="72.168" filterUnits="userSpaceOnUse" color-interpolation-filters="sRGB">
<feFlood flood-opacity="0" result="BackgroundImageFix"/>
<feBlend mode="normal" in="SourceGraphic" in2="BackgroundImageFix" result="shape"/>
<feTurbulence type="fractalNoise" baseFrequency="5 5" numOctaves="3" seed="2506" />
<feDisplacementMap in="shape" scale="45" xChannelSelector="R" yChannelSelector="G" result="displacedImage" width="100%" height="100%" />
<feMerge result="effect1_texture_4032_43040">
<feMergeNode in="displacedImage"/>
</feMerge>
</filter>
</defs>
</svg>
