<svg width="80" height="60" viewBox="0 0 80 60" fill="none" xmlns="http://www.w3.org/2000/svg">
<g clip-path="url(#clip0_3499_33440)">
<g filter="url(#filter0_i_3499_33440)">
<path d="M75.345 27.6828C78.2841 38.6516 94.9514 59.5476 39.972 59.5476C-15.0074 59.5476 1.79011 38.1658 4.59907 27.6828C7.66611 16.2366 18.6898 1.00854 39.972 1.00854C61.2542 1.00854 72.4059 16.7139 75.345 27.6828Z" fill="#FFF6E0"/>
</g>
<mask id="mask0_3499_33440" style="mask-type:alpha" maskUnits="userSpaceOnUse" x="0" y="1" width="80" height="59">
<path d="M75.345 27.6742C78.2841 38.6431 94.9514 59.5391 39.972 59.5391C-15.0074 59.5391 1.79011 38.1572 4.59907 27.6742C7.66611 16.2281 18.6898 1 39.972 1C61.2542 1 72.4059 16.7054 75.345 27.6742Z" fill="#FFFDF5"/>
</mask>
<g mask="url(#mask0_3499_33440)">
<g filter="url(#filter1_g_3499_33440)">
<path d="M50.9488 3.15493C45.9432 7.44542 27.7309 6.8356 17.3404 20.3169C6.94983 33.7982 7.27226 52.0188 2.32412 48.2051C-2.62402 44.3914 1.22951 25.2172 11.6201 11.7359C28.7822 -4.71085 55.6921 -0.910739 50.9488 3.15493Z" fill="#FFFDF5"/>
</g>
<g filter="url(#filter2_g_3499_33440)">
<path d="M55.9555 30.4774C55.9555 34.7872 44.4456 38.281 30.2474 38.281C16.0492 38.281 -2.37234 48.2129 4.53934 30.4774C13.1087 8.48537 16.0492 22.6738 30.2474 22.6738C44.4456 22.6738 55.9555 26.1676 55.9555 30.4774Z" fill="#FFFDF5"/>
</g>
<g filter="url(#filter3_g_3499_33440)">
<path d="M95.9999 56.7848C95.9999 64.6834 82.7683 71.0865 48.8043 71.0865C14.8404 71.0865 -12.6929 64.6834 -12.6929 56.7848C-12.6929 48.8863 26.6367 46.7737 48.8043 46.7737C70.9719 46.7737 95.9999 48.8863 95.9999 56.7848Z" fill="#FFEAAD"/>
</g>
</g>
<path d="M25.7432 24.0339C25.7432 22.3752 27.0878 21.0305 28.7465 21.0305C30.4052 21.0305 31.7499 22.3752 31.7499 24.0339V27.2374C31.7499 28.8961 30.4052 30.2408 28.7465 30.2408C27.0878 30.2408 25.7432 28.8961 25.7432 27.2374V24.0339Z" fill="#303030"/>
<path d="M52.8805 28.0402C53.701 28.4471 54.6075 27.861 54.2768 27.0547C54.2583 27.0097 54.2391 26.965 54.2193 26.9205C53.9524 26.3234 53.5614 25.7808 53.0683 25.3238C52.5753 24.8668 51.99 24.5043 51.3459 24.257C50.7017 24.0096 50.0113 23.8823 49.3141 23.8823C48.6169 23.8823 47.9265 24.0096 47.2823 24.257C46.6382 24.5043 46.0529 24.8668 45.5598 25.3238C45.0668 25.7808 44.6757 26.3234 44.4089 26.9205C44.0608 27.6995 45.0181 28.2511 45.8391 27.8879C46.9224 27.4086 48.2797 26.9205 49.3141 26.9205C50.7102 26.9205 51.7155 27.4624 52.8805 28.0402Z" fill="#303030"/>
</g>
<defs>
<filter id="filter0_i_3499_33440" x="0" y="1.00854" width="80" height="58.5391" filterUnits="userSpaceOnUse" color-interpolation-filters="sRGB">
<feFlood flood-opacity="0" result="BackgroundImageFix"/>
<feBlend mode="normal" in="SourceGraphic" in2="BackgroundImageFix" result="shape"/>
<feColorMatrix in="SourceAlpha" type="matrix" values="0 0 0 0 0 0 0 0 0 0 0 0 0 0 0 0 0 0 127 0" result="hardAlpha"/>
<feOffset/>
<feGaussianBlur stdDeviation="9.375"/>
<feComposite in2="hardAlpha" operator="arithmetic" k2="-1" k3="1"/>
<feColorMatrix type="matrix" values="0 0 0 0 1 0 0 0 0 1 0 0 0 0 1 0 0 0 0.8 0"/>
<feBlend mode="normal" in2="shape" result="effect1_innerShadow_3499_33440"/>
</filter>
<filter id="filter1_g_3499_33440" x="-14.8154" y="-15.3555" width="81.3162" height="79.0745" filterUnits="userSpaceOnUse" color-interpolation-filters="sRGB">
<feFlood flood-opacity="0" result="BackgroundImageFix"/>
<feBlend mode="normal" in="SourceGraphic" in2="BackgroundImageFix" result="shape"/>
<feTurbulence type="fractalNoise" baseFrequency="3.3333332538604736 3.3333332538604736" numOctaves="3" seed="2506" />
<feDisplacementMap in="shape" scale="30" xChannelSelector="R" yChannelSelector="G" result="displacedImage" width="100%" height="100%" />
<feMerge result="effect1_texture_3499_33440">
<feMergeNode in="displacedImage"/>
</feMerge>
</filter>
<filter id="filter2_g_3499_33440" x="-16.9607" y="-1.82959" width="92.9163" height="62.8826" filterUnits="userSpaceOnUse" color-interpolation-filters="sRGB">
<feFlood flood-opacity="0" result="BackgroundImageFix"/>
<feBlend mode="normal" in="SourceGraphic" in2="BackgroundImageFix" result="shape"/>
<feTurbulence type="fractalNoise" baseFrequency="3.3333332538604736 3.3333332538604736" numOctaves="3" seed="2506" />
<feDisplacementMap in="shape" scale="40" xChannelSelector="R" yChannelSelector="G" result="displacedImage" width="100%" height="100%" />
<feMerge result="effect1_texture_3499_33440">
<feMergeNode in="displacedImage"/>
</feMerge>
</filter>
<filter id="filter3_g_3499_33440" x="-35.1929" y="24.2737" width="153.693" height="69.3127" filterUnits="userSpaceOnUse" color-interpolation-filters="sRGB">
<feFlood flood-opacity="0" result="BackgroundImageFix"/>
<feBlend mode="normal" in="SourceGraphic" in2="BackgroundImageFix" result="shape"/>
<feTurbulence type="fractalNoise" baseFrequency="5 5" numOctaves="3" seed="2506" />
<feDisplacementMap in="shape" scale="45" xChannelSelector="R" yChannelSelector="G" result="displacedImage" width="100%" height="100%" />
<feMerge result="effect1_texture_3499_33440">
<feMergeNode in="displacedImage"/>
</feMerge>
</filter>
<clipPath id="clip0_3499_33440">
<rect width="80" height="60" fill="white"/>
</clipPath>
</defs>
</svg>
