<svg width="61" height="57" viewBox="0 0 61 57" fill="none" xmlns="http://www.w3.org/2000/svg">
<g filter="url(#filter0_d_3268_8334)">
<g filter="url(#filter1_i_3268_8334)">
<path d="M55.8368 24.8828C57.9174 32.6476 69.7162 47.44 30.7962 47.44C-8.12374 47.44 3.76722 32.3037 5.75569 24.8828C7.92685 16.78 15.7306 6 30.7962 6C45.8619 6 53.7562 17.1179 55.8368 24.8828Z" fill="white"/>
</g>
<path d="M22.9399 22.9398C22.9399 21.78 23.8801 20.8398 25.0399 20.8398C26.1997 20.8398 27.1399 21.78 27.1399 22.9398V25.1798C27.1399 26.3396 26.1997 27.2798 25.0399 27.2798C23.8801 27.2798 22.9399 26.3396 22.9399 25.1798V22.9398Z" fill="#303030"/>
<path d="M34.9802 22.9398C34.9802 21.78 35.9204 20.8398 37.0802 20.8398C38.24 20.8398 39.1802 21.78 39.1802 22.9398V25.1798C39.1802 26.3396 38.24 27.2798 37.0802 27.2798C35.9204 27.2798 34.9802 26.3396 34.9802 25.1798V22.9398Z" fill="#303030"/>
</g>
<defs>
<filter id="filter0_d_3268_8334" x="-7.5" y="0" width="76.6321" height="61.4399" filterUnits="userSpaceOnUse" color-interpolation-filters="sRGB">
<feFlood flood-opacity="0" result="BackgroundImageFix"/>
<feColorMatrix in="SourceAlpha" type="matrix" values="0 0 0 0 0 0 0 0 0 0 0 0 0 0 0 0 0 0 127 0" result="hardAlpha"/>
<feOffset dy="4"/>
<feGaussianBlur stdDeviation="5"/>
<feComposite in2="hardAlpha" operator="out"/>
<feColorMatrix type="matrix" values="0 0 0 0 1 0 0 0 0 0.670588 0 0 0 0 0.560784 0 0 0 0.3 0"/>
<feBlend mode="normal" in2="BackgroundImageFix" result="effect1_dropShadow_3268_8334"/>
<feBlend mode="normal" in="SourceGraphic" in2="effect1_dropShadow_3268_8334" result="shape"/>
</filter>
<filter id="filter1_i_3268_8334" x="2.5" y="6" width="56.6321" height="41.4399" filterUnits="userSpaceOnUse" color-interpolation-filters="sRGB">
<feFlood flood-opacity="0" result="BackgroundImageFix"/>
<feBlend mode="normal" in="SourceGraphic" in2="BackgroundImageFix" result="shape"/>
<feColorMatrix in="SourceAlpha" type="matrix" values="0 0 0 0 0 0 0 0 0 0 0 0 0 0 0 0 0 0 127 0" result="hardAlpha"/>
<feOffset/>
<feGaussianBlur stdDeviation="5"/>
<feComposite in2="hardAlpha" operator="arithmetic" k2="-1" k3="1"/>
<feColorMatrix type="matrix" values="0 0 0 0 1 0 0 0 0 1 0 0 0 0 1 0 0 0 0.8 0"/>
<feBlend mode="normal" in2="shape" result="effect1_innerShadow_3268_8334"/>
</filter>
</defs>
</svg>
