<svg width="141" height="53" viewBox="0 0 141 53" fill="none" xmlns="http://www.w3.org/2000/svg">
<path d="M127.76 19.4274C133.078 13.3075 133.186 14.0262 133.1 11.086C133.035 8.60319 130.457 5.67348 126.939 6.42528C124.799 6.88264 121.578 8.58141 120.605 4.50871C120.043 2.13479 123.048 0.43602 126.744 0.0875544C134.375 -0.631156 140.298 4.44338 140.579 10.6722C140.774 15.0498 139.023 16.5526 133.943 22.6725C131.976 25.0464 129.619 28.0084 129.663 30.7961C129.684 32.386 129.706 30.905 129.771 33.0829C129.835 35.0648 128.301 36.6982 126.333 36.7636C124.388 36.8289 122.767 35.2826 122.702 33.3225C122.637 31.1881 122.615 32.5166 122.529 29.9467C122.377 25.7433 125.404 22.1716 127.76 19.4492V19.4274Z" fill="white"/>
<path d="M42.6084 38.0905C42.6084 37.5678 42.6733 37.0887 42.7813 36.6531C42.911 36.2175 43.1272 35.8255 43.4731 35.4988C43.819 35.1721 44.2946 34.9108 44.9215 34.7148C45.5484 34.5188 46.3482 34.4316 47.2994 34.4316H76.5048C77.4776 34.4316 78.2775 34.5188 78.8828 34.7148C79.5097 34.9108 79.9852 35.1721 80.3311 35.4988C80.677 35.8255 80.9148 36.2175 81.0229 36.6531C81.131 37.0887 81.1958 37.5678 81.1958 38.0905C81.1958 38.5043 81.131 38.9399 81.0229 39.3755C80.9148 39.8111 80.677 40.2031 80.3311 40.5298C79.9852 40.8565 79.5097 41.1396 78.8828 41.3356C78.2558 41.5534 77.456 41.6405 76.5048 41.6405H67.4686C66.8358 41.6405 66.3229 42.1534 66.3229 42.7862V47.5427C66.3229 48.4574 66.1932 49.1979 65.9554 49.7859C65.7176 50.3739 65.3934 50.8531 65.0259 51.2016C64.6367 51.55 64.2044 51.7896 63.7072 51.942C63.21 52.0727 62.6695 52.1598 62.1291 52.1598C61.5887 52.1598 61.0482 52.0945 60.551 51.942C60.0538 51.8114 59.5998 51.55 59.2107 51.2016C58.8216 50.8531 58.4973 50.3739 58.2812 49.7859C58.065 49.1979 57.9353 48.4356 57.9353 47.5427V42.7862C57.9353 42.1534 57.4224 41.6405 56.7897 41.6405H47.321C46.3482 41.6405 45.5484 41.5316 44.9431 41.3356C44.3162 41.1178 43.8406 40.8565 43.4947 40.5298C43.1488 40.2031 42.911 39.8111 42.803 39.3755C42.6733 38.9399 42.63 38.5043 42.63 38.0905H42.6084Z" fill="white"/>
<path d="M38.8062 47.4127C38.8062 47.9354 38.7414 48.4146 38.6333 48.8502C38.5036 49.2857 38.2874 49.6778 37.9415 50.0045C37.5956 50.3311 37.12 50.5925 36.4931 50.7885C35.8662 50.9845 35.0664 51.0716 34.1152 51.0716H4.86656C3.89377 51.0716 3.09391 50.9845 2.48862 50.7885C1.86171 50.5925 1.38612 50.3311 1.04024 50.0045C0.69436 49.6778 0.456566 49.2857 0.348478 48.8502C0.24039 48.4146 0.175537 47.9354 0.175537 47.4127C0.175537 46.9989 0.24039 46.5634 0.348478 46.1278C0.456566 45.6922 0.69436 45.3002 1.04024 44.9735C1.38612 44.6468 1.86171 44.3637 2.48862 44.1677C3.11553 43.9499 3.91538 43.8627 4.86656 43.8627H14.2208C14.6779 43.8627 15.0485 43.4922 15.0485 43.0351C15.0485 42.1204 15.1782 41.3799 15.416 40.7919C15.6537 40.2039 15.978 39.7247 16.3455 39.3763C16.7346 39.0278 17.167 38.7882 17.6642 38.6358C18.1614 38.5051 18.7018 38.418 19.2423 38.418C19.7827 38.418 20.3232 38.4833 20.8204 38.6358C21.3176 38.7664 21.7715 39.0278 22.1606 39.3763C22.5498 39.7247 22.874 40.2039 23.0902 40.7919C23.3064 41.3799 23.4361 42.1422 23.4361 43.0351C23.4361 43.4922 23.8066 43.8627 24.2637 43.8627H34.0503C35.0231 43.8627 35.823 43.9716 36.4283 44.1677C37.0552 44.3854 37.5308 44.6468 37.8767 44.9735C38.2225 45.3002 38.4603 45.6922 38.5684 46.1278C38.6981 46.5634 38.7414 46.9989 38.7414 47.4127H38.8062Z" fill="white"/>
<path d="M98.3602 21.2992C98.3602 23.3464 98.2953 31.666 98.144 33.147C98.0143 34.628 97.69 36.1961 97.2144 37.8295C96.8685 38.9402 96.4362 40.051 95.8957 41.1835C95.3553 42.2942 94.7716 43.3396 94.1231 44.3197C93.4746 45.2997 92.826 46.1709 92.1343 46.9549C91.4425 47.739 90.794 48.3706 90.1671 48.8715C89.778 49.1764 89.3672 49.3942 88.8916 49.5031C88.416 49.612 87.9405 49.6338 87.4216 49.5467C86.9028 49.5031 86.384 49.3289 85.8652 49.024C85.3464 48.7191 84.9356 48.1964 84.6113 47.4994C84.2222 46.5629 84.179 45.7571 84.4384 45.0602C84.6978 44.3632 85.1302 43.6881 85.7139 42.9911C86.4056 42.1853 87.0541 41.4013 87.6378 40.6172C88.2215 39.8332 88.7836 38.9185 89.3024 37.8731C89.7563 36.9366 90.0806 36.0436 90.2535 35.216C90.4481 34.3884 90.5778 33.539 90.6427 32.7114C90.7075 31.8838 90.7291 31.0126 90.7291 30.0979C90.7291 29.1832 90.7075 21.6258 90.7075 20.5151V8.63742C90.7075 8.04047 90.2236 7.55654 89.6266 7.55654C88.6538 7.55654 87.854 7.44764 87.2487 7.25163C86.6218 7.03384 86.1462 6.77249 85.8003 6.44581C85.4544 6.11912 85.2166 5.7271 85.1086 5.29151C84.9788 4.85593 84.9356 4.42035 84.9356 4.00655C84.9356 3.48385 85.0005 3.00471 85.1086 2.56913C85.2383 2.13354 85.4544 1.74152 85.8003 1.41483C86.1462 1.08815 86.6218 0.826797 87.2487 0.630785C87.8756 0.434773 88.6755 0.347656 89.6266 0.347656H111.633C112.606 0.347656 113.406 0.434773 114.011 0.630785C114.617 0.826797 115.114 1.08815 115.46 1.41483C115.806 1.74152 116.043 2.13354 116.151 2.56913C116.281 3.00471 116.324 3.48385 116.324 4.00655C116.324 4.42035 116.26 4.85593 116.151 5.29151C116.022 5.7271 115.806 6.11912 115.46 6.44581C115.114 6.77249 114.638 7.05562 114.011 7.25163C113.384 7.46942 112.585 7.55654 111.633 7.55654H111.482C110.849 7.55654 110.336 8.06946 110.336 8.70217V31.5136C110.336 32.7767 110.444 33.9746 110.682 35.1289C110.898 36.2832 111.331 37.4157 111.936 38.5264C112.541 39.6372 113.449 40.7915 114.66 41.9675C115.589 42.904 116.303 43.8405 116.757 44.7988C117.232 45.7353 117.146 46.7589 116.519 47.8914C115.827 49.0457 114.876 49.6556 113.665 49.7209C113.276 49.7209 112.909 49.6773 112.52 49.5902C112.131 49.5031 111.785 49.3289 111.439 49.0457C110.271 48.0439 109.364 47.0638 108.715 46.1491C108.424 45.7385 108.133 45.2971 107.842 44.829C107.36 44.0542 106.199 44.0649 105.744 44.8557C105.507 45.268 105.272 45.6633 105.04 46.0402C104.478 46.9549 103.656 47.9568 102.576 49.0022C102.186 49.3506 101.797 49.5902 101.365 49.7427C100.933 49.8951 100.457 49.9605 99.9382 50.004C99.3762 50.0476 98.8574 49.9169 98.3385 49.6338C97.8197 49.3506 97.3657 48.8715 96.9982 48.1746C96.5443 47.4123 96.4578 46.6065 96.7172 45.7353C96.9766 44.8859 97.5603 43.9277 98.4466 42.8823C99.5924 41.5319 100.457 40.2252 101.041 39.0056C101.624 37.7859 102.035 36.5663 102.295 35.3249C102.532 34.0835 102.662 32.8421 102.684 31.5571C102.684 30.2939 102.705 22.3663 102.705 20.9071V8.70217C102.705 8.06946 102.192 7.55654 101.56 7.55654H99.5923C98.9595 7.55654 98.4466 8.06946 98.4466 8.70217V21.2992H98.3602Z" fill="white"/>
<path d="M126.328 50.0577C129.064 50.0577 131.282 47.8351 131.282 45.0933C131.282 42.3515 129.064 40.1289 126.328 40.1289C123.592 40.1289 121.374 42.3515 121.374 45.0933C121.374 47.8351 123.592 50.0577 126.328 50.0577Z" fill="white"/>
<path d="M33.6853 0C36.216 0.00015173 38.2673 2.05224 38.2673 4.58301V32.793C38.2672 35.3236 36.216 37.3748 33.6853 37.375H4.75952C2.22874 37.375 0.176635 35.3237 0.176514 32.793V4.58301C0.176514 2.05215 2.22866 0 4.75952 0H33.6853ZM10.9773 7.95215C9.39551 7.95215 8.11304 9.23462 8.11304 10.8164V26.5586C8.11304 28.1404 9.39551 29.4229 10.9773 29.4229H27.4685C29.0502 29.4228 30.3328 28.1403 30.3328 26.5586V10.8164C30.3328 9.23466 29.0502 7.95222 27.4685 7.95215H10.9773Z" fill="white"/>
<path d="M77.7319 0.140625C79.9463 0.140795 81.7417 1.936 81.7417 4.15039V26.7451C81.7415 28.9594 79.9462 30.7547 77.7319 30.7549H46.9448C44.7304 30.7549 42.9352 28.9595 42.9351 26.7451V4.15039C42.9351 1.9359 44.7303 0.140625 46.9448 0.140625H77.7319ZM53.1968 8.41504C52.0895 8.41504 51.1919 9.31267 51.1919 10.4199V20.4756C51.1919 21.5828 52.0895 22.4805 53.1968 22.4805H71.48C72.5872 22.4805 73.4849 21.5828 73.4849 20.4756V10.4199C73.4849 9.31267 72.5872 8.41504 71.48 8.41504H53.1968Z" fill="white"/>
</svg>
