<svg width="120" height="200" viewBox="0 0 120 200" fill="none" xmlns="http://www.w3.org/2000/svg">
<ellipse cx="59.5" cy="173.5" rx="50.5" ry="12.5" fill="black" fill-opacity="0.24"/>
<g filter="url(#filter0_i_3537_32880)">
<path d="M104.188 141.362C107.898 154.853 128.941 180.554 59.5291 180.554C-9.88236 180.554 11.3245 154.255 14.8708 141.362C18.7429 127.283 32.6604 108.554 59.5291 108.554C86.3979 108.554 100.477 127.87 104.188 141.362Z" fill="url(#paint0_linear_3537_32880)"/>
</g>
<rect x="45.5645" y="134.178" width="7.5" height="11.1198" rx="3.75" fill="url(#paint1_linear_3537_32880)"/>
<rect x="67.0645" y="134.178" width="7.5" height="11.1198" rx="3.75" fill="url(#paint2_linear_3537_32880)"/>
<g filter="url(#filter1_i_3537_32880)">
<path d="M64.4678 106.962C68.7813 116.804 59.0617 118.054 47.0617 121.304C35.0617 124.554 23.6979 128.304 24.8605 112.971C25.3665 106.298 30.4903 96.8838 42.4052 95.0763C54.32 93.2687 61.8934 101.089 64.4678 106.962Z" fill="url(#paint3_linear_3537_32880)"/>
</g>
<rect x="33" y="105.898" width="3.10759" height="4.76497" rx="1.55379" transform="rotate(-9.08579 33 105.898)" fill="white"/>
<rect x="41.7969" y="104.491" width="3.10759" height="4.76497" rx="1.55379" transform="rotate(-9.08579 41.7969 104.491)" fill="white"/>
<defs>
<filter id="filter0_i_3537_32880" x="9.06445" y="108.554" width="101" height="72" filterUnits="userSpaceOnUse" color-interpolation-filters="sRGB">
<feFlood flood-opacity="0" result="BackgroundImageFix"/>
<feBlend mode="normal" in="SourceGraphic" in2="BackgroundImageFix" result="shape"/>
<feColorMatrix in="SourceAlpha" type="matrix" values="0 0 0 0 0 0 0 0 0 0 0 0 0 0 0 0 0 0 127 0" result="hardAlpha"/>
<feOffset/>
<feGaussianBlur stdDeviation="7.5"/>
<feComposite in2="hardAlpha" operator="arithmetic" k2="-1" k3="1"/>
<feColorMatrix type="matrix" values="0 0 0 0 1 0 0 0 0 1 0 0 0 0 1 0 0 0 0.5 0"/>
<feBlend mode="normal" in2="shape" result="effect1_innerShadow_3537_32880"/>
</filter>
<filter id="filter1_i_3537_32880" x="24.7783" y="94.8115" width="40.7314" height="29.4053" filterUnits="userSpaceOnUse" color-interpolation-filters="sRGB">
<feFlood flood-opacity="0" result="BackgroundImageFix"/>
<feBlend mode="normal" in="SourceGraphic" in2="BackgroundImageFix" result="shape"/>
<feColorMatrix in="SourceAlpha" type="matrix" values="0 0 0 0 0 0 0 0 0 0 0 0 0 0 0 0 0 0 127 0" result="hardAlpha"/>
<feOffset/>
<feGaussianBlur stdDeviation="2.5"/>
<feComposite in2="hardAlpha" operator="arithmetic" k2="-1" k3="1"/>
<feColorMatrix type="matrix" values="0 0 0 0 1 0 0 0 0 0.936367 0 0 0 0 0.81819 0 0 0 0.5 0"/>
<feBlend mode="normal" in2="shape" result="effect1_innerShadow_3537_32880"/>
</filter>
<linearGradient id="paint0_linear_3537_32880" x1="59.5292" y1="108.554" x2="59.5292" y2="180.554" gradientUnits="userSpaceOnUse">
<stop stop-color="#FFFFE5"/>
<stop offset="0.721154" stop-color="#FFD1C2"/>
<stop offset="1" stop-color="#FFE2D9"/>
</linearGradient>
<linearGradient id="paint1_linear_3537_32880" x1="49.3145" y1="134.178" x2="49.3145" y2="145.298" gradientUnits="userSpaceOnUse">
<stop stop-color="#6B1700"/>
<stop offset="1" stop-color="#901E00"/>
</linearGradient>
<linearGradient id="paint2_linear_3537_32880" x1="70.8145" y1="134.178" x2="70.8145" y2="145.298" gradientUnits="userSpaceOnUse">
<stop stop-color="#6B1700"/>
<stop offset="1" stop-color="#901E00"/>
</linearGradient>
<linearGradient id="paint3_linear_3537_32880" x1="42.3407" y1="95.086" x2="48.5616" y2="121.054" gradientUnits="userSpaceOnUse">
<stop stop-color="#FF8063"/>
<stop offset="0.4375" stop-color="#FF6046"/>
<stop offset="0.677885" stop-color="#FF5B42"/>
<stop offset="1" stop-color="#FF7965"/>
</linearGradient>
</defs>
</svg>
