<svg width="240" height="262" viewBox="0 0 240 262" fill="none" xmlns="http://www.w3.org/2000/svg">
<ellipse cx="116.5" cy="223.498" rx="116.5" ry="38.5" fill="black" fill-opacity="0.12"/>
<g filter="url(#filter0_i_3548_51389)">
<path d="M232.076 187.526C236.969 205.785 259.5 240.569 186.605 240.569C110.183 240.569 120.765 230.238 120.766 196.951C120.766 171.085 128.7 150.229 163.771 145.219C196.691 140.516 226.726 167.558 232.076 187.526Z" fill="#EDFFE9"/>
</g>
<path d="M146.62 192.42C146.353 190.564 147.642 188.842 149.499 188.576L158.62 187.266C160.477 187 162.198 188.289 162.465 190.146C162.731 192.002 161.442 193.724 159.585 193.99L150.464 195.3C148.608 195.566 146.886 194.277 146.62 192.42Z" fill="#303030"/>
<path d="M182.282 187.301C182.016 185.445 183.305 183.723 185.161 183.457L194.282 182.147C196.139 181.881 197.86 183.17 198.127 185.026C198.394 186.883 197.104 188.604 195.248 188.871L186.127 190.181C184.27 190.447 182.549 189.158 182.282 187.301Z" fill="#303030"/>
<path d="M213.517 166.309C211.2 170.897 206.134 175.267 198.967 171.647C191.799 168.027 192.31 161.357 194.627 156.768C196.944 152.18 208.901 145.052 212.033 146.634C215.166 148.216 215.835 161.721 213.517 166.309Z" fill="#25935E"/>
<path d="M199.486 173.227C199.193 173.806 198.486 174.039 197.907 173.746C197.327 173.453 197.095 172.746 197.387 172.167L204.808 157.474C205.1 156.894 205.807 156.662 206.387 156.954C206.967 157.247 207.199 157.954 206.907 158.534L199.486 173.227Z" fill="#3CE98A"/>
<g filter="url(#filter1_i_3548_51389)">
<path d="M133.471 195.826C133.471 218.442 142.877 241.003 69.9814 241.003C-11.6214 241.003 17.36 205.35 20.7027 187.596C26.0843 159.014 55.9787 134.689 93.6019 147.622C120.031 156.707 133.471 172.312 133.471 195.826Z" fill="#FFF0EB"/>
</g>
<path d="M105.815 191.777C105.409 195.652 101.938 198.463 98.0632 198.057C94.1884 197.65 91.3768 194.18 91.7833 190.305C92.1898 186.43 95.6604 183.619 99.5351 184.025C100.666 184.144 102.645 184.351 104.213 184.516C105.505 184.651 106.441 185.807 106.306 187.099C106.135 188.727 105.92 190.779 105.815 191.777Z" fill="#303030"/>
<path d="M54.3656 186.38C53.9591 190.255 56.7707 193.725 60.6455 194.132C64.5202 194.538 67.9908 191.727 68.3973 187.852C68.8038 183.977 65.9922 180.506 62.1174 180.1C60.9863 179.981 59.0075 179.774 57.4392 179.609C56.1476 179.474 54.9918 180.41 54.8563 181.702C54.6855 183.33 54.4702 185.382 54.3656 186.38Z" fill="#303030"/>
<path d="M46.9719 143.661C48.9264 142.117 51.8602 142.506 53.0832 144.793C55.4095 149.144 56.4639 154.056 56.0537 158.899C55.5142 165.269 52.4855 171 47.634 174.832C42.7825 178.664 36.5055 180.282 30.184 179.331C25.3772 178.608 20.8441 176.444 17.1502 173.173C15.2083 171.453 15.51 168.509 17.4645 166.966L32.2182 155.313L46.9719 143.661Z" fill="#FFF6E0"/>
<path d="M47.7473 146.263C48.8177 145.528 50.295 145.794 50.9036 146.941C51.8988 148.817 52.5945 150.832 52.9556 152.901C53.2961 154.851 53.3326 156.811 53.0692 158.707C52.8787 160.077 51.4195 160.786 50.1327 160.277L39.7799 156.183C38.0292 155.491 37.7613 153.125 39.3129 152.059L47.7473 146.263Z" fill="#FF7E52"/>
<path d="M33.2248 174.852C33.2594 176.169 32.2001 177.273 30.8922 177.109C28.6932 176.834 26.5455 176.166 24.5523 175.129C22.5337 174.08 20.7189 172.677 19.1919 170.993C18.3198 170.032 18.5816 168.553 19.6414 167.804L29.202 161.042C30.7364 159.956 32.861 161.021 32.9104 162.9L33.2248 174.852Z" fill="#FF7E52"/>
<path d="M47.9868 162.418C49.2658 162.991 49.7697 164.557 48.9103 165.664C47.5824 167.374 45.9749 168.891 44.1557 170.144C42.3361 171.397 40.3443 172.358 38.2722 172.989C36.932 173.397 35.649 172.368 35.5696 170.97L34.9668 160.35C34.8669 158.591 36.6667 157.351 38.2752 158.071L47.9868 162.418Z" fill="#FF7E52"/>
<g filter="url(#filter2_i_3548_51389)">
<path d="M176.716 129.503C177.962 145.206 195.433 177.909 120.436 164.058C45.4393 150.207 73.7394 125.272 80.212 111.68C87.2794 96.8387 106.153 78.8433 135.184 84.2048C164.215 89.5664 175.47 113.799 176.716 129.503Z" fill="#F7E8DE"/>
</g>
<path d="M157.323 90.6992C133.266 75.2965 107.044 82.41 103.086 87.6572C99.128 92.9043 102.448 96.5067 110.512 96.003C118.575 95.4993 128.136 92.2832 131.708 99.9177C135.28 107.552 139.92 109.405 153.408 111.896C166.897 114.387 167.044 124.378 172.469 127.372C177.895 130.366 179.782 123.741 178.71 120.554C177.471 114.679 173.275 100.913 157.323 90.6992Z" fill="url(#paint0_linear_3548_51389)"/>
<g filter="url(#filter3_i_3548_51389)">
<path d="M152.848 42.0459C161.431 55.2544 192.383 75.6682 119.857 99.2571C47.3316 122.846 60.316 87.4333 59.5237 72.3995C58.6585 55.9844 66.6668 31.1667 94.741 22.0355C122.815 12.9044 144.264 28.8374 152.848 42.0459Z" fill="#F6EBFF"/>
</g>
<path d="M96.0782 68.5203C97.4305 68.7619 98.4144 67.4603 97.5529 66.3902C97.5049 66.3305 97.4559 66.2715 97.4061 66.2132C96.7373 65.4307 95.921 64.7876 95.0038 64.3205C94.0865 63.8535 93.0862 63.5717 92.06 63.4913C91.0339 63.4108 90.0019 63.5333 89.023 63.8516C88.0442 64.17 87.1376 64.6781 86.3551 65.3468C85.5726 66.0155 84.9295 66.8318 84.4625 67.7491C83.9954 68.6664 83.7137 69.6666 83.6332 70.6928C83.5282 72.0316 85.144 72.4299 86.1176 71.505C87.4024 70.2845 89.0674 68.9253 90.5196 68.453C92.4796 67.8155 94.1579 68.1773 96.0782 68.5203Z" fill="#303030"/>
<path d="M129.619 57.6121C130.971 57.8537 131.955 56.5521 131.093 55.482C131.045 55.4223 130.996 55.3633 130.947 55.305C130.278 54.5225 129.462 53.8794 128.544 53.4123C127.627 52.9453 126.627 52.6635 125.601 52.5831C124.574 52.5026 123.542 52.6251 122.564 52.9434C121.585 53.2618 120.678 53.7699 119.896 54.4386C119.113 55.1073 118.47 55.9236 118.003 56.8409C117.536 57.7582 117.254 58.7584 117.174 59.7846C117.069 61.1234 118.684 61.5217 119.658 60.5968C120.943 59.3763 122.608 58.0171 124.06 57.5448C126.02 56.9073 127.698 57.2691 129.619 57.6121Z" fill="#303030"/>
<path d="M102.339 22.4313C103.678 26.5479 101.426 30.9705 97.3091 32.3095C93.1925 33.6484 88.7699 31.3966 87.4309 27.28C86.092 23.1634 88.3438 18.7408 92.4604 17.4018C96.577 16.0629 101 18.3147 102.339 22.4313Z" fill="url(#paint1_linear_3548_51389)"/>
<path d="M122.185 20.0973C123.524 24.2139 121.272 28.6365 117.156 29.9755C113.039 31.3144 108.617 29.0626 107.278 24.946C105.939 20.8294 108.19 16.4068 112.307 15.0678C116.424 13.7289 120.846 15.9807 122.185 20.0973Z" fill="url(#paint2_linear_3548_51389)"/>
<path d="M84.9162 32.2184C86.2552 36.335 84.0034 40.7576 79.8868 42.0966C75.7701 43.4355 71.3475 41.1837 70.0086 37.0671C68.6696 32.9505 70.9214 28.5279 75.0381 27.1889C79.1547 25.85 83.5773 28.1018 84.9162 32.2184Z" fill="url(#paint3_linear_3548_51389)"/>
<path d="M103.191 119.011C103.22 117.136 104.765 115.639 106.641 115.669L115.854 115.815C117.729 115.845 119.226 117.39 119.196 119.265C119.166 121.141 117.622 122.637 115.746 122.607L106.533 122.461C104.657 122.431 103.161 120.887 103.191 119.011Z" fill="#303030"/>
<path d="M154.434 131.023C155.186 129.305 154.403 127.302 152.685 126.55L144.245 122.853C142.527 122.101 140.524 122.884 139.771 124.602C139.019 126.32 139.802 128.323 141.52 129.076L149.96 132.772C151.679 133.524 153.681 132.741 154.434 131.023Z" fill="#303030"/>
<defs>
<filter id="filter0_i_3548_51389" x="120.268" y="144.68" width="118.932" height="95.8887" filterUnits="userSpaceOnUse" color-interpolation-filters="sRGB">
<feFlood flood-opacity="0" result="BackgroundImageFix"/>
<feBlend mode="normal" in="SourceGraphic" in2="BackgroundImageFix" result="shape"/>
<feColorMatrix in="SourceAlpha" type="matrix" values="0 0 0 0 0 0 0 0 0 0 0 0 0 0 0 0 0 0 127 0" result="hardAlpha"/>
<feOffset/>
<feGaussianBlur stdDeviation="11.7573"/>
<feComposite in2="hardAlpha" operator="arithmetic" k2="-1" k3="1"/>
<feColorMatrix type="matrix" values="0 0 0 0 0.756657 0 0 0 0 1 0 0 0 0 0.70258 0 0 0 1 0"/>
<feBlend mode="normal" in2="shape" result="effect1_innerShadow_3548_51389"/>
</filter>
<filter id="filter1_i_3548_51389" x="12.9985" y="144.059" width="120.868" height="96.9453" filterUnits="userSpaceOnUse" color-interpolation-filters="sRGB">
<feFlood flood-opacity="0" result="BackgroundImageFix"/>
<feBlend mode="normal" in="SourceGraphic" in2="BackgroundImageFix" result="shape"/>
<feColorMatrix in="SourceAlpha" type="matrix" values="0 0 0 0 0 0 0 0 0 0 0 0 0 0 0 0 0 0 127 0" result="hardAlpha"/>
<feOffset/>
<feGaussianBlur stdDeviation="11.7573"/>
<feComposite in2="hardAlpha" operator="arithmetic" k2="-1" k3="1"/>
<feColorMatrix type="matrix" values="0 0 0 0 1 0 0 0 0 0.819608 0 0 0 0 0.760784 0 0 0 1 0"/>
<feBlend mode="normal" in2="shape" result="effect1_innerShadow_3548_51389"/>
</filter>
<filter id="filter2_i_3548_51389" x="69.6028" y="83.2363" width="109.742" height="84.1621" filterUnits="userSpaceOnUse" color-interpolation-filters="sRGB">
<feFlood flood-opacity="0" result="BackgroundImageFix"/>
<feBlend mode="normal" in="SourceGraphic" in2="BackgroundImageFix" result="shape"/>
<feColorMatrix in="SourceAlpha" type="matrix" values="0 0 0 0 0 0 0 0 0 0 0 0 0 0 0 0 0 0 127 0" result="hardAlpha"/>
<feOffset/>
<feGaussianBlur stdDeviation="9.79771"/>
<feComposite in2="hardAlpha" operator="arithmetic" k2="-1" k3="1"/>
<feColorMatrix type="matrix" values="0 0 0 0 1 0 0 0 0 1 0 0 0 0 1 0 0 0 0.8 0"/>
<feBlend mode="normal" in2="shape" result="effect1_innerShadow_3548_51389"/>
</filter>
<filter id="filter3_i_3548_51389" x="59.0852" y="19.3398" width="107.688" height="87.8027" filterUnits="userSpaceOnUse" color-interpolation-filters="sRGB">
<feFlood flood-opacity="0" result="BackgroundImageFix"/>
<feBlend mode="normal" in="SourceGraphic" in2="BackgroundImageFix" result="shape"/>
<feColorMatrix in="SourceAlpha" type="matrix" values="0 0 0 0 0 0 0 0 0 0 0 0 0 0 0 0 0 0 127 0" result="hardAlpha"/>
<feOffset/>
<feGaussianBlur stdDeviation="9.79771"/>
<feComposite in2="hardAlpha" operator="arithmetic" k2="-1" k3="1"/>
<feColorMatrix type="matrix" values="0 0 0 0 1 0 0 0 0 1 0 0 0 0 1 0 0 0 0.8 0"/>
<feBlend mode="normal" in2="shape" result="effect1_innerShadow_3548_51389"/>
</filter>
<linearGradient id="paint0_linear_3548_51389" x1="137.622" y1="121.289" x2="144.531" y2="83.8782" gradientUnits="userSpaceOnUse">
<stop stop-color="#4F3A2C"/>
<stop offset="1" stop-color="#77523A"/>
</linearGradient>
<linearGradient id="paint1_linear_3548_51389" x1="92.4604" y1="17.4018" x2="97.3091" y2="32.3095" gradientUnits="userSpaceOnUse">
<stop stop-color="#A154F3"/>
<stop offset="1" stop-color="#9027FF"/>
</linearGradient>
<linearGradient id="paint2_linear_3548_51389" x1="112.307" y1="15.0678" x2="117.156" y2="29.9755" gradientUnits="userSpaceOnUse">
<stop stop-color="#A154F3"/>
<stop offset="1" stop-color="#9027FF"/>
</linearGradient>
<linearGradient id="paint3_linear_3548_51389" x1="75.0381" y1="27.1889" x2="79.8868" y2="42.0966" gradientUnits="userSpaceOnUse">
<stop stop-color="#A154F3"/>
<stop offset="1" stop-color="#9027FF"/>
</linearGradient>
</defs>
</svg>
