<svg width="73" height="27" viewBox="0 0 73 27" fill="none" xmlns="http://www.w3.org/2000/svg">
<path d="M65.7369 9.97496C68.4732 6.83261 68.5288 7.20164 68.4843 5.69197C68.4509 4.41714 67.1243 2.91285 65.3142 3.29887C64.2131 3.53371 62.5557 4.40596 62.0552 2.31479C61.766 1.09587 63.3121 0.223617 65.2141 0.0446929C69.1406 -0.324337 72.1883 2.28124 72.3329 5.4795C72.433 7.72723 71.532 8.49884 68.9181 11.6412C67.9059 12.8601 66.6935 14.381 66.7157 15.8123C66.7269 16.6287 66.738 15.8683 66.7714 16.9865C66.8047 18.0042 66.015 18.8429 65.0028 18.8764C64.0017 18.91 63.1675 18.116 63.1341 17.1095C63.1008 16.0136 63.0896 16.6958 63.0452 15.3762C62.9673 13.218 64.5245 11.384 65.7369 9.98614V9.97496Z" fill="url(#paint0_radial_3020_36354)"/>
<path d="M21.9236 19.5581C21.9236 19.2898 21.957 19.0437 22.0126 18.8201C22.0793 18.5964 22.1905 18.3951 22.3685 18.2274C22.5465 18.0597 22.7912 17.9255 23.1137 17.8248C23.4363 17.7242 23.8479 17.6794 24.3373 17.6794H39.3645C39.865 17.6794 40.2766 17.7242 40.588 17.8248C40.9106 17.9255 41.1553 18.0597 41.3333 18.2274C41.5112 18.3951 41.6336 18.5964 41.6892 18.8201C41.7448 19.0437 41.7782 19.2898 41.7782 19.5581C41.7782 19.7706 41.7448 19.9943 41.6892 20.2179C41.6336 20.4416 41.5112 20.6429 41.3333 20.8106C41.1553 20.9784 40.9106 21.1237 40.588 21.2244C40.2655 21.3362 39.8539 21.3809 39.3645 21.3809H34.9752C34.506 21.3809 34.1255 21.7613 34.1255 22.2306V24.4115C34.1255 24.8811 34.0588 25.2613 33.9365 25.5633C33.8141 25.8652 33.6473 26.1112 33.4582 26.2901C33.258 26.4691 33.0355 26.5921 32.7797 26.6704C32.5238 26.7375 32.2458 26.7822 31.9677 26.7822C31.6896 26.7822 31.4115 26.7486 31.1557 26.6704C30.8999 26.6033 30.6663 26.4691 30.4661 26.2901C30.2659 26.1112 30.099 25.8652 29.9878 25.5633C29.8765 25.2613 29.8098 24.8699 29.8098 24.4115V22.2306C29.8098 21.7613 29.4294 21.3809 28.9601 21.3809H24.3484C23.8479 21.3809 23.4363 21.325 23.1249 21.2244C22.8023 21.1125 22.5576 20.9784 22.3796 20.8106C22.2017 20.6429 22.0793 20.4416 22.0237 20.2179C21.957 19.9943 21.9347 19.7706 21.9347 19.5581H21.9236Z" fill="url(#paint1_radial_3020_36354)"/>
<path d="M19.9669 24.3445C19.9669 24.6129 19.9336 24.859 19.878 25.0826C19.8112 25.3063 19.7 25.5075 19.522 25.6753C19.3441 25.843 19.0993 25.9772 18.7768 26.0779C18.4542 26.1785 18.0427 26.2232 17.5532 26.2232H2.50379C2.00325 26.2232 1.5917 26.1785 1.28025 26.0779C0.957684 25.9772 0.712978 25.843 0.535009 25.6753C0.357041 25.5075 0.234687 25.3063 0.179072 25.0826C0.123457 24.859 0.0900879 24.6129 0.0900879 24.3445C0.0900879 24.1321 0.123457 23.9084 0.179072 23.6848C0.234687 23.4611 0.357041 23.2598 0.535009 23.0921C0.712978 22.9243 0.957684 22.779 1.28025 22.6783C1.60282 22.5665 2.01437 22.5218 2.50379 22.5218H7.31779C7.55248 22.5218 7.74273 22.3315 7.74273 22.0968C7.74273 21.6271 7.80947 21.2469 7.93182 20.945C8.05418 20.6431 8.22102 20.397 8.41011 20.2181C8.61033 20.0392 8.83279 19.9162 9.08862 19.8379C9.34445 19.7708 9.62252 19.7261 9.9006 19.7261C10.1787 19.7261 10.4568 19.7596 10.7126 19.8379C10.9684 19.905 11.202 20.0392 11.4022 20.2181C11.6024 20.397 11.7693 20.6431 11.8805 20.945C11.9917 21.2469 12.0585 21.6383 12.0585 22.0968C12.0585 22.3315 12.2487 22.5218 12.4834 22.5218H17.5199C18.0204 22.5218 18.432 22.5777 18.7434 22.6783C19.066 22.7901 19.3107 22.9243 19.4887 23.0921C19.6666 23.2598 19.789 23.4611 19.8446 23.6848C19.9113 23.9084 19.9336 24.1321 19.9336 24.3445H19.9669Z" fill="url(#paint2_radial_3020_36354)"/>
<path d="M50.6097 10.937C50.6097 11.9882 50.5763 16.26 50.4984 17.0204C50.4317 17.7808 50.2649 18.586 50.0201 19.4247C49.8422 19.995 49.6197 20.5653 49.3416 21.1468C49.0636 21.7171 48.7632 22.2539 48.4296 22.7571C48.0959 23.2604 47.7622 23.7077 47.4062 24.1103C47.0503 24.5128 46.7166 24.8371 46.394 25.0943C46.1938 25.2509 45.9825 25.3627 45.7378 25.4186C45.4931 25.4745 45.2484 25.4857 44.9814 25.441C44.7145 25.4186 44.4475 25.3292 44.1806 25.1726C43.9136 25.0161 43.7023 24.7477 43.5354 24.3898C43.3352 23.909 43.313 23.4952 43.4464 23.1374C43.5799 22.7795 43.8024 22.4328 44.1027 22.075C44.4586 21.6612 44.7923 21.2587 45.0926 20.8561C45.393 20.4535 45.6822 19.9838 45.9491 19.4471C46.1827 18.9662 46.3495 18.5077 46.4385 18.0828C46.5386 17.6578 46.6054 17.2217 46.6387 16.7967C46.6721 16.3718 46.6832 15.9245 46.6832 15.4548C46.6832 14.9851 46.6721 11.1047 46.6721 10.5344V4.43684C46.6721 4.12968 46.4231 3.88068 46.116 3.88068C45.6154 3.88068 45.2039 3.82477 44.8924 3.72413C44.5699 3.6123 44.3252 3.47811 44.1472 3.31036C43.9692 3.14262 43.8469 2.94133 43.7912 2.71768C43.7245 2.49403 43.7023 2.27037 43.7023 2.0579C43.7023 1.78951 43.7356 1.54349 43.7912 1.31984C43.858 1.09618 43.9692 0.894894 44.1472 0.727153C44.3252 0.559412 44.5699 0.425219 44.8924 0.324575C45.215 0.22393 45.6265 0.179199 46.116 0.179199H57.4392C57.9397 0.179199 58.3513 0.22393 58.6627 0.324575C58.9742 0.425219 59.23 0.559412 59.408 0.727153C59.586 0.894894 59.7083 1.09618 59.7639 1.31984C59.8307 1.54349 59.8529 1.78951 59.8529 2.0579C59.8529 2.27037 59.8195 2.49403 59.7639 2.71768C59.6972 2.94133 59.586 3.14262 59.408 3.31036C59.23 3.47811 58.9853 3.62348 58.6627 3.72413C58.3402 3.83595 57.9286 3.88068 57.4392 3.88068C57.0706 3.88068 56.7718 4.17948 56.7718 4.54806V16.1817C56.7718 16.8303 56.8274 17.4453 56.9498 18.038C57.061 18.6307 57.2835 19.2122 57.5949 19.7825C57.9064 20.3529 58.3735 20.9455 58.9964 21.5494C59.4747 22.0303 59.8418 22.5111 60.0754 23.0032C60.3201 23.484 60.2756 24.0096 59.953 24.5911C59.5971 25.1838 59.1077 25.4969 58.4848 25.5305C58.2846 25.5305 58.0955 25.5081 57.8953 25.4634C57.695 25.4186 57.5171 25.3292 57.3391 25.1838C56.7385 24.6694 56.2713 24.1662 55.9376 23.6965C55.8748 23.6082 55.8121 23.5171 55.7493 23.4234C55.3732 22.8616 54.5133 22.8683 54.1644 23.4474C54.1249 23.5128 54.0857 23.5772 54.0467 23.6406C53.7575 24.1103 53.3348 24.6247 52.7787 25.1614C52.5784 25.3404 52.3782 25.4634 52.1558 25.5416C51.9333 25.6199 51.6886 25.6535 51.4216 25.6758C51.1324 25.6982 50.8655 25.6311 50.5985 25.4857C50.3316 25.3404 50.098 25.0943 49.9089 24.7365C49.6753 24.3451 49.6308 23.9313 49.7643 23.484C49.8978 23.0479 50.1981 22.5559 50.6542 22.0191C51.2437 21.3258 51.6886 20.6548 51.9889 20.0286C52.2892 19.4023 52.5006 18.7761 52.6341 18.1387C52.7564 17.5013 52.8231 16.8638 52.8343 16.2041C52.8343 15.5555 52.8454 11.4849 52.8454 10.7357V4.73036C52.8454 4.2611 52.465 3.88068 51.9957 3.88068H51.5038C51.0346 3.88068 50.6542 4.2611 50.6542 4.73036V10.937H50.6097Z" fill="url(#paint3_radial_3020_36354)"/>
<path d="M65.0002 25.7028C66.408 25.7028 67.5492 24.5616 67.5492 23.1538C67.5492 21.746 66.408 20.6047 65.0002 20.6047C63.5924 20.6047 62.4512 21.746 62.4512 23.1538C62.4512 24.5616 63.5924 25.7028 65.0002 25.7028Z" fill="url(#paint4_radial_3020_36354)"/>
<path d="M16.2903 0C18.1673 0 19.6896 1.52146 19.6897 3.39844V15.792C19.6897 17.669 18.1673 19.1904 16.2903 19.1904H3.48853C1.61171 19.1902 0.0901066 17.6689 0.0900879 15.792V3.39844C0.0901819 1.52163 1.61175 0.000259897 3.48853 0H16.2903ZM6.2981 4.08301C5.12504 4.08301 4.17327 5.03402 4.1731 6.20703V12.9834C4.1731 14.1566 5.12494 15.1074 6.2981 15.1074H13.4817C14.6548 15.1074 15.6067 14.1566 15.6067 12.9834V6.20703C15.6065 5.03402 14.6547 4.08301 13.4817 4.08301H6.2981Z" fill="url(#paint5_radial_3020_36354)"/>
<path d="M39.085 0.072998C40.7273 0.072998 42.0594 1.40432 42.0596 3.04663V12.8181C42.0596 14.4605 40.7274 15.7917 39.085 15.7917H25.0654C23.4231 15.7916 22.0918 14.4605 22.0918 12.8181V3.04663C22.0919 1.4044 23.4232 0.0731244 25.0654 0.072998H39.085ZM27.8271 4.32104C27.0059 4.32104 26.3399 4.98715 26.3398 5.80835V10.0564C26.3398 10.8776 27.0059 11.5437 27.8271 11.5437H36.3242C37.1452 11.5434 37.8105 10.8775 37.8105 10.0564V5.80835C37.8105 4.9873 37.1452 4.3213 36.3242 4.32104H27.8271Z" fill="url(#paint6_radial_3020_36354)"/>
<defs>
<radialGradient id="paint0_radial_3020_36354" cx="0" cy="0" r="1" gradientUnits="userSpaceOnUse" gradientTransform="translate(67.1803 9.4436) rotate(90) scale(13.2844 6.81577)">
<stop offset="0.432042" stop-color="#FF4F14"/>
<stop offset="1" stop-color="#FF7E52"/>
</radialGradient>
<radialGradient id="paint1_radial_3020_36354" cx="0" cy="0" r="1" gradientUnits="userSpaceOnUse" gradientTransform="translate(31.8509 22.2308) rotate(90) scale(6.40908 13.1128)">
<stop offset="0.432042" stop-color="#FF4F14"/>
<stop offset="1" stop-color="#FF7E52"/>
</radialGradient>
<radialGradient id="paint2_radial_3020_36354" cx="0" cy="0" r="1" gradientUnits="userSpaceOnUse" gradientTransform="translate(10.0285 22.9747) rotate(90) scale(4.57454 13.1275)">
<stop offset="0.432042" stop-color="#FF4F14"/>
<stop offset="1" stop-color="#FF7E52"/>
</radialGradient>
<radialGradient id="paint3_radial_3020_36354" cx="0" cy="0" r="1" gradientUnits="userSpaceOnUse" gradientTransform="translate(51.7969 12.9296) rotate(90) scale(17.9547 11.1411)">
<stop offset="0.432042" stop-color="#FF4F14"/>
<stop offset="1" stop-color="#FF7E52"/>
</radialGradient>
<radialGradient id="paint4_radial_3020_36354" cx="0" cy="0" r="1" gradientUnits="userSpaceOnUse" gradientTransform="translate(65.0002 23.1538) rotate(90) scale(3.58945 3.36696)">
<stop offset="0.432042" stop-color="#FF4F14"/>
<stop offset="1" stop-color="#FF7E52"/>
</radialGradient>
<radialGradient id="paint5_radial_3020_36354" cx="0" cy="0" r="1" gradientUnits="userSpaceOnUse" gradientTransform="translate(9.88989 9.59521) rotate(90) scale(13.5116 12.9444)">
<stop offset="0.432042" stop-color="#FF4F14"/>
<stop offset="1" stop-color="#FF7E52"/>
</radialGradient>
<radialGradient id="paint6_radial_3020_36354" cx="0" cy="0" r="1" gradientUnits="userSpaceOnUse" gradientTransform="translate(32.0757 7.93237) rotate(90) scale(11.0673 13.1875)">
<stop offset="0.432042" stop-color="#FF4F14"/>
<stop offset="1" stop-color="#FF7E52"/>
</radialGradient>
</defs>
</svg>
