<svg width="100" height="100" viewBox="0 0 100 100" fill="none" xmlns="http://www.w3.org/2000/svg">
  <!-- Envelope body: inset(24% 12.37% 24% 13%) in 100x100 container -->
  <g transform="translate(13, 24)">
    <path d="M73.5238 1.97201C72.438 4.17152 69.3336 9.2666 66.6051 12.3292C61.9416 17.5357 43.8583 30.1481 41.3803 32.0692C38.9163 33.9903 36.7168 32.0692 35.1994 32.0692C33.6821 32.0692 11.7705 16.9928 6.84247 13.9719C1.91445 10.951 1.05135 7.76314 1.05135 7.76314C0.800777 8.65408 0.661568 9.71208 0.591963 10.965C0.591963 10.965 -2.20615 48.8022 4.36454 50.4449C10.9491 52.0876 58.6423 52.9089 68.5123 50.4449C76.9066 48.3428 74.5679 12.1761 73.5099 1.98593L73.5238 1.97201Z" fill="#B8BEC8"/>
    <path d="M72.6454 1.08122C72.6454 1.08122 72.7707 2.13921 72.9656 3.93502C73.7312 2.38979 73.8148 1.29003 72.6454 1.08122Z" fill="#D0D1D3"/>
    <path d="M6.84248 13.972C11.7705 16.9929 33.6821 32.0693 35.1995 32.0693C36.7168 32.0693 38.9164 33.9904 41.3804 32.0693C43.8444 30.1482 61.9416 17.5358 66.6051 12.3294C69.3336 9.28066 71.8533 6.14843 72.9531 3.94892C72.7721 2.15311 72.6329 1.09512 72.6329 1.09512C72.6329 1.09512 64.3917 -1.3689 35.1995 1.09512C9.73803 3.25287 2.74972 1.65196 1.05136 7.76327C1.05136 7.76327 1.90054 10.9651 6.84248 13.972Z" fill="#E1E4E8"/>
  </g>
  <!-- Decorative swooshes: inset(12% 1.92% 74.51% 81%) in 100x100 container -->
  <g transform="translate(81, 12)">
    <path d="M8.79672 13.4927C11.3561 13.0936 13.9507 12.7766 16.4279 11.9782C17.5667 11.6143 17.1088 9.85325 15.9348 10.1702C13.4341 10.8512 11.0039 11.7317 8.468 12.26C7.65792 12.4361 8.01013 13.6101 8.79672 13.481V13.4927Z" fill="#FF4F14"/>
    <path d="M6.87119 9.82983C7.98651 7.99836 8.76136 6.07296 9.0666 3.94798C9.23097 2.76221 7.46994 2.21042 7.21165 3.44315C6.81249 5.42725 6.29591 7.38786 5.55628 9.2663C5.25103 10.0412 6.47202 10.499 6.87119 9.81809V9.82983Z" fill="#FF4F14"/>
    <path d="M2.44465 9.41879C2.72641 6.65984 2.2568 3.65434 1.9046 0.907125C1.75197 -0.266898 -0.079498 -0.337339 0.00268365 0.907125C0.178787 3.72478 0.307922 6.85942 1.14148 9.58316C1.37628 10.3463 2.37421 10.1349 2.45639 9.40705L2.44465 9.41879Z" fill="#FF4F14"/>
  </g>
</svg>
