<svg width="64" height="51" viewBox="0 0 64 51" fill="none" xmlns="http://www.w3.org/2000/svg">
<path d="M0 12.0967V41.4727C0 43.5169 0.739584 45.3693 1.92672 46.8502L22.2566 30.645L0 12.0967Z" fill="#D0D5DA"/>
<path d="M62.0116 46.8502C63.1987 45.371 63.9383 43.5169 63.9383 41.4727V12.0967L41.6816 30.6433L62.0116 46.8502Z" fill="#D0D5DA"/>
<path d="M45.0851 25.7548L35.334 35.2415C36.2118 34.9028 37.0654 34.4484 37.8551 33.8349L41.6844 30.6433L63.941 12.0967L45.5344 24.7785C45.3979 25.1033 45.2579 25.4282 45.0851 25.7548Z" fill="#AFB7C0"/>
<path d="M25.8837 33.6656C23.2589 31.5038 20.4371 28.7304 18.8559 25.7531C18.6831 25.4282 18.5432 25.1016 18.4067 24.7767L0 12.0967L22.2566 30.6433L25.8837 33.6656Z" fill="#AFB7C0"/>
<path d="M37.8509 33.8352C37.0612 34.4469 36.2076 34.9013 35.3297 35.2418L33.4341 37.0855C32.5425 37.6748 31.3934 37.6748 30.5017 37.0855C29.3578 36.3304 27.6643 35.1346 25.8828 33.6658L22.2557 30.6436L1.92578 46.8487C3.50863 48.8221 5.91228 50.1112 8.63906 50.1112H55.2951C58.0218 50.1112 60.4255 48.8221 62.0083 46.8487L41.6784 30.6436L37.8509 33.8352Z" fill="#E5E9EE"/>
<path d="M55.296 0H8.64C3.86899 0 0 3.86899 0 8.64V12.096L18.4067 24.7778C15.7784 18.5276 19.7355 12.585 24.8988 12.585C27.9953 12.585 29.8598 14.2024 30.8897 15.5935C31.4323 16.3261 32.5054 16.3261 33.048 15.5935C34.0779 14.2024 35.9424 12.585 39.039 12.585C44.2022 12.585 48.1576 18.5276 45.5311 24.7778L63.9377 12.096V8.64C63.9377 3.86899 60.067 0 55.296 0Z" fill="#E5E9EE"/>
<path d="M18.8527 25.7543C20.4338 28.7299 23.2556 31.5033 25.8805 33.6668C27.662 35.1356 29.3555 36.3296 30.4994 37.0865C31.3911 37.6757 32.5402 37.6757 33.4318 37.0865L35.3275 35.2427L45.0786 25.756C45.2514 25.4311 45.3913 25.1045 45.5278 24.7797C48.1561 18.5295 44.199 12.5869 39.0357 12.5869C35.9392 12.5869 34.0747 14.2043 33.0448 15.5954C32.5022 16.328 31.4291 16.328 30.8865 15.5954C29.8566 14.2043 27.9921 12.5869 24.8955 12.5869C19.7323 12.5869 15.7769 18.5295 18.4034 24.7797C18.5399 25.1045 18.6799 25.4294 18.8527 25.756V25.7543Z" fill="#EC4452"/>
</svg>
