<svg width="146" height="45" viewBox="0 0 146 45" fill="none" xmlns="http://www.w3.org/2000/svg">
<path d="M18.3602 19.26C20.0802 19.3 21.7002 19.66 23.2202 20.34C24.7402 20.98 26.0602 21.88 27.1802 23.04C28.3002 24.16 29.1802 25.48 29.8202 27C30.4602 28.48 30.7802 30.1 30.7802 31.86C30.7802 33.7 30.4202 35.4 29.7002 36.96C29.0202 38.52 28.0802 39.86 26.8802 40.98C25.6802 42.06 24.2802 42.92 22.6802 43.56C21.0802 44.16 19.3802 44.46 17.5802 44.46H11.7602C10.4402 44.46 9.08024 44.16 7.68024 43.56C6.28024 42.92 5.00024 42.04 3.84024 40.92C2.72024 39.76 1.80024 38.38 1.08024 36.78C0.360243 35.18 0.0202433 33.38 0.0602432 31.38C0.0602432 31.3 0.0602432 31.06 0.0602432 30.66C0.100243 30.26 0.120243 30.02 0.120243 29.94H7.56024C7.56024 29.98 7.54024 30.08 7.50024 30.24C7.50024 30.4 7.48024 30.58 7.44024 30.78C7.44024 30.94 7.42024 31.1 7.38024 31.26C7.38024 31.38 7.38024 31.46 7.38024 31.5C7.38024 32.22 7.50024 32.92 7.74024 33.6C8.02024 34.24 8.38024 34.84 8.82024 35.4C9.30024 35.92 9.86024 36.34 10.5002 36.66C11.1802 36.98 11.9002 37.14 12.6602 37.14H18.3002C19.1002 37.14 19.8202 36.98 20.4602 36.66C21.1002 36.34 21.6402 35.94 22.0802 35.46C22.5602 34.94 22.9202 34.36 23.1602 33.72C23.4002 33.08 23.5202 32.46 23.5202 31.86C23.5202 30.86 23.3002 30.02 22.8602 29.34C22.4602 28.66 21.9802 28.12 21.4202 27.72C20.8602 27.28 20.2802 26.98 19.6802 26.82C19.0802 26.62 18.6202 26.54 18.3002 26.58H12.3602C10.6802 26.58 9.10024 26.24 7.62024 25.56C6.14024 24.88 4.84024 23.98 3.72024 22.86C2.60024 21.7 1.70024 20.38 1.02024 18.9C0.380243 17.38 0.0602432 15.8 0.0602432 14.16C0.0602432 12.4 0.400243 10.76 1.08024 9.23996C1.76024 7.67996 2.66024 6.31996 3.78024 5.15996C4.94024 3.99996 6.28024 3.09996 7.80024 2.45996C9.36024 1.77996 10.9802 1.43996 12.6602 1.43996H18.2402C19.9602 1.43996 21.6002 1.77996 23.1602 2.45996C24.7202 3.09996 26.0802 4.01996 27.2402 5.21996C28.4402 6.41996 29.3602 7.83996 30.0002 9.47996C30.6802 11.12 30.9802 12.94 30.9002 14.94H23.5802C23.4202 13.18 22.9202 11.72 22.0802 10.56C21.2802 9.35996 20.0002 8.75996 18.2402 8.75996H12.6602C11.2202 8.75996 9.98024 9.27996 8.94024 10.32C7.90024 11.32 7.38024 12.54 7.38024 13.98C7.38024 14.82 7.52024 15.54 7.80024 16.14C8.08024 16.74 8.44024 17.26 8.88024 17.7C9.32024 18.1 9.82024 18.42 10.3802 18.66C10.9402 18.9 11.5002 19.1 12.0602 19.26H18.3602ZM51.1733 20.58C51.2533 19.3 50.8533 18.24 49.9733 17.4C49.1333 16.56 48.0133 16.14 46.6133 16.14C46.3733 16.14 46.0133 16.2 45.5333 16.32C45.0533 16.4 44.5533 16.56 44.0333 16.8C43.5133 17.04 43.0533 17.4 42.6533 17.88C42.2933 18.32 42.1133 18.9 42.1133 19.62C42.1133 20.58 42.5533 21.4 43.4333 22.08C44.3533 22.76 45.4133 23.1 46.6133 23.1C48.0533 23.1 49.4533 23.34 50.8133 23.82C52.2133 24.3 53.4533 25 54.5333 25.92C55.6133 26.84 56.5133 28.02 57.2333 29.46C57.9533 30.9 58.3133 32.34 58.3133 33.78C58.3133 35.38 57.9733 36.84 57.2933 38.16C56.6533 39.44 55.7933 40.56 54.7133 41.52C53.6333 42.44 52.3733 43.16 50.9333 43.68C49.5333 44.2 48.0733 44.46 46.5533 44.46C45.5933 44.46 44.5733 44.34 43.4933 44.1C42.4533 43.82 41.5133 43.46 40.6733 43.02C38.7533 41.98 37.2733 40.58 36.2333 38.82C35.1933 37.02 34.7133 35.02 34.7933 32.82H41.9933C41.9533 34.14 42.3333 35.22 43.1333 36.06C43.9733 36.86 45.1133 37.26 46.5533 37.26C47.7133 37.26 48.7533 36.96 49.6733 36.36C50.5933 35.72 51.0533 34.86 51.0533 33.78C51.0533 33.18 50.8933 32.68 50.5733 32.28C50.2933 31.84 49.9333 31.48 49.4933 31.2C49.0533 30.88 48.5533 30.66 47.9933 30.54C47.4733 30.38 46.9933 30.3 46.5533 30.3C45.0733 30.3 43.6333 30.04 42.2333 29.52C40.8333 29 39.5733 28.28 38.4533 27.36C37.3733 26.4 36.4933 25.26 35.8133 23.94C35.1733 22.62 34.8533 21.18 34.8533 19.62C34.8533 18.02 35.1733 16.56 35.8133 15.24C36.4933 13.92 37.3733 12.8 38.4533 11.88C39.5333 10.92 40.7733 10.18 42.1733 9.65996C43.6133 9.13996 45.0733 8.87996 46.5533 8.87996C48.0333 8.87996 49.4933 9.13996 50.9333 9.65996C52.3733 10.18 53.6533 10.94 54.7733 11.94C55.8933 12.94 56.7933 14.16 57.4733 15.6C58.1533 17.04 58.4533 18.7 58.3733 20.58H51.1733ZM79.9148 8.45996C82.3948 8.45996 84.7148 8.93996 86.8748 9.89996C89.0748 10.82 90.9748 12.1 92.5748 13.74C94.2148 15.34 95.4948 17.24 96.4148 19.44C97.3748 21.6 97.8548 23.92 97.8548 26.4C97.8548 28.88 97.3748 31.22 96.4148 33.42C95.4948 35.62 94.2148 37.54 92.5748 39.18C90.9748 40.82 89.0748 42.12 86.8748 43.08C84.7148 44.04 82.3948 44.52 79.9148 44.52C77.4348 44.52 75.0948 44.04 72.8948 43.08C70.7348 42.12 68.8348 40.82 67.1948 39.18C65.5948 37.54 64.3148 35.62 63.3548 33.42C62.4348 31.22 61.9748 28.88 61.9748 26.4C61.9748 23.92 62.4348 21.6 63.3548 19.44C64.3148 17.24 65.5948 15.34 67.1948 13.74C68.8348 12.1 70.7348 10.82 72.8948 9.89996C75.0948 8.93996 77.4348 8.45996 79.9148 8.45996ZM90.5948 26.46C90.5948 25.02 90.2948 23.66 89.6948 22.38C89.1348 21.06 88.3548 19.92 87.3548 18.96C86.3948 17.96 85.2748 17.18 83.9948 16.62C82.7148 16.06 81.3748 15.78 79.9748 15.78C78.1348 15.78 76.5348 16.16 75.1748 16.92C73.8148 17.64 72.6748 18.54 71.7548 19.62C70.8748 20.7 70.2148 21.86 69.7748 23.1C69.3748 24.3 69.1948 25.4 69.2348 26.4C69.1948 27.4 69.3748 28.52 69.7748 29.76C70.1748 31 70.8148 32.16 71.6948 33.24C72.5748 34.32 73.6948 35.24 75.0548 36C76.4148 36.72 78.0348 37.08 79.9148 37.08C81.4748 37.08 82.8948 36.8 84.1748 36.24C85.4948 35.64 86.6148 34.86 87.5348 33.9C88.4948 32.9 89.2348 31.76 89.7548 30.48C90.3148 29.2 90.5948 27.86 90.5948 26.46ZM102.061 44.46V-4.24385e-05H109.381V44.46H102.061ZM120.124 8.93996L129.124 32.88L138.244 8.87996H145.984L132.484 44.46H125.824L112.384 8.87996L120.124 8.93996Z" fill="#FF4F14"/>
</svg>
