<svg width="20" height="20" viewBox="0 0 20 20" fill="none" xmlns="http://www.w3.org/2000/svg">
<g clip-path="url(#clip0_2729_32385)">
<path d="M4.4999 12.1947L4.5044 2.2167V2.2152V2.2137V2.1797H4.5079C4.5279 1.3142 5.2329 0.617204 6.1029 0.616704C6.9729 0.616204 7.6769 1.3122 7.6959 2.1777H7.6994L7.6964 8.2512L9.4399 1.7562L9.4544 1.7602C9.7019 0.923204 10.5679 0.423704 11.4079 0.643704C12.2584 0.866204 12.7574 1.7407 12.5229 2.5967C12.5179 2.6147 12.5089 2.6302 12.5034 2.6477L11.9339 4.7682L11.4239 6.6682L11.4219 6.6752C11.4759 6.6737 11.5289 6.6682 11.5829 6.6682C13.6279 6.6682 15.7959 7.4047 16.8669 9.7852C17.1234 10.3557 17.2104 11.0547 16.6564 11.4082C16.1859 11.7087 15.5039 11.6382 15.1104 11.1762C14.6559 10.6427 13.7274 9.3432 12.5259 9.3432C11.3244 9.3432 10.2824 10.0737 10.2824 11.7807C10.2824 13.3212 12.6319 14.7342 14.6109 12.7172L14.6154 12.7207C14.6364 12.6922 14.6524 12.6617 14.6759 12.6347C15.1479 12.0922 15.9704 12.0357 16.5134 12.5082C17.0564 12.9807 17.1144 13.8032 16.6424 14.3457C15.0859 16.4497 13.3929 18.5007 9.6084 18.5007C6.7864 18.5007 4.4989 16.2132 4.4989 13.3912V12.1952L4.4999 12.1947Z" fill="#FFC84D"/>
</g>
<defs>
<clipPath id="clip0_2729_32385">
<rect width="20" height="20" fill="white" transform="matrix(-1 0 0 1 20 0)"/>
</clipPath>
</defs>
</svg>
