<svg width="22" height="21" viewBox="0 0 22 21" fill="none" xmlns="http://www.w3.org/2000/svg">
<path d="M11.0754 9.42603C10.9974 9.33663 10.9248 9.24723 10.851 9.15723C10.8492 9.21243 10.8444 9.27063 10.8408 9.32763C10.9206 9.35463 10.9974 9.39063 11.0754 9.42603Z" fill="#FF9C00"/>
<path d="M18.5283 12.5202C18.7473 13.6542 18.4179 14.8728 17.5401 15.7506C16.9605 16.3302 16.2303 16.6572 15.4761 16.7586C16.5945 16.7694 17.5749 16.4712 18.2973 15.8244C18.3417 15.7842 18.3921 15.7518 18.4347 15.7092C19.2939 14.85 19.6071 13.5786 19.4505 12.126C19.3707 12.177 19.2885 12.228 19.1925 12.276C18.9807 12.3822 18.7569 12.4596 18.5283 12.5202Z" fill="#FF9C00"/>
<path d="M3.80859 4.24751C3.83439 4.23491 3.85479 4.21631 3.88119 4.20431C4.07139 4.11551 4.26699 4.05371 4.46379 4.00931C4.91079 3.05411 5.95899 1.16531 7.13199 1.50671C7.25979 1.54391 7.37319 1.60691 7.47999 1.67951C7.77879 1.38851 8.13339 1.19111 8.50959 1.08371C7.00899 0.897114 5.69259 1.20311 4.81119 2.08451C4.76859 2.12711 4.73559 2.17751 4.69599 2.22191C4.20759 2.76671 3.91839 3.45971 3.80919 4.24691L3.80859 4.24751Z" fill="#FF9C00"/>
<path d="M20.9587 7.26218C20.2051 6.03758 17.7565 6.08498 17.7565 6.08498C17.7565 6.08498 18.4393 5.07278 17.0269 4.03658C16.4185 3.59018 15.7057 3.59918 15.0913 3.75218C15.5659 3.83498 16.0213 4.04438 16.3879 4.41098C17.3425 5.36558 17.3425 6.91298 16.3879 7.86758C16.3543 7.90118 16.3153 7.92398 16.2805 7.95518C16.9999 8.93738 17.4457 9.90638 17.5777 10.7074C18.0805 11.227 18.4009 11.8576 18.5287 12.5206C18.7573 12.46 18.9811 12.382 19.1929 12.2758C19.2889 12.2278 19.3711 12.1768 19.4509 12.1258C20.9401 11.1694 19.7587 9.68678 19.7587 9.68678C19.7587 9.68678 21.7123 8.48558 20.9587 7.26098V7.26218Z" fill="#036D50"/>
<path d="M7.65467 5.57817C7.93907 6.18777 7.98647 6.84597 7.83827 7.45257C8.25047 7.67037 8.60087 8.01117 8.81267 8.46597C8.94647 8.75337 9.00947 9.05457 9.01547 9.35277C9.60347 9.13737 10.2491 9.12717 10.8407 9.32817C10.8443 9.27117 10.8491 9.21297 10.8509 9.15777C10.8713 8.54517 10.7933 8.02317 10.6523 7.57977C10.3121 7.64097 9.96347 7.62537 9.63107 7.49697C8.53007 7.07157 8.03927 5.68677 8.53547 4.40337C8.54387 4.38177 8.55467 4.36017 8.56367 4.33857C8.47607 3.44337 8.21867 2.18217 7.48007 1.67937C7.37327 1.60677 7.25987 1.54377 7.13207 1.50657C5.95907 1.16517 4.91087 3.05397 4.46387 4.00917C5.73707 3.72417 7.08047 4.34696 7.65467 5.57757V5.57817Z" fill="#036D50"/>
<path d="M9.63109 7.49747C9.96349 7.62587 10.3121 7.64147 10.6523 7.58027C11.4395 7.43867 12.1763 6.84047 12.5225 5.94467C13.0181 4.66187 12.7307 2.75087 11.6297 2.32547C10.5473 1.90727 9.08449 3.08027 8.56369 4.33907C8.55469 4.36067 8.54389 4.38227 8.53549 4.40387C8.03989 5.68667 8.53069 7.07207 9.63109 7.49747ZM9.26209 4.68467C9.52549 4.00367 10.2911 3.66467 10.9721 3.92807C11.6531 4.19087 11.9921 4.95707 11.7287 5.63807C11.4653 6.31907 10.6997 6.65807 10.0187 6.39467C9.33769 6.13127 8.99869 5.36567 9.26149 4.68467H9.26209Z" fill="#FFFEFA"/>
<path d="M12.4519 10.6623C12.4351 10.6791 12.4249 10.6989 12.4087 10.7157C12.5341 10.9779 12.6151 11.2557 12.6541 11.5389C12.8461 11.5599 13.0369 11.5965 13.2241 11.6493C13.2577 11.6109 13.2841 11.5677 13.3207 11.5311C14.2465 10.6059 15.7471 10.6059 16.6723 11.5311C17.5975 12.4563 17.5975 13.9569 16.6723 14.8827C16.4011 15.1539 16.0783 15.3357 15.7369 15.4479C15.6817 15.9021 15.5383 16.3425 15.3055 16.7511C15.3625 16.7529 15.4207 16.7583 15.4771 16.7589C16.2313 16.6575 16.9615 16.3311 17.5411 15.7509C18.4189 14.8731 18.7483 13.6545 18.5293 12.5205C18.4015 11.8581 18.0811 11.2269 17.5783 10.7073C17.5645 10.6929 17.5555 10.6761 17.5417 10.6623C16.1365 9.2571 13.8583 9.2571 12.4531 10.6623H12.4519Z" fill="#D12030"/>
<path d="M15.7369 15.4476C16.0777 15.3354 16.4011 15.1536 16.6723 14.8824C17.5975 13.9572 17.5975 12.4566 16.6723 11.5308C15.7465 10.6056 14.2459 10.6056 13.3207 11.5308C13.2841 11.5674 13.2583 11.6106 13.2241 11.649C13.7833 11.8056 14.3113 12.1032 14.7511 12.543C15.5443 13.3362 15.8635 14.4144 15.7369 15.4476Z" fill="#F56570"/>
<path d="M17.5424 10.6597C17.5544 10.6777 17.5664 10.6957 17.5784 10.7077C17.4464 9.90368 17.0024 8.93768 16.2824 7.95368C16.3124 7.92368 16.3544 7.89968 16.3904 7.86968C17.3444 6.90968 17.3444 5.36168 16.3904 4.40768C16.0244 4.04168 15.5684 3.83168 15.0944 3.75368C15.0104 3.73568 14.9324 3.71768 14.8544 3.71168C15.2504 2.81768 15.0824 1.73768 14.3504 0.99968C13.3964 0.0456797 11.8484 0.0456797 10.8944 0.99968C10.7684 1.13168 10.6604 1.26968 10.5644 1.41368C9.95243 0.99368 9.19643 0.88568 8.51243 1.08368C8.13443 1.19168 7.78043 1.38968 7.48043 1.67768C8.21843 2.18168 8.47643 3.44168 8.56643 4.34168C9.08243 3.08168 10.5464 1.90568 11.6324 2.32568C12.7304 2.75168 13.0184 4.65968 12.5204 5.94368C12.1784 6.83768 11.4404 7.43768 10.6544 7.58168C10.7924 8.02568 10.8704 8.54768 10.8524 9.15968C10.9244 9.24968 10.9964 9.33968 11.0744 9.42368C10.9964 9.39368 10.9184 9.35768 10.8404 9.32768C10.2524 9.12368 9.60443 9.13568 9.01643 9.35168C9.01043 9.05168 8.94443 8.75168 8.81243 8.46368C8.60243 8.00768 8.24843 7.67168 7.84043 7.44968C7.98443 6.84368 7.94243 6.18968 7.65443 5.57768C7.07843 4.34768 5.74043 3.72368 4.46243 4.01168C4.27043 4.05368 4.07243 4.11368 3.88043 4.20368C3.85643 4.21568 3.83243 4.23368 3.80843 4.24568C3.47243 6.68768 4.88843 10.0537 7.67843 12.8437C7.78043 12.9457 7.88843 13.0417 7.99643 13.1437C10.3664 15.3877 13.0904 16.6657 15.3044 16.7497C15.5384 16.3417 15.6824 15.9037 15.7364 15.4477C15.8624 14.4157 15.5444 13.3357 14.7524 12.5437C14.3084 12.1057 13.7804 11.8057 13.2224 11.6497C13.0364 11.5957 12.8444 11.5597 12.6524 11.5357C12.6164 11.2537 12.5324 10.9777 12.4064 10.7137C12.4244 10.6957 12.4364 10.6777 12.4544 10.6597C13.8584 9.25568 16.1384 9.25568 17.5424 10.6597ZM14.6084 7.59368L14.7524 7.31168C14.8604 7.10168 15.1124 7.02368 15.3224 7.12568L15.6044 7.27568C15.8144 7.37768 15.8924 7.63568 15.7844 7.84568L15.6404 8.12168C15.5384 8.33168 15.2804 8.41568 15.0704 8.30768L14.7884 8.16368C14.5844 8.05568 14.5004 7.80368 14.6084 7.59368ZM11.6984 9.90968C11.4764 9.98768 11.2364 9.86768 11.1584 9.64568L11.0864 9.42968L11.0564 9.34568C10.9784 9.12368 11.0984 8.88368 11.3144 8.81168L11.6144 8.70368C11.8364 8.63168 12.0764 8.74568 12.1544 8.96768L12.2564 9.26768C12.3344 9.48968 12.2204 9.72968 11.9984 9.80768L11.7764 9.87968L11.6984 9.90968Z" fill="#23B169"/>
<path d="M10.0188 6.3938C10.6998 6.6572 11.4654 6.3182 11.7288 5.6372C11.9922 4.9562 11.6532 4.19 10.9722 3.9272C10.2912 3.6638 9.52556 4.0028 9.26216 4.6838C8.99876 5.3648 9.33716 6.1304 10.0188 6.3938Z" fill="#FFD900"/>
<path d="M14.7513 7.31224L14.6072 7.59367C14.5005 7.8019 14.5829 8.05715 14.7911 8.1638L15.0725 8.30793C15.2808 8.41458 15.536 8.33222 15.6427 8.124L15.7868 7.84256C15.8934 7.63433 15.8111 7.37908 15.6029 7.27244L15.3214 7.1283C15.1132 7.02166 14.8579 7.10401 14.7513 7.31224Z" fill="#FFD900"/>
<path d="M11.1587 9.64618C11.2355 9.86698 11.4761 9.98458 11.6975 9.90778L11.7749 9.88078L11.9963 9.80398C12.2171 9.72718 12.3347 9.48598 12.2579 9.26518L12.1541 8.96578C12.0773 8.74498 11.8367 8.62738 11.6153 8.70418L11.3159 8.80798C11.0951 8.88418 10.9775 9.12538 11.0543 9.34678L11.0825 9.42898L11.1575 9.64618H11.1587Z" fill="#FFD900"/>
<path d="M15.477 16.759C15.4206 16.759 15.3624 16.7536 15.3054 16.7512C13.0884 16.6684 10.3638 15.3904 7.99681 13.144C7.89061 13.0432 7.78201 12.9472 7.67761 12.8428C4.88821 10.0534 3.46981 6.68982 3.80881 4.24722C3.91801 3.46002 4.20721 2.76702 4.69561 2.22222C4.70641 2.19762 4.71301 2.18262 4.71301 2.18262L2.96701 3.92862C-0.794992 7.69122 -0.794992 13.7908 2.96701 17.5528C6.72901 21.3148 12.8292 21.3148 16.5912 17.5528L18.3372 15.8068C18.3372 15.8068 18.3222 15.814 18.2976 15.8242C17.5752 16.471 16.5948 16.7692 15.4764 16.7584L15.477 16.759Z" fill="#FFC450"/>
</svg>
