<svg width="24" height="24" viewBox="0 0 24 24" fill="none" xmlns="http://www.w3.org/2000/svg">
<g clip-path="url(#clip0_685_2356)">
<path d="M11.9999 22.2337C16.2895 22.2337 19.7669 20.2195 19.7669 17.7349C19.7669 15.2503 16.2895 13.2361 11.9999 13.2361C7.71031 13.2361 4.23291 15.2503 4.23291 17.7349C4.23291 20.2195 7.71031 22.2337 11.9999 22.2337Z" fill="#BABABA"/>
<path d="M12.0001 20.8319C18.1281 20.8319 23.0959 17.9544 23.0959 14.4047C23.0959 10.8551 18.1281 7.97754 12.0001 7.97754C5.87206 7.97754 0.904297 10.8551 0.904297 14.4047C0.904297 17.9544 5.87206 20.8319 12.0001 20.8319Z" fill="#D9D9D9"/>
<path d="M12.0002 19.7238C16.6238 19.7238 20.372 17.5527 20.372 14.8746C20.372 12.1965 16.6238 10.0254 12.0002 10.0254C7.3766 10.0254 3.62842 12.1965 3.62842 14.8746C3.62842 17.5527 7.3766 19.7238 12.0002 19.7238Z" fill="#EC4F00"/>
<path d="M15.9041 17.4556C15.7715 17.4556 15.6509 17.3674 15.6149 17.2336C14.9993 14.9368 12.6287 13.5658 10.3325 14.1838C10.1735 14.224 10.0079 14.1316 9.96527 13.9714C9.92267 13.8112 10.0175 13.6474 10.1777 13.6042C12.7931 12.9058 15.4937 14.4622 16.1951 17.0782C16.2377 17.239 16.1429 17.4028 15.9827 17.446C15.9569 17.4526 15.9305 17.4562 15.9047 17.4562L15.9041 17.4556Z" fill="#FFAD00"/>
<path d="M15.013 17.6945C14.8804 17.6945 14.7592 17.6063 14.7238 17.4725C14.4898 16.5989 13.9282 15.8681 13.1434 15.4145C12.358 14.9615 11.4442 14.8391 10.5712 15.0749C10.4122 15.1151 10.2466 15.0221 10.204 14.8625C10.1614 14.7017 10.2562 14.5379 10.4164 14.4947C11.4442 14.2211 12.5194 14.3609 13.4434 14.8949C14.3674 15.4289 15.028 16.2887 15.3034 17.3165C15.346 17.4773 15.2512 17.6411 15.091 17.6843C15.0652 17.6909 15.0388 17.6945 15.013 17.6945Z" fill="#FFAD00"/>
<path d="M14.122 17.9332C13.9894 17.9332 13.8682 17.845 13.8328 17.7106C13.4812 16.3972 12.1276 15.6118 10.81 15.9664C10.6498 16.0054 10.4854 15.9142 10.4428 15.754C10.4002 15.5938 10.495 15.43 10.6552 15.3868C12.2896 14.9506 13.975 15.922 14.4124 17.5564C14.455 17.7166 14.3602 17.8804 14.2 17.9236C14.1742 17.9302 14.1478 17.9332 14.122 17.9332Z" fill="#FFAD00"/>
<path d="M6.37764 14.4749C6.32664 14.4749 6.27504 14.4623 6.22764 14.4347C6.08424 14.3519 6.03504 14.1689 6.11784 14.0249C7.36464 11.8661 10.1342 11.1227 12.2936 12.3701C12.437 12.4529 12.4862 12.6359 12.4034 12.7799C12.3206 12.9239 12.1364 12.9719 11.9936 12.8897C10.121 11.8097 7.71804 12.4535 6.63744 14.3255C6.58164 14.4215 6.48084 14.4755 6.37704 14.4755L6.37764 14.4749Z" fill="#FFAD00"/>
<path d="M7.10909 14.8974C7.05809 14.8974 7.00649 14.8848 6.95909 14.8572C6.81569 14.7744 6.76649 14.5914 6.84929 14.4474C7.86389 12.6918 10.1175 12.0876 11.8725 13.1016C12.0159 13.1844 12.0651 13.3674 11.9823 13.5114C11.8989 13.6542 11.7153 13.704 11.5725 13.6212C10.1037 12.7734 8.21849 13.2786 7.36949 14.748C7.31369 14.844 7.21289 14.8974 7.10909 14.8974Z" fill="#FFAD00"/>
<path d="M8.01333 15.0575C7.95033 15.0575 7.88673 15.0377 7.83273 14.9969C7.70013 14.8967 7.67433 14.7089 7.77393 14.5763C8.63313 13.4387 10.2141 13.1189 11.4495 13.8329C11.5929 13.9157 11.6421 14.0987 11.5593 14.2427C11.4759 14.3855 11.2923 14.4347 11.1495 14.3525C10.1745 13.7903 8.92953 14.0423 8.25273 14.9393C8.19393 15.0173 8.10393 15.0575 8.01333 15.0575Z" fill="#FFAD00"/>
<path d="M18.4432 15.5189C18.3394 15.5189 18.2386 15.4649 18.1828 15.3689C17.6068 14.3711 16.6768 13.6571 15.5638 13.3589C14.4508 13.0607 13.2892 13.2143 12.2908 13.7897C12.1474 13.8725 11.9638 13.8233 11.881 13.6799C11.7982 13.5365 11.8474 13.3529 11.9908 13.2701C13.1278 12.6143 14.4508 12.4391 15.7186 12.7793C16.9864 13.1189 18.0454 13.9319 18.7018 15.0683C18.7846 15.2117 18.7354 15.3953 18.592 15.4781C18.5446 15.5057 18.493 15.5183 18.442 15.5183L18.4432 15.5189Z" fill="#FFAD00"/>
<path d="M17.6441 15.9804C17.5403 15.9804 17.4395 15.9264 17.3837 15.8304C16.9319 15.0474 16.2005 14.4876 15.3245 14.2524C14.4485 14.0178 13.5353 14.1378 12.7523 14.5896C12.6083 14.6724 12.4253 14.6238 12.3425 14.4798C12.2597 14.3364 12.3089 14.1528 12.4523 14.07C13.3733 13.5372 14.4485 13.395 15.4799 13.6728C16.5101 13.9488 17.3711 14.6088 17.9033 15.5304C17.9861 15.6738 17.9369 15.8574 17.7935 15.9402C17.7461 15.9678 17.6951 15.9804 17.6441 15.9804Z" fill="#FFAD00"/>
<path d="M16.8454 16.4417C16.7416 16.4417 16.6408 16.3877 16.585 16.2917C16.1458 15.5297 15.3262 15.0581 14.4448 15.0581C14.4412 15.0581 14.4382 15.0635 14.4328 15.0581C14.2678 15.0581 14.1334 14.9243 14.1328 14.7593C14.1328 14.5895 14.2738 14.4551 14.4448 14.4581C15.5404 14.4581 16.5586 15.0449 17.1052 15.9917C17.188 16.1351 17.1388 16.3187 16.9954 16.4015C16.948 16.4291 16.8964 16.4417 16.8454 16.4417Z" fill="#FFAD00"/>
<path d="M11.8592 17.3645C11.7554 17.3645 11.6546 17.3105 11.5988 17.2145C11.0228 16.2167 10.0928 15.5027 8.97984 15.2045C7.86684 14.9057 6.70464 15.0599 5.70684 15.6353C5.56344 15.7181 5.37984 15.6689 5.29704 15.5255C5.21424 15.3821 5.26344 15.1985 5.40684 15.1157C6.54324 14.4593 7.86684 14.2847 9.13464 14.6249C10.4024 14.9645 11.4614 15.7775 12.1178 16.9139C12.2006 17.0573 12.1514 17.2409 12.008 17.3237C11.9606 17.3513 11.909 17.3639 11.858 17.3639L11.8592 17.3645Z" fill="#FFAD00"/>
<path d="M11.0606 17.826C10.9568 17.826 10.856 17.772 10.8002 17.676C10.3484 16.893 9.61696 16.3332 8.74096 16.098C7.86496 15.8628 6.95176 15.9834 6.16876 16.4352C6.02536 16.518 5.84176 16.4688 5.75896 16.3254C5.67616 16.182 5.72536 15.9984 5.86876 15.9156C6.78976 15.3822 7.86496 15.2412 8.89636 15.5184C9.92656 15.7944 10.7876 16.4544 11.3198 17.376C11.4026 17.5194 11.3534 17.703 11.21 17.7858C11.1626 17.8134 11.1116 17.826 11.0606 17.826Z" fill="#FFAD00"/>
<path d="M9.26058 17.2823C9.20958 17.2823 9.15738 17.2696 9.10998 17.242C8.34378 16.7956 7.39398 16.7932 6.63018 17.2336C6.48678 17.317 6.30318 17.2673 6.22038 17.1239C6.13758 16.9805 6.18678 16.7968 6.33018 16.714C7.27998 16.165 8.46078 16.1686 9.41178 16.7224C9.55518 16.8064 9.60378 16.9894 9.52038 17.1334C9.46458 17.2288 9.36438 17.2823 9.26058 17.2823Z" fill="#FFAD00"/>
<path d="M10.3157 17.6501C10.2647 17.7377 10.3007 17.8469 10.3937 17.8859C10.6547 17.9963 11.1875 18.1697 11.6831 18.0053C12.1787 17.8409 12.5027 17.3837 12.6455 17.1389C12.6965 17.0513 12.6605 16.9421 12.5675 16.9031C12.3065 16.7927 11.7737 16.6193 11.2781 16.7837C10.7825 16.9481 10.4585 17.4053 10.3157 17.6501Z" fill="#036D50"/>
<path d="M18.5677 16.3943C18.6259 16.4771 18.5983 16.5887 18.5089 16.6361C18.2599 16.7663 17.7499 16.9787 17.2489 16.8569C16.7479 16.7351 16.3927 16.3121 16.2313 16.0817C16.1731 15.9989 16.2007 15.8873 16.2901 15.8399C16.5391 15.7097 17.0491 15.4973 17.5501 15.6191C18.0511 15.7409 18.4063 16.1639 18.5677 16.3943Z" fill="#036D50"/>
<path d="M13.3101 5.33697L22.1979 3.30657C22.4841 3.23697 22.6569 2.94597 22.5807 2.66157L22.4589 2.20617C22.3827 1.92177 22.0875 1.75617 21.8049 1.83897L13.0923 4.52397L13.3101 5.33697Z" fill="#3D3D3D"/>
<path d="M11.6043 5.27033C11.2335 5.60033 10.7889 5.83673 10.3077 5.95913L8.38646 6.44813C8.23046 6.48773 8.13686 6.64733 8.17826 6.80333C8.21546 6.94253 8.35046 7.03313 8.49326 7.01513L11.6739 6.61553C12.1137 6.54293 12.3093 6.20633 12.4527 6.00653C12.5961 5.80673 12.7839 5.45453 13.1073 5.37593L13.3095 5.33693L13.0917 4.52393L12.8259 4.59533C12.3897 4.71233 11.9871 4.92953 11.6505 5.22953L11.6043 5.27033Z" fill="#BABABA"/>
<path d="M11.0275 12.483C10.8619 12.483 10.7275 12.3486 10.7275 12.183V5.67476C10.7275 5.50916 10.8619 5.37476 11.0275 5.37476C11.1931 5.37476 11.3275 5.50916 11.3275 5.67476V12.183C11.3275 12.3486 11.1931 12.483 11.0275 12.483Z" fill="#FFAD00"/>
<path d="M10.1662 12.3694C10.0006 12.3694 9.86621 12.235 9.86621 12.0694V5.95845C9.86621 5.79285 10.0006 5.65845 10.1662 5.65845C10.3318 5.65845 10.4662 5.79285 10.4662 5.95845V12.0694C10.4662 12.235 10.3318 12.3694 10.1662 12.3694Z" fill="#FFAD00"/>
<path d="M9.30439 12.3635C9.13879 12.3635 9.00439 12.2291 9.00439 12.0635V6.21406C9.00439 6.04846 9.13879 5.91406 9.30439 5.91406C9.46999 5.91406 9.60439 6.04846 9.60439 6.21406V12.0635C9.60439 12.2291 9.46999 12.3635 9.30439 12.3635Z" fill="#FFAD00"/>
<path d="M14.445 13.5768C14.4606 13.4886 14.448 13.3956 14.4 13.3122C14.3502 13.2258 14.2716 13.167 14.184 13.137C14.184 13.0476 14.1552 12.9576 14.0934 12.8838C14.0292 12.8076 13.9416 12.7626 13.8504 12.7488C13.8348 12.6606 13.791 12.5772 13.7172 12.5154C13.6404 12.4512 13.5468 12.4224 13.4544 12.4248C13.4238 12.3408 13.3662 12.2664 13.2828 12.2178C13.1964 12.168 13.0992 12.156 13.008 12.1746C12.9636 12.0972 12.894 12.0336 12.8034 12.0006C12.7098 11.9664 12.6114 11.9718 12.5256 12.0054C12.468 11.937 12.3888 11.8866 12.294 11.8698C12.1956 11.8524 12.1002 11.8746 12.021 11.9226C11.9526 11.865 11.8656 11.8296 11.769 11.8296C11.6694 11.8296 11.5788 11.868 11.5092 11.9292C11.4318 11.8848 11.34 11.8644 11.2452 11.8812C11.1468 11.8986 11.0646 11.952 11.007 12.0246C10.923 11.994 10.8288 11.9904 10.7382 12.0234C10.6446 12.0576 10.5726 12.1242 10.5282 12.2058C10.44 12.1902 10.347 12.2028 10.2636 12.2508C10.1772 12.3006 10.1184 12.3792 10.0884 12.4668C9.99899 12.4668 9.909 12.4956 9.8352 12.5574C9.7584 12.6216 9.714 12.7092 9.7002 12.8004C9.612 12.816 9.5286 12.8598 9.4668 12.9336C9.4026 13.0104 9.3738 13.104 9.3762 13.1964C9.2922 13.227 9.2178 13.2846 9.1692 13.368C9.1194 13.4544 9.1074 13.5516 9.1254 13.6428C9.048 13.6878 8.9514 13.746 8.9514 13.8474C8.9514 13.8498 8.9532 13.8534 8.9538 13.8564H8.9502C8.9502 14.7642 10.221 15.5004 11.7882 15.5004C13.3554 15.5004 14.6262 14.7642 14.6262 13.8564C14.6262 13.7202 14.5254 13.6212 14.4438 13.5768H14.445Z" fill="#CB2C29"/>
</g>
<defs>
<clipPath id="clip0_685_2356">
<rect width="24" height="24" fill="white"/>
</clipPath>
</defs>
</svg>
