<svg width="24" height="24" viewBox="0 0 24 24" fill="none" xmlns="http://www.w3.org/2000/svg">
<g clip-path="url(#clip0_685_2353)">
<path d="M12 22.2456C16.2912 22.2456 19.77 20.2306 19.77 17.745C19.77 15.2594 16.2912 13.2444 12 13.2444C7.70873 13.2444 4.22998 15.2594 4.22998 17.745C4.22998 20.2306 7.70873 22.2456 12 22.2456Z" fill="#BABABA"/>
<path d="M11.9999 20.8428C18.1303 20.8428 23.0999 17.9642 23.0999 14.4132C23.0999 10.8623 18.1303 7.98364 11.9999 7.98364C5.86954 7.98364 0.899902 10.8623 0.899902 14.4132C0.899902 17.9642 5.86954 20.8428 11.9999 20.8428Z" fill="#D9D9D9"/>
<path d="M11.9999 19.7345C16.6255 19.7345 20.3753 17.5626 20.3753 14.8835C20.3753 12.2043 16.6255 10.0325 11.9999 10.0325C7.37431 10.0325 3.62451 12.2043 3.62451 14.8835C3.62451 17.5626 7.37431 19.7345 11.9999 19.7345Z" fill="#995C00"/>
<path d="M10.3303 18.2494C10.5049 18.2494 10.6375 18.073 10.5709 17.9116C10.4377 17.5882 10.1197 17.3608 9.74832 17.3608C9.37692 17.3608 9.05892 17.5882 8.92572 17.9116C8.85912 18.0736 8.99172 18.2494 9.16632 18.2494H10.3303Z" fill="#901A18"/>
<path d="M18.7359 12.9402C19.0389 12.9402 19.2405 12.6324 19.1277 12.351C18.8943 11.7684 18.3243 11.3574 17.6583 11.3574C16.9923 11.3574 16.4229 11.7684 16.1889 12.351C16.0761 12.6324 16.2777 12.9402 16.5807 12.9402H18.7359Z" fill="#F77F00"/>
<path d="M12.7308 4.47052C12.4836 3.54772 11.2854 3.06712 10.0548 3.39652C8.82423 3.72592 8.02683 4.74172 8.27463 5.66452L12.7308 4.47052Z" fill="#995C00"/>
<path d="M14.7413 18.1194C15.0443 18.1194 15.2459 17.8116 15.1331 17.5302C14.8997 16.9476 14.3297 16.5366 13.6637 16.5366C12.9977 16.5366 12.4283 16.9476 12.1943 17.5302C12.0815 17.8116 12.2831 18.1194 12.5861 18.1194H14.7413Z" fill="#F77F00"/>
<path d="M19.0803 14.7492C19.2549 14.7492 19.3875 14.5728 19.3209 14.4114C19.1877 14.088 18.8697 13.8606 18.4983 13.8606C18.1269 13.8606 17.8089 14.088 17.6757 14.4114C17.6091 14.5734 17.7417 14.7492 17.9163 14.7492H19.0797H19.0803Z" fill="#901A18"/>
<path d="M16.4122 15.8849C16.6306 15.8849 16.7962 15.6647 16.7128 15.4625C16.5466 15.0581 16.1488 14.7737 15.685 14.7737C15.2212 14.7737 14.8234 15.0581 14.6572 15.4625C14.5738 15.6647 14.7394 15.8849 14.9578 15.8849H16.4122Z" fill="#FFCD00"/>
<path d="M14.3695 12.523C14.3983 12.3592 14.3749 12.1858 14.2855 12.0304C14.1925 11.8696 14.0467 11.7598 13.8835 11.7046C13.8835 11.5384 13.8301 11.371 13.7149 11.2336C13.5955 11.0914 13.4329 11.0086 13.2625 10.9828C13.2337 10.819 13.1521 10.6636 13.0147 10.5484C12.8725 10.429 12.6979 10.3756 12.5257 10.3798C12.4687 10.2238 12.3619 10.0846 12.2065 9.99522C12.0457 9.90222 11.8645 9.88002 11.6953 9.91422C11.6119 9.77022 11.4829 9.65202 11.3143 9.59082C11.1397 9.52722 10.9573 9.53682 10.7971 9.59982C10.6903 9.47262 10.5421 9.37842 10.3657 9.34722C10.1827 9.31482 10.0051 9.35622 9.85811 9.44562C9.73091 9.33882 9.56891 9.27222 9.38951 9.27222C9.20351 9.27222 9.03551 9.34362 8.90651 9.45762C8.76251 9.37482 8.59151 9.33702 8.41451 9.36822C8.23151 9.40062 8.07851 9.50022 7.97111 9.63462C7.81451 9.57822 7.63991 9.57042 7.47131 9.63162C7.29671 9.69522 7.16351 9.81942 7.08071 9.97122C6.91691 9.94242 6.74351 9.96582 6.58811 10.0552C6.42731 10.1482 6.31751 10.294 6.26231 10.4572C6.09611 10.4572 5.92931 10.51 5.79131 10.6252C5.64911 10.7446 5.56631 10.9072 5.54051 11.0776C5.37671 11.1064 5.22131 11.188 5.10611 11.3248C4.98671 11.467 4.93331 11.6416 4.93751 11.8138C4.78151 11.8708 4.64231 11.9776 4.55291 12.133C4.45991 12.2938 4.43771 12.475 4.47191 12.6442C4.32791 12.7276 4.14851 12.8362 4.14851 13.0252C4.14851 13.03 4.15151 13.0366 4.15271 13.042H4.14551C4.14551 14.7316 6.51011 16.1008 9.42671 16.1008C12.3433 16.1008 14.7079 14.731 14.7079 13.042C14.7079 12.7888 14.5201 12.6046 14.3683 12.5224L14.3695 12.523Z" fill="#EBEBEB"/>
<path d="M13.0049 4.58202C12.9587 4.48302 12.8801 4.39782 12.7733 4.34802C12.6623 4.29642 12.5423 4.29222 12.4331 4.32402C12.3701 4.23462 12.2783 4.16442 12.1643 4.13382C12.0461 4.10202 11.9273 4.11882 11.8253 4.16922C11.7479 4.09182 11.6453 4.03842 11.5277 4.02822C11.4059 4.01742 11.2913 4.05462 11.2001 4.12182C11.1101 4.05942 11.0003 4.02462 10.8827 4.03482C10.7609 4.04562 10.6547 4.10202 10.5767 4.18422C10.4777 4.13802 10.3631 4.12302 10.2491 4.15362C10.1309 4.18542 10.0361 4.25922 9.97305 4.35402C9.86745 4.32582 9.75165 4.33122 9.64485 4.38102C9.53385 4.43262 9.45345 4.52202 9.40785 4.62582C9.29865 4.61622 9.18585 4.64142 9.08925 4.70922C8.98905 4.77942 8.92545 4.88142 8.89845 4.99182C8.78925 5.00142 8.68305 5.04582 8.59905 5.12922C8.51265 5.21562 8.46765 5.32722 8.46045 5.44062C8.35485 5.46882 8.25765 5.53122 8.18985 5.62782C8.11965 5.72802 8.09505 5.84562 8.10765 5.95842C8.00985 6.00402 13.1171 4.56882 13.0043 4.58142L13.0049 4.58202Z" fill="#EBEBEB"/>
<path d="M13.6221 5.27034L22.5009 3.24234C22.7865 3.17274 22.9593 2.88174 22.8831 2.59794L22.7613 2.14314C22.6851 1.85934 22.3905 1.69314 22.1079 1.77594L13.4043 4.45854L13.6221 5.27034Z" fill="#3D3D3D"/>
<path d="M8.12506 5.8727C7.91566 5.9291 7.83886 6.1871 7.98706 6.3455C8.41246 6.8009 9.29926 7.4891 10.5701 7.1483C12.4055 6.6563 13.0973 5.3879 13.4201 5.3093L13.6217 5.2703L13.4039 4.4585L8.12446 5.8733L8.12506 5.8727Z" fill="#BABABA"/>
</g>
<defs>
<clipPath id="clip0_685_2353">
<rect width="24" height="24" fill="white"/>
</clipPath>
</defs>
</svg>
