<svg width="24" height="24" viewBox="0 0 24 24" fill="none" xmlns="http://www.w3.org/2000/svg">
<g clip-path="url(#clip0_685_2352)">
<path d="M2.13818 12.9396V16.0284C2.13818 17.709 3.09758 19.242 4.60958 19.977L5.86778 20.5884C7.86758 21.5604 10.2328 21.3984 12.0814 20.163L20.4652 14.5614C21.871 13.6218 22.7152 12.0426 22.7152 10.3518V7.14478L2.13818 12.9396Z" fill="#DFE3E8"/>
<path d="M1.97363 13.5768L7.13963 15.993C8.12123 16.452 9.26843 16.3836 10.1882 15.81C13.904 12.801 17.9336 10.338 22.217 8.31358C23.6336 7.43098 23.4026 6.11098 21.9866 5.06218L17.6432 2.62378C16.4906 2.09218 15.185 1.99318 13.9676 2.35138C11.111 3.19258 5.79263 5.40358 1.40843 10.884C1.38143 10.9146 1.35563 10.9452 1.33103 10.9758C0.645828 11.832 0.980628 13.1124 1.97363 13.5768Z" fill="#FA5F3C"/>
<path d="M12.9743 12.833C12.9743 11.6756 12.3407 10.5734 11.6237 9.66445L7.58512 5.30005C7.18372 5.55865 6.77812 5.83585 6.37012 6.13345L10.0847 10.0136C10.9331 10.904 11.4623 12.0656 11.5097 13.2944C11.5121 13.3604 11.5133 13.427 11.5133 13.4936V14.7704C11.7215 14.612 11.9309 14.456 12.1409 14.3006C12.3599 14.1296 12.5399 13.997 12.9743 13.685V12.833Z" fill="#FAA594"/>
<path d="M17.2248 6.37781L13.6218 2.45801C13.1682 2.59961 12.6642 2.77301 12.1182 2.98481L15.6852 6.72701C16.5336 7.61741 17.0628 8.77901 17.1102 10.0078C17.1126 10.0738 17.1138 10.1404 17.1138 10.207V11.0146C17.5968 10.7296 18.084 10.4512 18.5748 10.1794V9.54581C18.5748 8.38841 17.9412 7.28621 17.2242 6.37721L17.2248 6.37781Z" fill="#FAA594"/>
<path d="M2.05322 10.112C2.63102 10.8182 4.00082 12.656 4.51382 14.7656L6.36062 15.6296C5.89502 14.1428 4.81382 11.2376 2.95622 9.11963C2.65262 9.43643 2.35082 9.76703 2.05322 10.112Z" fill="#FAA594"/>
</g>
<defs>
<clipPath id="clip0_685_2352">
<rect width="24" height="24" fill="white"/>
</clipPath>
</defs>
</svg>
