<svg width="24" height="24" viewBox="0 0 24 24" fill="none" xmlns="http://www.w3.org/2000/svg">
<g clip-path="url(#clip0_685_2348)">
<path d="M17.0032 6.52378C14.7592 5.07478 13.8496 3.38158 13.8496 3.38158C13.7554 3.15478 13.6024 2.95858 13.414 2.80498C13.1152 2.49118 12.6064 2.28418 12.028 2.28418C11.4148 2.28418 10.8844 2.51878 10.5958 2.86438C10.3978 3.05638 10.2334 3.30058 10.0924 3.56458C10.0924 3.56458 9.06462 5.20078 6.83382 6.63538C6.83202 6.63658 6.83142 6.63778 6.82962 6.63898C4.28682 8.43358 1.19922 11.3082 1.19922 14.6922C1.19922 17.4912 3.23562 19.9338 5.82402 20.7726C7.34262 21.3486 9.54282 21.7134 11.9992 21.7134C14.6176 21.7134 16.9492 21.3 18.469 20.6568C20.9866 19.6998 22.7992 17.4162 22.7992 14.6916C22.7992 11.2332 19.5748 8.30698 17.0026 6.52258L17.0032 6.52378Z" fill="#FFCCA8"/>
<path d="M8.67383 8.7246C9.28223 9.0768 10.253 8.5368 10.8422 7.5186C11.4314 6.5004 11.4158 5.3898 10.8074 5.0376L8.67443 8.724L8.67383 8.7246Z" fill="#FFB682"/>
<path d="M15.3254 8.7246C14.717 9.0768 13.7462 8.5368 13.157 7.5186C12.5678 6.5004 12.5834 5.3898 13.1918 5.0376L15.3248 8.724L15.3254 8.7246Z" fill="#FFB682"/>
</g>
<defs>
<clipPath id="clip0_685_2348">
<rect width="24" height="24" fill="white"/>
</clipPath>
</defs>
</svg>
