<svg width="24" height="24" viewBox="0 0 24 24" fill="none" xmlns="http://www.w3.org/2000/svg">
<path d="M3.48828 14.0359C3.48408 14.0287 3.48048 14.0209 3.47628 14.0137C3.46908 14.0023 3.46548 13.9903 3.45888 13.9783C3.36288 13.8163 3.28308 13.6501 3.21468 13.4815C3.21348 13.4779 3.21108 13.4749 3.20928 13.4713C3.20748 13.4665 3.20688 13.4611 3.20448 13.4563C3.13968 13.2943 3.08928 13.1299 3.05208 12.9631C3.04548 12.9343 3.03768 12.9055 3.03228 12.8767C2.99808 12.6991 2.97468 12.5197 2.97408 12.3367C2.97408 12.3343 2.97348 12.3319 2.97348 12.3295V12.3283V12.3271C2.97348 12.3211 2.97528 12.3157 2.97528 12.3097C2.97648 12.1789 2.98908 12.0499 3.00948 11.9221C3.04728 11.6443 3.12468 11.3737 3.23628 11.1097C3.26928 11.0317 3.30168 10.9543 3.34068 10.8775C3.37788 10.8043 3.41988 10.7323 3.46248 10.6603C3.50628 10.5865 3.55308 10.5139 3.60228 10.4419C3.64848 10.3741 3.69408 10.3069 3.74568 10.2403C3.81048 10.1563 3.88188 10.0747 3.95448 9.9931C5.45148 8.3047 8.51208 7.1443 12.0545 7.1443C13.3931 7.1443 14.6603 7.3141 15.8045 7.6105C15.8111 7.6087 15.8171 7.6063 15.8237 7.6045C16.7507 7.8433 17.5925 8.1679 18.3227 8.5615C18.3137 8.5639 18.3047 8.5669 18.2957 8.5687C20.0411 9.5131 21.1355 10.8457 21.1355 12.3265C21.1355 12.3811 21.1265 12.4339 21.1235 12.4879C21.1235 12.4891 21.1235 12.4909 21.1235 12.4921C21.1163 12.6181 21.1025 12.7429 21.0791 12.8665C21.0779 12.8731 21.0761 12.8803 21.0743 12.8869C21.0515 13.0027 21.0251 13.1179 20.9897 13.2313C20.9747 13.2799 20.9543 13.3273 20.9369 13.3753C20.9105 13.4473 20.8871 13.5205 20.8553 13.5913C20.8001 13.7167 20.7383 13.8409 20.6669 13.9627C22.2683 12.8983 23.2367 11.5339 23.2631 10.0447C23.2619 9.9511 23.2523 9.8593 23.2493 9.7663C23.0417 6.4285 18.1001 3.7561 12.0179 3.7561C5.93569 3.7561 0.986884 6.4321 0.785284 9.7729C0.782284 9.8635 0.772684 9.9523 0.771484 10.0429C0.797884 11.5687 1.81848 12.9607 3.48828 14.0359Z" fill="#3D3D3D"/>
<path d="M23.262 10.0445C23.2356 11.5343 22.2666 12.8987 20.6658 13.9625C20.6652 13.9643 20.6646 13.9655 20.6634 13.9673C20.6232 13.9943 20.5758 14.0177 20.5344 14.0441C20.5326 14.0441 20.5302 14.0441 20.5284 14.0447C20.5218 14.0489 20.5146 14.0525 20.5086 14.0567C20.5194 14.0549 20.532 14.0543 20.5428 14.0531C18.4794 15.3779 15.4332 16.2209 12.0252 16.2209C11.352 16.2209 10.698 16.1789 10.0572 16.1159L10.0704 16.1063C10.0644 16.1063 10.0584 16.1051 10.0524 16.1045L10.0488 16.1069C10.0164 16.1039 9.98582 16.0985 9.95342 16.0949C9.68703 16.0673 9.42422 16.0355 9.16502 15.9977C9.08822 15.9863 9.01322 15.9737 8.93703 15.9617C8.67602 15.9203 8.41622 15.8777 8.16302 15.8261C8.14262 15.8219 8.12402 15.8171 8.10362 15.8129C7.65842 15.7211 7.22942 15.6125 6.81302 15.4913C6.65162 15.4445 6.48903 15.3989 6.33182 15.3485C6.19922 15.3053 6.07142 15.2585 5.94302 15.2123C5.74982 15.1439 5.56022 15.0725 5.37602 14.9981C5.27642 14.9573 5.17802 14.9165 5.08142 14.8745C4.85702 14.7773 4.64042 14.6747 4.43042 14.5685C4.37642 14.5409 4.32062 14.5151 4.26782 14.4875C3.99722 14.3453 3.73502 14.1977 3.49142 14.0405C3.49022 14.0387 3.48962 14.0375 3.48902 14.0357C1.81862 12.9605 0.799225 11.5685 0.772825 10.0427C0.772225 10.0919 0.765625 10.1393 0.765625 10.1891C0.765625 16.4039 5.80383 21.4415 12.018 21.4415C18.2322 21.4415 23.2704 16.4033 23.2704 10.1891C23.2704 10.1405 23.2638 10.0931 23.2632 10.0445H23.262Z" fill="#C2C2C2"/>
<path d="M6.80273 8.10595C7.40273 8.31055 8.10773 8.61055 8.67773 9.01195C9.63233 8.65675 10.7951 8.44615 12.0533 8.44615C12.6863 8.44615 13.2947 8.50075 13.8659 8.59795C14.4089 8.14015 15.1229 7.79995 15.8033 7.60975C14.6591 7.31275 13.3925 7.14355 12.0533 7.14355" fill="#EFF1F3"/>
<path d="M17.9078 11.5212C17.9078 11.7858 17.8376 12.0414 17.7176 12.2868C18.557 12.4536 20.1698 12.7152 21.1226 12.4878C21.1256 12.4338 21.1346 12.381 21.1346 12.3264C21.1346 10.8456 20.0402 9.513 18.2948 8.5686C17.5766 8.7414 16.8746 9.0606 16.2764 9.3954C17.285 9.948 17.9078 10.6956 17.9078 11.5212Z" fill="#EFF1F3"/>
<path d="M12.054 14.5961C9.46496 14.5961 7.27256 13.7123 6.50036 12.4883C5.41676 12.5765 4.14476 12.8279 3.20996 13.4711C3.21116 13.4747 3.21356 13.4777 3.21536 13.4813C3.28376 13.6499 3.36476 13.8155 3.45956 13.9781C3.46616 13.9895 3.46976 14.0021 3.47696 14.0135C3.48116 14.0207 3.48476 14.0285 3.48896 14.0357C3.48956 14.0375 3.49076 14.0387 3.49136 14.0405C3.73556 14.1977 3.99716 14.3453 4.26776 14.4875C4.32056 14.5151 4.37696 14.5415 4.43036 14.5685C4.64036 14.6747 4.85696 14.7773 5.08136 14.8745C5.17856 14.9165 5.27636 14.9579 5.37596 14.9981C5.56076 15.0731 5.75036 15.1439 5.94296 15.2123C6.07196 15.2579 6.19916 15.3053 6.33176 15.3485C6.48836 15.3995 6.65096 15.4451 6.81296 15.4913C7.22996 15.6119 7.65776 15.7217 8.10356 15.8129C8.12336 15.8171 8.14256 15.8219 8.16296 15.8261C8.41616 15.8771 8.67536 15.9203 8.93696 15.9617C9.01316 15.9737 9.08816 15.9863 9.16496 15.9977C9.42416 16.0355 9.68756 16.0673 9.95336 16.0949C9.98576 16.0985 10.0164 16.1033 10.0488 16.1069L10.0524 16.1045L12.1434 14.5937C12.1134 14.5937 12.0846 14.5961 12.054 14.5961Z" fill="#CF3D40"/>
<path d="M6.50043 12.4883C6.30843 12.1841 6.20043 11.8595 6.20043 11.5211C6.20043 11.3615 6.23103 11.2055 6.27543 11.0525C5.04243 10.9661 3.89883 11.1449 3.15003 11.3147C3.11763 11.4083 3.09723 11.5037 3.07383 11.5991C3.04743 11.7059 3.02643 11.8133 3.00903 11.9213C2.98863 12.0491 2.97603 12.1781 2.97483 12.3089C2.97483 12.3149 2.97363 12.3215 2.97363 12.3275V12.3287C2.97363 12.3311 2.97423 12.3335 2.97423 12.3359C2.97423 12.5189 2.99643 12.6989 3.03243 12.8759C3.03843 12.9047 3.04563 12.9335 3.05223 12.9623C3.09063 13.1291 3.14043 13.2935 3.20463 13.4555C3.20643 13.4603 3.20703 13.4657 3.20943 13.4705C4.14483 12.8273 5.41683 12.5759 6.49983 12.4877L6.50043 12.4883Z" fill="#F09336"/>
<path d="M6.803 8.10596C5.9486 8.45276 5.2034 8.87996 4.604 9.37076C5.4392 9.40736 6.4634 9.50636 7.2794 9.74636C7.6634 9.46196 8.1362 9.21356 8.678 9.01196C8.1074 8.61056 7.403 8.31056 6.803 8.10596Z" fill="#429091"/>
<path d="M6.27519 11.0526C6.41559 10.5714 6.76539 10.1268 7.27899 9.74645C6.46299 9.50645 5.43879 9.40805 4.60359 9.37085C4.41399 9.52625 4.23459 9.68585 4.07559 9.85325C4.03239 9.89885 3.99519 9.94625 3.95439 9.99245C3.88239 10.074 3.81039 10.1556 3.74559 10.2396C3.69459 10.3056 3.64839 10.3734 3.60219 10.4412C3.55299 10.5132 3.50619 10.5859 3.46239 10.6597C3.41979 10.7317 3.37779 10.8036 3.34059 10.8768C3.30159 10.953 3.26859 11.031 3.23619 11.109C3.20739 11.1774 3.17439 11.2452 3.15039 11.3148C3.89919 11.145 5.04279 10.9662 6.27579 11.0526H6.27519Z" fill="#F7CC46"/>
<path d="M20.9356 13.3753C20.953 13.3273 20.9734 13.2799 20.9884 13.2313C21.0232 13.1179 21.0514 13.0033 21.073 12.8869C21.0742 12.8803 21.076 12.8731 21.0778 12.8665C21.1 12.7429 21.115 12.6181 21.1222 12.4921C21.1222 12.4909 21.1222 12.4891 21.1222 12.4879C20.1694 12.7159 18.556 12.4537 17.7172 12.2869C17.5534 12.6229 17.2888 12.9373 16.9336 13.2187C18.3742 14.0971 19.6204 14.1889 20.5288 14.0455C20.5306 14.0455 20.533 14.0455 20.5348 14.0449C20.5762 14.0185 20.623 13.9951 20.6638 13.9681C20.6644 13.9663 20.665 13.9651 20.6662 13.9633C20.737 13.8415 20.7994 13.7173 20.8546 13.5919C20.8858 13.5205 20.9104 13.4479 20.9362 13.3759L20.9356 13.3753Z" fill="#5E7E66"/>
<path d="M16.2764 9.39476C16.8752 9.05996 17.5766 8.74076 18.2948 8.56796C18.3038 8.56556 18.3128 8.56256 18.3218 8.56076C17.5916 8.16776 16.7498 7.84256 15.8228 7.60376C15.8162 7.60556 15.8102 7.60796 15.8036 7.60976C15.1232 7.79936 14.4092 8.13956 13.8662 8.59796C14.7932 8.75636 15.617 9.03356 16.2758 9.39476H16.2764Z" fill="#F09336"/>
<path d="M16.2764 9.39489C15.617 9.03369 14.7938 8.75709 13.8668 8.59809C13.2956 8.50029 12.6878 8.44629 12.0542 8.44629C10.7954 8.44629 9.63257 8.65689 8.67857 9.01209C8.13677 9.21369 7.66397 9.46209 7.27997 9.74649C6.76637 10.1269 6.41657 10.5715 6.27617 11.0527C6.23117 11.2057 6.20117 11.3617 6.20117 11.5213C6.20117 11.8597 6.30917 12.1843 6.50117 12.4885C7.27337 13.7125 9.46577 14.5963 12.0548 14.5963C12.0854 14.5963 12.1142 14.5939 12.1448 14.5939C12.152 14.5939 12.1586 14.5939 12.1658 14.5939C14.1554 14.5741 15.902 14.0347 16.9316 13.2217C16.9328 13.2211 16.9334 13.2199 16.9346 13.2193C17.2898 12.9379 17.5544 12.6235 17.7182 12.2875C17.8382 12.0421 17.9084 11.7871 17.9084 11.5219C17.9084 10.6963 17.2856 9.94809 16.277 9.39549L16.2764 9.39489ZM12.0542 9.47769C13.4978 9.47769 14.6678 10.1797 14.6678 11.0455C14.6678 11.9113 13.4978 12.6133 12.0542 12.6133C10.6106 12.6133 9.44057 11.9113 9.44057 11.0455C9.44057 10.1797 10.6106 9.47769 12.0542 9.47769Z" fill="white"/>
<path d="M0.766113 9.98235C0.766113 10.0027 0.771513 10.0225 0.771513 10.0429C0.772713 9.95235 0.781713 9.86355 0.785313 9.77295C0.781113 9.84315 0.766113 9.91215 0.766113 9.98295V9.98235Z" fill="#F7CC66"/>
<path d="M23.2678 9.98236C23.2678 9.90916 23.2528 9.83836 23.248 9.76636C23.2516 9.85936 23.2606 9.95116 23.2618 10.0448C23.2618 10.0238 23.2678 10.0034 23.2678 9.98236Z" fill="#F7CC66"/>
<path d="M16.9301 13.2211C15.9005 14.0347 14.1545 14.5741 12.1643 14.5933L10.0703 16.1059L10.0571 16.1155C10.6979 16.1785 11.3519 16.2205 12.0251 16.2205C15.4331 16.2205 18.4799 15.3775 20.5427 14.0527C20.5319 14.0545 20.5193 14.0551 20.5085 14.0563C19.5995 14.1943 18.3611 14.0971 16.9301 13.2211Z" fill="#F7CC66"/>
<path d="M12.054 12.6139C13.4976 12.6139 14.6676 11.9119 14.6676 11.0461C14.6676 10.1803 13.4976 9.47827 12.054 9.47827C10.6104 9.47827 9.44043 10.1803 9.44043 11.0461C9.44043 11.9119 10.6104 12.6139 12.054 12.6139Z" fill="#F7CC66"/>
</svg>
