<svg viewBox="0 0 100 100" width="100" height="100" xmlns="http://www.w3.org/2000/svg" xmlns:xlink="http://www.w3.org/1999/xlink">
  <svg x="10" y="13" width="79.99" height="74" viewBox="0 0 79.9923 74" overflow="visible">
    <g id="Group 2147225932">
<path id="Vector" d="M50.8199 59.6864C50.3858 59.6864 49.969 59.4606 49.7259 59.0612C49.3439 58.4361 49.5349 57.6373 50.1427 57.2379C53.4247 55.2061 57.3666 53.3654 61.1695 51.5768C68.2545 48.2774 75.5826 44.8564 77.076 40.7061C77.5275 39.4385 77.4233 38.1013 76.7461 36.66C75.6173 34.281 73.6725 31.5199 70.7551 31.7804C68.133 32.0235 65.8408 34.5588 65.4066 36.1911C65.0941 37.3893 65.3024 38.4486 66.0665 39.4211C66.6396 40.1504 67.3342 40.5498 67.3342 40.5498C67.9767 40.8971 68.2024 41.6959 67.8551 42.3385C67.5078 42.981 66.709 43.2067 66.0665 42.8594C64.5036 42.0085 61.8294 39.369 62.854 35.5139C63.5833 32.7181 66.8479 29.4881 70.512 29.1408C72.1617 28.9845 73.7246 29.4187 75.1659 30.4085C76.694 31.4851 78.0311 33.1869 79.1251 35.5139C80.1149 37.5977 80.2538 39.6468 79.5592 41.5917C77.7012 46.7666 70.2168 50.257 62.2983 53.9558C58.5648 55.6924 54.6923 57.4984 51.5492 59.4606C51.3235 59.5996 51.0804 59.669 50.8373 59.6517L50.8199 59.6864Z" fill="var(--fill-0, #9BA3B0)"/>
<path id="Vector_2" d="M30.1392 63.7847C30.1392 63.7847 17.5321 64.5835 10.8118 66.3548C4.10886 68.126 5.1334 71.5643 10.1172 72.259C15.101 72.9536 24.4956 73.8045 33.9943 73.9781C43.493 74.1518 51.2553 73.2661 57.9582 72.2242C64.6612 71.1997 70.739 66.9452 60.9971 65.6254C51.2553 64.3057 41.0446 62.708 30.1219 63.7673L30.1392 63.7847Z" fill="var(--fill-0, #E1E4E8)"/>
<path id="Vector_3" d="M25.7257 65.7121V67.3097C25.7257 67.3097 25.9514 68.0043 26.7502 68.1085C27.549 68.2127 35.4675 69.0289 39.3573 68.9073C43.2471 68.7858 46.3555 67.3097 46.3555 67.3097C46.3555 67.3097 46.5812 66.372 46.3555 64.8265C46.1297 63.281 26.8544 63.2983 25.7083 65.6947L25.7257 65.7121Z" fill="var(--fill-0, #9BA3B0)"/>
<path id="Vector_4" d="M0.217257 28.4984C0.217257 28.4984 3.65556 32.1451 4.35016 34.8194C5.04477 37.4937 11.2094 61.4751 25.744 66.5284C25.744 66.5284 38.4727 68.3692 45.3493 66.5284C45.3493 66.5284 52.9205 60.5027 57.0534 52.8446C61.1863 45.1865 62.7318 36.5907 63.7911 34.8194C64.8504 33.0481 65.7707 29.6966 68.0629 28.4984C68.0629 28.4984 69.4348 27.5433 65.8923 27.5433C62.3498 27.5433 42.8487 27.196 34.5829 27.5433C26.3345 27.8906 9.24714 27.5781 4.88849 27.3871C0.52983 27.196 -0.54681 27.6128 0.234622 28.4984H0.217257Z" fill="var(--fill-0, #E1E4E8)"/>
<path id="Vector_5" d="M49.7782 57.9498C49.5351 56.6647 49.3441 50.5695 48.962 48.7635C48.962 48.7635 42.7106 44.4396 42.1722 46.0025C42.1722 46.0025 38.8381 48.4336 38.3172 49.9444C38.3172 49.9444 38.0567 52.1498 38.1262 54.2857C38.1783 56.4216 38.6645 59.3564 38.6645 59.3564C38.6645 59.3564 39.0986 60.0162 42.6237 60.1725C46.1489 60.3288 48.9447 59.7037 48.9447 59.7037C48.9447 59.7037 50.0387 59.2522 49.7956 57.9671L49.7782 57.9498ZM43.0405 47.7216C42.3112 47.4959 43.0405 46.8534 43.0405 46.8534C44.1519 47.027 43.7698 47.9474 43.0405 47.7216Z" fill="var(--fill-0, #99ADF4)"/>
<path id="Vector_6" d="M43.544 47.4612C43.544 47.4612 44.308 43.3629 44.308 38.2055C44.308 36.6078 44.2386 34.9234 44.0475 33.2216C43.8565 31.5545 43.8044 30.3563 43.8044 29.4881C43.8044 28.6198 43.8739 28.0988 43.926 27.821C43.9607 27.6821 43.9781 27.5779 43.9955 27.5432C43.9955 27.5258 43.9955 27.5084 43.9955 27.5084L43.8218 27.4216L43.9781 27.5258L43.8044 27.4216L43.9607 27.5258C44.0649 27.3695 44.0128 27.1438 43.8565 27.0569C43.7002 26.9527 43.4745 27.0048 43.3877 27.1611C43.3529 27.2132 43.2835 27.3521 43.214 27.6994C43.1446 28.0468 43.0751 28.6024 43.0751 29.5054C43.0751 30.4084 43.1446 31.624 43.3182 33.3084C43.5092 34.9929 43.5787 36.6599 43.5787 38.2228C43.5787 40.7755 43.3877 43.0504 43.1967 44.7001C43.1098 45.5162 43.0056 46.1935 42.9362 46.645C42.9014 46.8707 42.8667 47.0444 42.8494 47.1659C42.8494 47.218 42.832 47.2701 42.832 47.3049V47.3396C42.7973 47.5306 42.9188 47.7216 43.1098 47.7564C43.3008 47.7911 43.4745 47.6695 43.5092 47.4785L43.544 47.4612Z" fill="var(--fill-0, #7C7C7C)"/>
<path id="Vector_7" d="M25.728 23.3409C25.728 23.3409 21.4909 19.5553 24.0088 13.6684C26.5268 7.78159 26.6483 2.71092 25.728 0.679176C25.728 0.679176 25.3807 -0.84897 26.7525 0.679176C28.1244 2.20732 27.6729 9.10134 26.7525 11.1331C25.8322 13.1648 24.8076 20.7708 27.0998 22.2816C29.392 23.8098 25.728 23.3409 25.728 23.3409Z" fill="var(--fill-0, #FFD1C2)"/>
<path id="Vector_8" d="M38.683 21.4825C38.683 21.4825 35.5747 19.8675 36.0956 17.3322C36.6166 14.7969 39.3777 9.51783 38.683 4.44716C38.683 4.44716 38.9088 2.51961 39.6034 4.44716C40.298 6.37471 39.9507 9.15315 39.1519 11.7232C38.3531 14.2933 37.9363 19.555 39.9854 20.7879C42.0172 22.0035 38.7004 21.4999 38.7004 21.4999L38.683 21.4825Z" fill="var(--fill-0, #FFD1C2)"/>
</g>
  </svg>
</svg>