<svg viewBox="0 0 100 100" width="100" height="100" xmlns="http://www.w3.org/2000/svg" xmlns:xlink="http://www.w3.org/1999/xlink">
  <svg x="5.54" y="25" width="89.866" height="46.5" viewBox="0 0 89.8663 46.5" overflow="visible">
    <g id="Group 2147226062">
<g id="Group 2147225930">
<path id="Vector 4062" d="M15.1614 32.7787L4.48927 35.0656C3.72698 35.3197 1.89747 35.9803 0.677796 36.5902C-0.846794 37.3525 0.677796 40.4016 0.677796 41.1639C0.677796 41.9262 4.48927 43.4508 5.25157 43.4508H16.686C17.4483 43.4508 26.5958 44.9754 27.3581 44.9754C27.968 44.9754 32.6942 45.9918 34.9811 46.5H44.8909C46.1106 46.5 58.6122 45.4836 64.7106 44.9754L86.8171 43.4508L89.8663 35.8279L84.5303 30.4918L72.3335 26.6803L60.1368 22.8689H55.563L50.227 24.3934L45.6532 26.6803H41.0794C40.4696 26.6803 36.7598 27.6967 34.9811 28.2049L26.5958 33.541L22.7844 32.7787H15.1614Z" fill="var(--fill-0, #D8A94B)"/>
<path id="Vector 4064" d="M60.9838 35.8279L62.5084 35.0656H65.5576C66.0658 35.5738 67.0822 36.7426 67.0822 37.3525C67.0822 37.9623 66.0658 39.1311 65.5576 39.6393H61.7461L60.9838 35.8279Z" fill="var(--fill-0, #BE8330)"/>
<path id="Vector 4066" d="M39.6395 41.9262L43.451 39.6393L46.5002 41.1639L44.9756 43.4508L39.6395 41.9262Z" fill="var(--fill-0, #BE8330)"/>
<path id="Vector 4065" d="M11.4346 39.3852C12.2477 38.7077 14.1179 37.3525 15.0936 37.3525L17.533 40.4016H13.874L11.4346 39.3852Z" fill="var(--fill-0, #BE8330)"/>
<g id="Vector 4061">
<path d="M22.8698 32.7787C28.2059 32.7787 29.2223 29.9836 32.7796 29.7295L41.081 28.9672L47.9417 33.541L44.8925 35.8279L38.7941 37.3525C35.9991 37.3525 29.8502 38.0972 28.8844 37.3525C25.9185 35.0656 22.8698 32.7787 22.8698 32.7787Z" fill="var(--fill-0, #BE8330)"/>
<path d="M57.0892 23.6311C55.2597 23.6311 50.2285 24.6475 47.9417 25.1557C47.6876 25.918 47.3318 27.5951 47.9417 28.2049C48.7039 28.9672 51.7531 29.7295 52.5154 29.7295C53.1253 29.7295 55.3105 29.2213 56.3269 28.9672L59.3761 27.4426L65.4744 26.6803L66.2367 25.1557C63.9499 24.6475 58.9187 23.6311 57.0892 23.6311Z" fill="var(--fill-0, #BE8330)"/>
</g>
<path id="Vector 4068" d="M48.7871 32.0164V30.4918L50.0068 29.7295H53.6658L54.8854 30.4918L53.6658 32.7787L48.7871 32.0164Z" fill="var(--fill-0, #554026)"/>
<path id="Vector 4060" d="M51.8978 22.3305L49.9335 31.1186C52.2849 32.5643 52.551 31.9698 52.8776 31.3675V25.9454L53.8573 22.3305L56.7966 21.427L62.6751 16.9084L63.6548 12.3902C63.6548 11.1852 62.871 8.59455 59.7358 7.8716C56.6006 7.14866 53.2042 8.17283 51.8978 8.77528L49.9383 16.9084L51.8978 22.3305Z" fill="var(--fill-0, #8FBA65)"/>
<path id="Intersect" d="M86.8172 43.3992L64.7107 44.9236C58.6129 45.4317 46.1128 46.4478 44.8914 46.448H34.9812C32.6943 45.9398 27.968 44.9236 27.3582 44.9236C26.5951 44.9234 17.4496 43.3993 16.6863 43.3992H5.25174C4.48944 43.3992 0.677518 41.8743 0.677518 41.112C0.677517 41.0406 0.662467 40.9494 0.639432 40.8415L0.762479 40.3494C1.52475 40.8575 3.35433 41.8747 4.574 41.8747H15.2459C16.7704 41.8747 20.582 42.6364 22.8689 42.6365C25.1558 42.6365 30.4924 44.1609 31.2547 44.1609H50.3123C51.8374 44.1606 57.1725 42.6365 58.697 42.6365H78.5164L82.3279 39.5876L89.8455 35.8279L86.8172 43.3992Z" fill="var(--fill-0, #BE8330)"/>
<path id="Vector 4072" d="M58.6969 28.9672L61.7461 28.2049H63.2707L62.5084 29.7295L58.6969 28.9672Z" fill="var(--fill-0, #BE8330)"/>
<path id="Vector 4073" d="M36.5903 33.541L30.4916 35.0656C29.7288 35.8279 28.535 36.9215 28.9665 37.3525C29.7297 38.1148 34.0494 38.1148 35.0658 38.1148L38.8772 37.3525L44.9756 35.8279L45.7379 35.0656L46.5002 32.7787H45.7379H43.451L36.5903 33.541Z" fill="var(--fill-0, #815A2B)"/>
<path id="Vector 4067" d="M44.2133 32.7787L45.7379 31.2541H48.7871L50.3117 32.7787C49.2953 33.2869 46.9576 34.3033 45.7379 34.3033C44.5182 34.3033 44.2133 33.2869 44.2133 32.7787Z" fill="var(--fill-0, #554026)"/>
<path id="Vector 4059" d="M37.1269 10.8782L41.7007 18.1303V15.4107L38.9565 8.15862L40.786 0.906513L46.2745 0C47.4942 1.20868 49.9335 4.53257 49.9335 8.15862C49.9335 11.7847 48.104 15.1086 47.1892 16.3172L45.3597 19.0368L48.104 28.1019V32.6345L46.2745 33.541V29.9149L43.5302 24.4759L41.7007 19.9433L36.2122 18.1303L28.8942 16.3172L27.0647 12.6912C27.0647 12.0868 27.4306 10.5156 28.8942 9.06515C30.3578 7.61473 34.9925 9.66949 37.1269 10.8782Z" fill="var(--fill-0, #8FBA65)"/>
<path id="Vector 4074" d="M2.28709 39.6393L3.81168 38.877L4.57397 39.6393V41.1639L2.28709 39.6393Z" fill="var(--fill-0, #BE8330)"/>
<path id="Vector 4075" d="M47.114 37.7866L49.2525 37.5114L50.4593 38.443L49.5276 39.6499L47.114 37.7866Z" fill="var(--fill-0, #BE8330)"/>
<path id="Vector 4077" d="M80.6951 32.0163L79.6242 33.8876L78.1531 34.2879L77.7528 32.8167L80.6951 32.0163Z" fill="var(--fill-0, #BE8330)"/>
<path id="Vector 4076" d="M80.8035 35.0656L82.3281 33.541L86.9018 35.0656L83.0904 36.5902L80.8035 35.0656Z" fill="var(--fill-0, #BE8330)"/>
</g>
<path id="Vector 4078" d="M40.7859 19.8197L30.1137 12.1967L35.4498 14.1025L40.7859 19.8197Z" fill="var(--fill-0, #4C6C2E)"/>
<path id="Vector 4079" d="M44.8514 10.2237L43.835 18.2951L46.8842 10.2237L43.835 3.04918L44.8514 10.2237Z" fill="var(--fill-0, #4C6C2E)"/>
<path id="Vector 4080" d="M55.0154 13.5035C54.3378 15.7904 52.9826 20.5602 52.9826 21.3443L57.0482 14.4836L59.0809 7.62295L55.0154 13.5035Z" fill="var(--fill-0, #4C6C2E)"/>
</g>
  </svg>
</svg>