<svg viewBox="0 0 100 100" width="100" height="100" xmlns="http://www.w3.org/2000/svg" xmlns:xlink="http://www.w3.org/1999/xlink">
  <svg x="15" y="16" width="70.03" height="68" viewBox="0 0 70.0295 68" overflow="visible">
    <g id="Group 2147225936">
<path id="Vector" d="M28.652 0.662278C28.652 0.662278 13.1111 4.13122 5.83405 14.831C-1.44302 25.5307 -1.39677 39.1907 3.13598 49.6129C8.20835 61.284 15.9788 66.2792 27.8194 67.5897C39.6601 68.9002 52.7341 67.451 60.6433 57.63C68.5679 47.7936 72.3144 39.129 68.5679 25.5307C64.806 11.9479 53.7979 -3.39253 28.652 0.662278Z" fill="var(--fill-0, #3A3D42)"/>
<path id="Vector_2" d="M32.9563 4.19296C32.9563 4.19296 10.6471 7.09146 5.99104 27.5659C1.33495 48.0404 13.484 60.6982 29.0556 62.7949C44.6273 64.9071 64.1767 60.0815 65.3485 35.9839C66.5202 11.8863 44.5965 0.67777 32.9563 4.17755V4.19296Z" fill="var(--fill-0, white)"/>
<g id="Group">
<path id="Vector_3" d="M32.8917 6.93705V10.6527C32.8917 11.1306 33.2772 11.516 33.7551 11.516C34.233 11.516 34.6185 11.1306 34.6185 10.6527V6.93705C34.6185 6.45911 34.233 6.07367 33.7551 6.07367C33.2772 6.07367 32.8917 6.45911 32.8917 6.93705Z" fill="var(--fill-0, #B8BEC8)"/>
<path id="Vector_4" d="M32.8917 58.1386V61.2838C32.8917 61.7617 33.2772 62.1472 33.7551 62.1472C34.233 62.1472 34.6185 61.7617 34.6185 61.2838V58.1386C34.6185 57.6607 34.233 57.2752 33.7551 57.2752C33.2772 57.2752 32.8917 57.6607 32.8917 58.1386Z" fill="var(--fill-0, #B8BEC8)"/>
<path id="Vector_5" d="M59.4107 37.0939H63.5426C64.0206 37.0939 64.406 36.7085 64.406 36.2305C64.406 35.7526 64.0206 35.3671 63.5426 35.3671H59.4107C58.9328 35.3671 58.5474 35.7526 58.5474 36.2305C58.5474 36.7085 58.9328 37.0939 59.4107 37.0939Z" fill="var(--fill-0, #B8BEC8)"/>
<path id="Vector_6" d="M9.70425 35.4289H6.55907C6.11196 35.4289 5.74194 35.7989 5.74194 36.246C5.74194 36.6931 6.11196 37.0631 6.55907 37.0631H9.70425C10.1514 37.0631 10.5214 36.6931 10.5214 36.246C10.5214 35.7989 10.1514 35.4289 9.70425 35.4289Z" fill="var(--fill-0, #B8BEC8)"/>
</g>
<g id="Group_2">
<path id="Vector_7" d="M48.4486 44.2629L36.3613 35.3362L35.4671 16.0335C35.4209 15.093 34.6191 14.353 33.6787 14.3992C32.7382 14.4455 31.9982 15.2472 32.0444 16.1876L32.9695 36.3075C33.0003 36.8163 33.247 37.3096 33.6633 37.6026L46.3981 47.0073C47.1536 47.5777 48.2328 47.4081 48.8033 46.6526C49.3737 45.8972 49.2041 44.818 48.4486 44.2475V44.2629Z" fill="var(--fill-0, #3A3D42)"/>
</g>
</g>
  </svg>
</svg>