<svg width="100" height="100" viewBox="0 0 100 100" fill="none" xmlns="http://www.w3.org/2000/svg">
<path d="M83.8991 31.8227C76.5051 18.0859 56.3202 11.8832 42.3906 18.9269C21.1721 19.5577 7.27749 41.6698 15.3023 61.6093C23.3973 81.7065 49.0488 88.8203 67.8319 80.7253C86.0192 72.8757 93.0103 48.731 83.8991 31.8227ZM67.7618 74.2949C52.5356 83.8091 31.5623 77.1685 21.9956 62.941C11.6579 47.5571 21.3648 29.177 36.8013 23.5876C36.6085 25.4799 38.8863 27.4599 40.9013 26.3035C53.4467 19.1021 69.5315 21.0996 78.1521 33.5398C87.3859 46.8737 80.6401 66.2526 67.7443 74.2949H67.7618Z" fill="#1D1E20"/>
<path d="M64.8333 53.3391C62.9235 61.6793 51.4644 66.2875 44.6135 60.4528C43.1066 59.1737 40.934 61.2763 42.4233 62.643C50.8687 70.405 66.3927 66.0948 68.618 54.3729C69.0911 51.9198 65.4115 50.851 64.8333 53.3391Z" fill="#1D1E20"/>
<path d="M59.0337 36.7812C54.408 36.7812 54.408 43.9475 59.0337 43.9475C63.6594 43.9475 63.6594 36.7812 59.0337 36.7812Z" fill="#1D1E20"/>
<path d="M35.3638 41.6697C30.7381 41.6697 30.7381 48.836 35.3638 48.836C39.9895 48.836 39.9895 41.6697 35.3638 41.6697Z" fill="#1D1E20"/>
</svg>
