<svg viewBox="0 0 100 100" width="100" height="100" xmlns="http://www.w3.org/2000/svg" xmlns:xlink="http://www.w3.org/1999/xlink">
  <svg x="7" y="18.37" width="81.83" height="69.63" viewBox="0 0 81.8332 69.6258" overflow="visible">
    <g id="Group">
<path id="Vector" d="M46.4961 42.3789C53.5402 33.0617 51.6974 19.7983 42.3799 12.7543C33.0625 5.71036 19.7988 7.55316 12.7546 16.8704C5.71043 26.1876 7.55328 39.4509 16.8707 46.4949C26.1882 53.5389 39.4519 51.6961 46.4961 42.3789Z" fill="var(--fill-0, #EEFBFC)"/>
<path id="Vector_2" d="M73.7059 55.5643C72.2046 54.1021 70.4813 52.9272 68.7972 51.7C67.335 50.6295 66.0425 49.4154 64.515 48.371C61.0293 45.982 57.5566 43.4363 54.2014 40.9689C53.9794 40.7992 53.7314 40.6686 53.4964 40.5642C53.9794 40.7731 55.5983 33.1621 55.6636 32.4702C55.9377 29.7286 55.755 26.9349 55.1544 24.2456C54.5278 21.491 53.4572 18.8278 51.9689 16.4257C51.2248 15.2247 50.337 14.1933 49.4623 13.1098C48.5224 11.9218 47.8435 10.6293 46.5118 9.81993C41.9556 7.02618 37.4776 4.74157 32.0466 4.32381C26.8245 3.91911 21.5111 5.10711 16.9939 7.75725C12.8815 10.1724 10.2444 13.4231 7.75082 17.3787C7.51582 17.7442 7.29389 18.1098 7.05889 18.4753C4.3434 22.7834 3.86036 28.9976 4.64367 33.9584C5.47921 39.2065 7.94665 44.1413 11.6674 47.9402C13.6779 49.9898 15.8842 52.3789 18.7564 53.1752C21.498 53.9324 23.9393 55.1074 26.8115 55.4729C32.3469 56.1779 38.0651 55.029 42.9086 52.2614C44.4361 51.3867 45.8721 50.3423 47.1907 49.1804C47.3735 49.3893 47.5693 49.5721 47.7913 49.7418C48.5615 49.8724 50.0368 51.3345 50.6895 51.8175C51.7862 52.653 52.8045 53.6191 53.875 54.4938C56.5513 56.6478 59.5018 58.3711 62.2304 60.3815C63.4837 61.3084 64.737 62.2353 65.9903 63.1492C66.3428 63.4103 66.7214 63.6583 67.0608 63.9325C68.3402 64.9899 69.8416 65.3555 71.4865 65.6427C72.0218 65.7341 72.5832 65.8124 73.1054 65.6427C73.5884 65.4991 73.9931 65.1857 74.3848 64.8594C75.2987 64.1152 76.2256 63.2797 76.6042 62.1701C77.0089 60.956 76.6956 59.5983 76.0559 58.4886C75.4162 57.392 74.6198 56.439 73.719 55.5643H73.7059ZM46.6424 42.1569C39.7231 51.5564 26.4851 53.5669 17.0723 46.6478C7.67249 39.7287 5.66198 26.491 12.5813 17.0785C19.5005 7.67892 32.7386 5.66847 42.1514 12.5876C51.5512 19.5067 53.5617 32.7443 46.6424 42.1569Z" fill="var(--fill-0, #6D7581)"/>
<g id="Group_2" opacity="0.9">
<path id="Vector_3" d="M35.9366 43.5796C35.7408 43.7494 35.545 43.9191 35.323 44.0757C35.2186 44.1541 35.1141 44.2193 35.0097 44.2846C34.9444 44.3238 34.8661 44.3629 34.8008 44.4021C34.5658 44.5196 34.3308 44.624 34.0958 44.7285C33.9783 44.7807 33.8478 44.8199 33.7303 44.859C33.665 44.8851 33.6128 44.8982 33.5475 44.9243C33.5475 44.9243 33.5214 44.9243 33.5083 44.9374C33.4822 44.9374 33.4692 44.9635 33.4431 44.9635C33.2342 45.0418 32.947 45.0679 32.7381 45.1071C32.4509 45.1593 32.1506 45.1985 31.8503 45.2376C31.7198 45.2507 31.5892 45.2637 31.4587 45.2768C31.3803 45.2768 31.1192 45.2507 31.067 45.2898C31.0148 45.2898 30.9756 45.2898 30.9234 45.2898C30.7798 45.2898 30.6231 45.2898 30.4795 45.2898C29.9443 45.2637 29.409 45.2115 28.8737 45.1332C28.6257 45.094 28.3907 45.0548 28.1557 45.0026C28.0382 44.9765 27.9207 44.9504 27.8032 44.9243C27.7771 44.9243 27.7249 44.9243 27.6988 44.9112C27.7118 44.9112 27.7379 44.9112 27.764 44.9112C27.986 44.9243 27.6857 44.8851 27.6335 44.8721C26.6413 44.611 25.6752 44.2715 24.7483 43.8277C24.5263 43.7232 24.3044 43.6188 24.0955 43.5013C24.0563 43.4752 24.0172 43.4621 23.978 43.436C23.8605 43.3708 23.73 43.3055 23.6125 43.2272C23.1686 42.9661 22.7247 42.6789 22.3069 42.3786C21.8892 42.0914 21.4975 41.7781 21.1059 41.4517C20.91 41.282 20.7142 41.1123 20.5184 40.9295C20.4923 40.9034 20.4661 40.8903 20.4531 40.8642C20.427 40.8512 20.4139 40.8251 20.3878 40.812C20.3486 40.7728 20.3356 40.7467 20.3356 40.7467C20.2703 40.6945 20.205 40.6423 20.1659 40.5901C19.4478 39.859 18.782 39.0626 18.1945 38.2271C18.0509 38.0313 17.9204 37.8224 17.7898 37.6136C17.7245 37.5222 17.6723 37.4177 17.607 37.3133C17.5679 37.248 17.5418 37.1958 17.5026 37.1305C17.2415 36.6736 17.0065 36.2167 16.7976 35.7467C16.5626 35.2115 16.3537 34.6762 16.171 34.1279C16.1318 33.9973 16.0926 33.8668 16.0535 33.7362C16.0404 33.684 16.0013 33.4882 16.0404 33.684C16.0796 33.8929 16.0404 33.6318 16.0143 33.5926C15.936 33.2924 15.8707 33.0052 15.8054 32.7049C15.6879 32.1044 15.5965 31.5039 15.5574 30.9033C15.5574 30.9033 15.5574 30.8772 15.5574 30.8642C15.5574 30.8119 15.5574 30.6945 15.5574 30.6683C15.5574 30.4986 15.5574 30.3159 15.5835 30.1462C15.5835 30.107 15.5965 29.9242 15.6226 29.7806C15.6226 29.7806 15.6357 29.7414 15.6618 29.6762C15.6879 29.5717 15.7271 29.4804 15.7663 29.3759C16.0143 28.6971 15.6879 27.8224 14.9699 27.5743C14.2649 27.3394 13.4294 27.6396 13.1683 28.3707C12.6852 29.7284 12.7374 31.1775 12.9724 32.5744C13.1683 33.7232 13.4816 34.872 13.8994 35.9686C14.7088 38.0835 15.949 40.0679 17.4634 41.752C20.5706 45.1854 24.8919 47.6005 29.5395 48.0053C32.3856 48.2533 35.5188 47.7572 37.7121 45.7859C38.2474 45.3029 38.4563 44.4282 37.9471 43.8277C37.4771 43.2924 36.5763 43.0705 35.9888 43.5927L35.9366 43.5796ZM15.6226 29.6109C15.6226 29.6109 15.5835 29.7284 15.5835 29.7676C15.5835 29.6892 15.6096 29.624 15.6226 29.6109Z" fill="var(--fill-0, white)"/>
</g>
<path id="Vector_4" d="M20.4155 40.8646C20.3502 40.7471 20.298 40.721 20.298 40.734C20.3372 40.7732 20.3894 40.8124 20.4155 40.8646Z" fill="var(--fill-0, #6D7581)"/>
<path id="Vector_5" d="M40.8046 41.7001C40.178 41.2824 39.3163 41.3737 38.8594 42.0004C38.4286 42.5878 38.533 43.5278 39.1597 43.9455C39.7863 44.3633 40.648 44.2719 41.1049 43.6453C41.5357 43.0578 41.4313 42.1179 40.8046 41.7001Z" fill="var(--fill-0, white)"/>
<path id="Vector_6" d="M61.1194 45.8648C61.1194 45.8648 61.0019 45.8518 60.9496 45.8518C59.618 45.9301 58.7302 48.7108 58.0644 49.6116C56.8895 51.2043 55.7014 52.7839 54.5003 54.3505C53.9259 55.1077 54.3698 55.2383 54.9703 55.656C55.4273 55.9824 55.8842 56.2957 56.3411 56.6221C57.6728 57.562 59.0044 58.502 60.336 59.4419C63.3779 61.5829 66.4198 63.737 69.4617 65.878C71.0022 66.9616 72.5427 68.3584 74.2138 69.2201C75.454 69.8728 77.1381 69.6639 78.4437 69.1156C80.9633 68.0582 82.7388 64.3114 81.3419 61.7788C80.8589 60.891 80.0756 60.2252 79.2923 59.5725C75.2582 56.1782 71.0936 52.9406 66.8245 49.8596C65.7801 49.1155 64.7357 48.3714 63.6782 47.6403C63.1299 47.2617 61.8896 46.0085 61.1194 45.8518V45.8648Z" fill="var(--fill-0, #3A3D42)"/>
</g>
  </svg>
  <svg x="62.59" y="12" width="21.85" height="35.99" viewBox="0 0 21.8527 35.9856" overflow="visible">
    <g id="Group">
<path id="Vector" d="M3.62608 9.26222L2.50333 9.15778L3.62608 9.27527L3.45636 9.26222H3.62608C3.62608 9.26222 3.62608 9.21 3.65219 9.0925C3.69136 8.84446 3.78275 8.37448 3.95246 7.82618C4.08302 7.40842 4.26579 6.9515 4.50078 6.50763C4.68356 6.16821 4.87938 5.84183 5.12743 5.54157C5.31021 5.31964 5.50604 5.09771 5.71492 4.90188C6.0413 4.61467 6.3938 4.36663 6.82462 4.17081C7.25544 3.97498 7.75154 3.83138 8.35208 3.7661C9.38345 3.66167 10.4801 3.68778 11.5506 3.85749C12.5689 4.01415 13.5481 4.30136 14.4228 4.71911C15.0755 5.01938 15.663 5.39797 16.1591 5.82878C16.5377 6.15515 16.8641 6.50763 17.1383 6.88623C17.3472 7.17343 17.5169 7.48675 17.6735 7.81312C17.8955 8.30921 18.0521 8.87057 18.1174 9.51026C18.1827 10.15 18.1827 10.868 18.0521 11.6774C17.9216 12.5259 17.7388 13.1917 17.5299 13.7139C17.3471 14.1709 17.1513 14.5233 16.9555 14.7975C16.7858 15.0325 16.603 15.2283 16.4202 15.385C16.2505 15.5286 16.0808 15.6461 15.885 15.7505C15.7152 15.8419 15.5325 15.9333 15.3366 16.0247C14.9841 16.1683 14.5925 16.2988 14.1486 16.4294C13.8222 16.5338 13.4567 16.6252 13.0911 16.7427C12.8039 16.8341 12.5167 16.9254 12.2164 17.0429C11.7726 17.2257 11.3026 17.4346 10.8326 17.7348C10.3756 18.0351 9.91871 18.4006 9.514 18.8706C9.00484 19.4581 8.57402 20.0586 8.22153 20.6591C7.68627 21.5599 7.32072 22.4738 7.04656 23.2962C6.78545 24.1187 6.62879 24.8628 6.52435 25.4633C6.38074 26.338 6.38074 26.9124 6.38074 26.9777C6.38074 27.996 7.19016 28.8185 8.20847 28.8315C9.22678 28.8315 10.0493 28.0221 10.0623 27.0038L8.97874 26.9908H10.0623V27.0038C10.0623 27.0038 10.0623 26.6122 10.1668 26.0247C10.2581 25.4242 10.4409 24.6278 10.7804 23.7793C10.9501 23.3615 11.1459 22.9307 11.394 22.4999C11.642 22.0821 11.9292 21.6644 12.2817 21.2727C12.3731 21.1683 12.4775 21.0769 12.582 20.9855C12.6864 20.9072 12.7909 20.8289 12.9084 20.7636C13.1303 20.633 13.3914 20.5155 13.6917 20.398C13.9528 20.2936 14.2661 20.2022 14.5925 20.1108C14.8797 20.0195 15.193 19.9411 15.5194 19.8367C16.0938 19.6539 16.7205 19.445 17.3602 19.1187C17.8432 18.8706 18.3393 18.5704 18.8093 18.1657C19.1618 17.8654 19.5013 17.526 19.8015 17.1213C20.0365 16.821 20.2454 16.4946 20.4412 16.1421C20.7285 15.62 20.9896 15.0325 21.1984 14.3797C21.4073 13.727 21.577 13.009 21.6945 12.2257C21.8382 11.351 21.8773 10.5155 21.8382 9.70608C21.799 9.00112 21.6945 8.32226 21.5248 7.68257C21.3812 7.12121 21.1854 6.58596 20.9504 6.08988C20.5326 5.2152 19.9843 4.43191 19.3577 3.75305C18.8877 3.24391 18.3524 2.80004 17.791 2.39534C16.9555 1.80787 16.0416 1.33789 15.0886 0.972357C14.1356 0.60682 13.1564 0.358777 12.1512 0.202118C10.7673 -0.0198153 9.35734 -0.0589802 7.99959 0.0846236C7.22934 0.162953 6.49824 0.332668 5.84548 0.580711C5.27105 0.802644 4.73578 1.06374 4.26579 1.37706C3.84802 1.65121 3.46942 1.95147 3.12998 2.27785C2.5425 2.83921 2.05945 3.45279 1.68085 4.06637C1.10642 4.98021 0.740872 5.89405 0.492822 6.67735C0.244772 7.46064 0.114222 8.10033 0.0620012 8.49198C0.0228355 8.71391 0.00977902 8.85751 0.00977902 8.88362C-0.094663 9.88885 0.649487 10.7896 1.6678 10.8941C2.67305 10.9985 3.57386 10.2544 3.6783 9.23611L3.62608 9.26222Z" fill="var(--fill-0, #FF4F14)"/>
<path id="Vector_2" d="M7.28165 32.8132L5.48002 32.4607L5.21891 33.7792C5.12753 34.2623 5.21892 34.7714 5.50613 35.1761C5.78029 35.5808 6.22417 35.855 6.70721 35.9463C6.70721 35.9463 6.73332 35.9463 6.74638 35.9463C6.81165 35.9463 6.9161 35.9725 7.04665 35.9855C7.15109 35.9855 7.26859 35.9855 7.42525 35.9855C7.5297 35.9855 7.66025 35.9725 7.80386 35.9333C7.9083 35.9072 8.02579 35.8811 8.15635 35.8419C8.24773 35.8027 8.35217 35.7636 8.46967 35.7114C8.63939 35.62 8.80911 35.5025 8.97883 35.3458C9.05716 35.2675 9.14855 35.1761 9.21383 35.0717C9.29216 34.9672 9.35743 34.8628 9.40965 34.7453C9.46187 34.6278 9.5141 34.5103 9.54021 34.4059C9.56632 34.3014 9.59242 34.197 9.60548 34.1056C9.63159 33.9359 9.64465 33.7792 9.63159 33.6356C9.63159 33.3745 9.57937 33.1526 9.52715 32.9307C9.47493 32.761 9.42271 32.5912 9.34438 32.4346C9.2791 32.304 9.21382 32.1865 9.12243 32.056C8.99188 31.8602 8.82217 31.6643 8.58717 31.4816C8.46967 31.3902 8.33912 31.2988 8.18246 31.2335C8.0258 31.1552 7.85608 31.0899 7.67331 31.0508C7.19026 30.9333 6.68111 31.0246 6.26334 31.2988C5.84557 31.573 5.55835 32.0038 5.46697 32.4868L7.26859 32.8393L6.86388 34.6278L7.1772 33.257L6.45917 34.4581C6.56361 34.5234 6.70722 34.5886 6.86388 34.6147L7.1772 33.244L6.45917 34.445L7.11193 33.3484L6.23722 34.2753C6.23722 34.2753 6.36778 34.3928 6.45917 34.445L7.11193 33.3484L6.23722 34.2753L6.94221 33.5442L6.05445 34.0534C6.05445 34.0534 6.13278 34.1839 6.23722 34.2753L6.94221 33.5442L6.05445 34.0534L6.68111 33.6879L6.01529 33.9359C6.01529 33.9359 6.0414 34.0012 6.06751 34.0403L6.69416 33.6748L6.02834 33.9228L6.62888 33.7009L5.98918 33.7923C5.98918 33.7923 6.00223 33.8837 6.02834 33.9359L6.62888 33.714L5.98918 33.8053L6.82471 33.6879H5.97612C5.97612 33.6879 5.97612 33.7662 5.97612 33.8053L6.81166 33.6879H5.96306H7.05971L5.97612 33.5181C5.97612 33.5965 5.96306 33.6487 5.96306 33.6879H7.05971L5.97612 33.5181L7.25554 33.727L6.01529 33.3615C6.01529 33.3615 5.98918 33.479 5.97612 33.5312L7.25554 33.7401L6.01529 33.3745L7.38609 33.7792L6.09361 33.1657C6.05445 33.244 6.02834 33.3223 6.01529 33.3745L7.38609 33.7792L6.09361 33.1657L7.47748 33.8315L6.25028 32.9176C6.19806 32.9959 6.14584 33.0743 6.09361 33.1657L7.47748 33.8315L6.25028 32.9176L7.46442 33.8184L6.60278 32.5912C6.48528 32.6696 6.36778 32.7871 6.26334 32.9307L7.47748 33.8315L6.61583 32.6043L7.42525 33.7531L6.87694 32.4607C6.79861 32.4868 6.70721 32.539 6.61583 32.6043L7.42525 33.7531L6.87694 32.4607L7.35997 33.6095L7.04665 32.4085C7.04665 32.4085 6.94221 32.4346 6.87694 32.4607L7.35997 33.6095L7.04665 32.4085L7.2947 33.3615L7.21637 32.3824C7.21637 32.3824 7.12498 32.3824 7.04665 32.4085L7.2947 33.3615L7.21637 32.3824L7.26859 32.9307L7.30775 32.3824C7.30775 32.3824 7.28165 32.3824 7.22942 32.3824L7.28165 32.9307L7.32081 32.3824L7.28165 32.9176L7.35997 32.3954C7.35997 32.3954 7.32081 32.3954 7.30775 32.3954L7.26859 32.9307L7.34693 32.4085L7.16414 33.5965L7.37303 32.4085H7.35997L7.1772 33.5965L7.38609 32.4085L7.07276 34.2231L8.87439 34.5756L9.13549 33.257L7.33387 32.9046L7.28165 32.8132Z" fill="var(--fill-0, #FF4F14)"/>
</g>
  </svg>
</svg>