<svg viewBox="0 0 100 100" width="100" height="100" xmlns="http://www.w3.org/2000/svg" xmlns:xlink="http://www.w3.org/1999/xlink">
  <svg x="6" y="13" width="88.74" height="74" viewBox="0 0 88.7363 74" overflow="visible">
    <g id="Group 2147225934">
<path id="Vector" d="M76.2893 35.9497C75.1168 34.3281 73.2208 34.141 71.3498 34.1286C68.3811 34.1036 65.4124 34.1286 62.4437 34.1286C56.9305 34.1286 51.4172 34.1785 45.9039 34.2034C43.2221 34.2159 40.5279 34.2284 37.8461 34.2284C35.9002 34.2284 33.418 33.8417 31.5969 34.7398C29.4639 35.8 29.6136 38.1325 29.5762 40.1657C29.5263 43.1594 29.5138 46.1405 29.5512 49.1341C29.6011 54.2982 29.9504 59.4247 30.0626 64.5763C30.1375 67.7944 29.202 69.9399 32.5573 71.6113C35.551 73.1081 39.3678 72.4845 42.6234 72.4845C52.1032 72.447 62.3065 72.8961 71.7115 71.5614C79.0958 70.5137 76.8256 55.3459 76.9753 49.7952C77.0502 47.0885 77.125 44.3818 77.1998 41.675C77.2497 39.7666 77.4867 37.6087 76.2893 35.9622V35.9497Z" fill="var(--fill-0, #EFEFEF)"/>
<path id="Vector_2" d="M21.268 33.9912C24.4363 34.1035 27.617 34.2157 30.7853 34.328C41.8617 34.7147 52.9381 35.1138 64.0146 35.5005C71.6359 35.7749 79.1948 35.7375 86.7786 36.2115C87.1279 36.2364 87.4896 36.2489 87.8264 36.1366C90.3835 35.251 86.8285 32.0703 85.9679 31.3468C84.6706 30.2492 83.3484 29.2014 81.9888 28.2035C79.781 26.5695 77.4984 25.0602 75.2157 23.5634C71.4862 21.1061 67.7566 18.6364 64.027 16.1791C62.1186 14.9193 60.2102 13.6594 58.3017 12.3996C56.7924 11.4017 55.6823 10.4039 54.0358 11.776C53.1252 12.5244 52.0525 13.0358 50.9923 13.5597C44.9676 16.4909 39.1175 19.759 33.4671 23.3513C30.6481 25.1475 27.8665 27.031 25.1597 28.9769C23.875 29.8999 22.3906 30.7855 21.2431 31.8832C20.7192 32.3696 19.7088 33.9538 21.2805 34.0037L21.268 33.9912Z" fill="var(--fill-0, #9BA3B0)"/>
<path id="Vector_3" d="M49.12 47.1756C45.5027 47.2505 41.1994 47.7993 37.5945 47.8617C37.133 55.8197 38.7296 63.915 38.5924 71.2868C42.5964 71.0249 46.6253 70.9501 50.6418 71.0748C50.3798 63.6531 50.5669 56.7927 49.8435 47.6746C49.8435 47.5374 49.7936 47.4002 49.6813 47.3004C49.5441 47.1881 49.3196 47.1756 49.12 47.1881V47.1756Z" fill="var(--fill-0, #9BA3B0)"/>
<g id="Group">
<path id="Vector_4" d="M70.2113 51.292C70.1988 50.0321 70.1863 48.7723 70.2113 47.6622L65.4339 47.7994C65.6335 48.9719 65.7083 50.1444 65.7333 51.3294C67.2301 51.3294 68.7145 51.3294 70.2113 51.292Z" fill="var(--fill-0, #9BA3B0)"/>
<path id="Vector_5" d="M65.7582 52.4396C65.7582 53.5872 65.7458 54.7472 65.7458 55.8947C67.2176 55.795 68.702 55.6827 70.2237 55.5081C70.2487 54.5476 70.2362 53.4874 70.2237 52.4146C68.7394 52.4521 67.2551 52.4521 65.7582 52.4396Z" fill="var(--fill-0, #9BA3B0)"/>
<path id="Vector_6" d="M62.9776 51.2918C63.5265 51.2918 64.0628 51.3043 64.6117 51.3168C64.5742 50.1443 64.4994 48.9842 64.2874 47.8367L60.8322 47.9365C60.3083 47.9489 59.7844 47.9614 59.2605 47.9614C59.3853 49.1215 59.4726 50.269 59.5599 51.429C60.7075 51.3542 61.855 51.2794 62.9776 51.2918Z" fill="var(--fill-0, #9BA3B0)"/>
<path id="Vector_7" d="M61.9433 52.4146C61.1699 52.4146 60.4091 52.4521 59.6357 52.4895C59.7106 53.6994 59.7729 54.9093 59.8228 56.1193C61.4194 56.0943 63.0036 56.0444 64.6126 55.9571C64.6126 54.7846 64.6376 53.5996 64.6376 52.4271C63.7395 52.4271 62.8414 52.4146 61.9433 52.4022V52.4146Z" fill="var(--fill-0, #9BA3B0)"/>
</g>
<path id="Vector_8" d="M35.588 70.1269C33.7544 70.077 31.9208 70.0147 30.0747 69.9398C27.2183 69.8276 27.7546 70.8379 28.0789 73.3451C28.1288 73.7318 39.0057 73.8191 40.1158 73.8565C44.3319 73.9688 48.5604 74.0187 52.7764 73.9937C60.5598 73.9563 68.1188 72.9833 75.8773 73.1081C76.2764 71.9356 76.451 70.6758 76.4136 69.4409C73.7817 69.4658 71.1498 69.4908 68.5179 69.5157C66.4598 69.5407 64.3892 69.5531 62.3435 69.7777C60.7469 69.9523 59.1628 70.2392 57.5662 70.3764C55.8823 70.5261 54.1734 70.5136 52.477 70.4887C47.5001 70.4263 42.5232 70.339 37.5463 70.1893C36.8977 70.1768 36.2491 70.1519 35.588 70.1269Z" fill="var(--fill-0, #595E65)"/>
<path id="Vector_9" opacity="0.12" d="M32.5678 34.64C39.8274 34.902 47.0869 35.1515 54.3465 35.4134C59.1363 35.588 63.9261 35.7502 68.7034 35.9248C71.3104 36.0121 74.4662 35.6753 76.9858 36.2865C74.778 40.54 67.6182 41.9994 63.5145 43.6334C57.9264 45.8537 52.3383 48.074 46.7501 50.2818C42.7212 51.8784 38.6798 53.4875 34.6509 55.0841C34.2018 55.2587 29.5991 56.6432 29.5368 57.1172C29.5368 57.0923 32.5678 34.64 32.5678 34.64Z" fill="var(--fill-0, #232020)"/>
<g id="Group_2">
<path id="Vector_10" d="M28.913 34.1907C28.8631 34.8144 28.8132 35.4381 28.7758 36.0618C30.0106 36.3487 31.2704 36.4484 32.5303 36.3736C32.5053 35.6127 32.5303 34.8518 32.6051 34.091C31.3827 34.1159 30.1478 34.1533 28.9254 34.1783L28.913 34.1907Z" fill="var(--fill-0, #686F7A)"/>
<g id="Group_3">
<path id="Vector_11" d="M12.1994 34.7395C12.1994 34.7395 12.1994 34.6896 12.1994 34.6023C12.1994 34.278 12.1744 33.4049 12.1744 32.2573C12.1744 31.1222 12.2118 29.7127 12.3116 28.3282C12.3615 27.5299 12.4488 26.744 12.5486 26.0206C12.5985 25.6588 12.6609 25.3096 12.7232 24.9977C12.7856 24.6859 12.848 24.3865 12.9228 24.1371C13.1224 23.4136 13.4592 22.6652 13.9207 21.9667C14.2699 21.4428 14.6691 20.9439 15.1306 20.5073C15.4799 20.1705 15.8416 19.8712 16.2408 19.6092C16.827 19.2225 17.4632 18.9107 18.1367 18.7236C18.8103 18.5365 19.5088 18.4492 20.2572 18.4991C20.3321 18.4991 20.3944 18.4991 20.4693 18.5115C21.5669 18.6238 22.6147 18.8109 23.5627 19.0604C24.2737 19.2475 24.9223 19.4845 25.4961 19.7464C25.9326 19.946 26.3193 20.1705 26.6561 20.395C26.9056 20.5697 27.1426 20.7568 27.3421 20.9439C27.6415 21.2308 27.8785 21.5426 28.0781 21.8669C28.2652 22.1912 28.4149 22.5529 28.5022 22.9521C28.6893 23.8128 28.814 24.5487 28.8764 25.2098C28.9762 26.1952 28.9762 27.006 28.9512 27.8542C28.9512 28.2783 28.9263 28.7148 28.9013 29.1639C28.8764 29.8624 28.4523 30.7605 28.9886 31.3093C29.5125 31.8457 30.6601 31.7958 31.3461 31.7833C32.6184 31.7708 32.7057 30.6607 32.7556 29.5755C32.7806 28.877 32.6808 28.191 32.6933 27.4924C32.6933 26.7815 32.6933 25.9956 32.6184 25.1225C32.5436 24.2369 32.3939 23.2639 32.1444 22.1413C32.0072 21.5301 31.8076 20.9563 31.5332 20.4075C31.2962 19.9335 31.0218 19.497 30.6975 19.0978C30.1362 18.3868 29.4751 17.7881 28.7392 17.2891C28.1903 16.9149 27.6041 16.5906 26.9804 16.3037C26.0574 15.8796 25.072 15.5553 24.0367 15.3183C23.0138 15.0689 21.9411 14.8942 20.8559 14.782C20.7437 14.782 20.6314 14.757 20.5192 14.757C19.8082 14.7071 19.1221 14.7321 18.4486 14.8319C17.2761 14.994 16.1784 15.3682 15.193 15.8796C14.4446 16.2663 13.7585 16.7278 13.1349 17.2517C12.1994 18.0376 11.4011 18.9606 10.7524 19.9585C10.1038 20.9563 9.61735 22.0166 9.31798 23.1267C9.2182 23.5009 9.13088 23.8751 9.04357 24.2743C8.93131 24.873 8.83152 25.4967 8.75668 26.1328C8.68184 26.769 8.61947 27.4176 8.58205 28.0662C8.45731 29.7876 8.43237 31.4715 8.43237 32.7438C8.43237 34.0161 8.45731 34.8518 8.45731 34.8767C8.49473 35.912 9.35541 36.7103 10.3907 36.6729C11.426 36.6355 12.2243 35.7748 12.1869 34.7395H12.1994Z" fill="var(--fill-0, #686F7A)"/>
<path id="Vector_12" d="M26.0937 35.8621C26.0937 35.8621 13.7076 34.5648 10.6765 34.2779C7.64548 33.991 4.97615 33.517 4.42732 34.9515C3.86602 36.3859 3.03029 44.107 2.84319 48.3979C2.65609 52.6763 2.44404 55.4703 2.50641 55.882C2.56878 56.2936 2.30683 57.0046 3.60407 57.5035C4.90131 58.0025 16.8758 59.2498 21.0669 59.4494C25.2705 59.6489 33.6901 60.8464 34.4135 59.175C35.137 57.5035 36.4093 41.5874 36.6213 39.3297C36.8334 37.072 35.0871 36.6728 34.2264 36.5481C33.3658 36.4234 26.0813 35.8621 26.0813 35.8621H26.0937Z" fill="var(--fill-0, #DF9600)"/>
<path id="Vector_13" d="M18.3355 47.1256C18.3355 47.1256 16.901 45.3045 18.5475 44.1445C20.194 42.9844 21.0422 44.4937 21.0173 45.3295C21.0048 46.1652 20.3063 47.2628 20.3063 47.2628C20.3063 47.2628 20.4061 48.8844 20.4684 49.3584C20.5433 49.8324 21.1295 50.5434 20.6555 50.5184C20.1815 50.481 17.2877 50.4311 17.4374 49.9821C17.5871 49.533 18.3355 47.1381 18.3355 47.1381V47.1256Z" fill="var(--fill-0, white)"/>
</g>
</g>
<g id="Group_4">
<path id="Vector_14" d="M10.9145 5.71389C10.0538 3.91771 8.94366 2.08411 7.52168 0.674607C6.18702 -0.64758 4.37837 1.28581 5.21409 2.73273C6.08724 4.25449 7.29716 5.6141 8.34493 7.0236C8.86882 7.73459 9.48002 8.37073 10.0164 9.09419C10.5028 9.76776 10.9145 10.4538 11.7128 10.7656C11.9997 10.8779 12.2741 10.7407 12.3489 10.4413C12.7106 8.99441 11.5381 6.99865 10.9269 5.71389H10.9145Z" fill="var(--fill-0, #FF4F14)"/>
<path id="Vector_15" d="M17.6251 5.41462C17.8122 3.99264 17.9993 2.5582 17.9245 1.13622C17.8496 -0.273279 15.567 -0.435435 15.4173 1.01149C15.118 3.84296 15.3799 7.09854 15.7541 9.91754C15.8539 10.6659 16.9515 10.7657 17.1012 9.99238C17.3881 8.49557 17.438 6.94886 17.6376 5.42709L17.6251 5.41462Z" fill="var(--fill-0, #FF4F14)"/>
<path id="Vector_16" d="M10.3157 12.8487C7.47174 12.0129 4.15379 11.5265 1.21006 12.1501C-0.498808 12.5119 -0.374073 14.8943 1.43458 14.8818C4.35337 14.8694 7.33453 14.3954 10.2408 14.1958C11.0516 14.1334 11.0142 13.0607 10.3157 12.8487Z" fill="var(--fill-0, #FF4F14)"/>
</g>
</g>
  </svg>
  <svg x="34.96" y="48.12" width="3.42" height="1.36" viewBox="0 0 32 32" overflow="visible">
    <g id="Vector">
</g>
  </svg>
</svg>